<svg width="1920" height="1249" viewBox="0 0 1920 1249" fill="none" xmlns="http://www.w3.org/2000/svg">
<mask id="mask0_2301_295" style="mask-type:alpha" maskUnits="userSpaceOnUse" x="0" y="0" width="1920" height="1249">
<rect width="1920" height="1249" transform="matrix(1 0 0 -1 0 1249)" fill="#17171B"/>
</mask>
<g mask="url(#mask0_2301_295)">
<rect width="1920" height="1249" transform="matrix(1 0 0 -1 0 1249)" fill="#17171B"/>
<mask id="mask1_2301_295" style="mask-type:alpha" maskUnits="userSpaceOnUse" x="1" y="0" width="1920" height="1249">
<rect width="1920" height="1249" transform="matrix(1 0 0 -1 1 1249)" fill="#17171B"/>
</mask>
<g mask="url(#mask1_2301_295)">
<path d="M305.89 228.124C306.428 228.124 306.865 227.687 306.865 227.149C306.865 226.61 306.428 226.173 305.89 226.173C305.351 226.173 304.914 226.61 304.914 227.149C304.914 227.687 305.351 228.124 305.89 228.124Z" fill="white"/>
<path d="M470.878 464.937C471.417 464.937 471.853 464.5 471.853 463.961C471.853 463.422 471.417 462.986 470.878 462.986C470.339 462.986 469.902 463.422 469.902 463.961C469.902 464.5 470.339 464.937 470.878 464.937Z" fill="white"/>
<path d="M260.161 328.117C260.7 328.117 261.137 327.68 261.137 327.142C261.137 326.603 260.7 326.166 260.161 326.166C259.622 326.166 259.186 326.603 259.186 327.142C259.186 327.68 259.622 328.117 260.161 328.117Z" fill="white"/>
<path d="M452.976 422.329C453.514 422.329 453.951 421.892 453.951 421.353C453.951 420.814 453.514 420.378 452.976 420.378C452.437 420.378 452 420.814 452 421.353C452 421.892 452.437 422.329 452.976 422.329Z" fill="white"/>
<path d="M780.976 132.329C781.514 132.329 781.951 131.892 781.951 131.353C781.951 130.814 781.514 130.378 780.976 130.378C780.437 130.378 780 130.814 780 131.353C780 131.892 780.437 132.329 780.976 132.329Z" fill="white"/>
<path d="M297.231 593.342C297.77 593.342 298.207 592.906 298.207 592.367C298.207 591.828 297.77 591.391 297.231 591.391C296.693 591.391 296.256 591.828 296.256 592.367C296.256 592.906 296.693 593.342 297.231 593.342Z" fill="white"/>
<path d="M505.143 361.407C505.682 361.407 506.119 360.971 506.119 360.432C506.119 359.893 505.682 359.456 505.143 359.456C504.605 359.456 504.168 359.893 504.168 360.432C504.168 360.971 504.605 361.407 505.143 361.407Z" fill="white"/>
<path d="M335.034 473.229C335.573 473.229 336.01 472.792 336.01 472.253C336.01 471.715 335.573 471.278 335.034 471.278C334.495 471.278 334.059 471.715 334.059 472.253C334.059 472.792 334.495 473.229 335.034 473.229Z" fill="white"/>
<path d="M318.206 392.259C318.745 392.259 319.182 391.822 319.182 391.283C319.182 390.745 318.745 390.308 318.206 390.308C317.667 390.308 317.23 390.745 317.23 391.283C317.23 391.822 317.667 392.259 318.206 392.259Z" fill="white"/>
<path d="M450.976 144.329C451.514 144.329 451.951 143.892 451.951 143.353C451.951 142.814 451.514 142.378 450.976 142.378C450.437 142.378 450 142.814 450 143.353C450 143.892 450.437 144.329 450.976 144.329Z" fill="white"/>
<path d="M126.634 93.9871C127.173 93.9871 127.609 93.5503 127.609 93.0115C127.609 92.4728 127.173 92.036 126.634 92.036C126.095 92.036 125.658 92.4728 125.658 93.0115C125.658 93.5503 126.095 93.9871 126.634 93.9871Z" fill="white"/>
<path d="M117.976 37.4057C118.514 37.4057 118.951 36.9689 118.951 36.4301C118.951 35.8914 118.514 35.4546 117.976 35.4546C117.437 35.4546 117 35.8914 117 36.4301C117 36.9689 117.437 37.4057 117.976 37.4057Z" fill="white"/>
<path d="M178.825 22.5286C179.364 22.5286 179.801 22.0918 179.801 21.5531C179.801 21.0143 179.364 20.5775 178.825 20.5775C178.286 20.5775 177.85 21.0143 177.85 21.5531C177.85 22.0918 178.286 22.5286 178.825 22.5286Z" fill="white"/>
<path d="M165.655 21.919C166.194 21.919 166.631 21.4822 166.631 20.9434C166.631 20.4047 166.194 19.9679 165.655 19.9679C165.116 19.9679 164.68 20.4047 164.68 20.9434C164.68 21.4822 165.116 21.919 165.655 21.919Z" fill="white"/>
<path d="M303.085 138.74C303.624 138.74 304.06 138.303 304.06 137.764C304.06 137.226 303.624 136.789 303.085 136.789C302.546 136.789 302.109 137.226 302.109 137.764C302.109 138.303 302.546 138.74 303.085 138.74Z" fill="white"/>
<path d="M300.157 129.472C300.696 129.472 301.133 129.036 301.133 128.497C301.133 127.958 300.696 127.521 300.157 127.521C299.618 127.521 299.182 127.958 299.182 128.497C299.182 129.036 299.618 129.472 300.157 129.472Z" fill="white"/>
<path d="M227.358 157.031C227.897 157.031 228.334 156.595 228.334 156.056C228.334 155.517 227.897 155.08 227.358 155.08C226.82 155.08 226.383 155.517 226.383 156.056C226.383 156.595 226.82 157.031 227.358 157.031Z" fill="white"/>
<path d="M197.116 106.791C197.655 106.791 198.092 106.354 198.092 105.815C198.092 105.277 197.655 104.84 197.116 104.84C196.577 104.84 196.141 105.277 196.141 105.815C196.141 106.354 196.577 106.791 197.116 106.791Z" fill="white"/>
<path d="M238.333 184.225C238.872 184.225 239.309 183.788 239.309 183.249C239.309 182.71 238.872 182.274 238.333 182.274C237.794 182.274 237.357 182.71 237.357 183.249C237.357 183.788 237.794 184.225 238.333 184.225Z" fill="white"/>
<path d="M217.237 52.0387C217.776 52.0387 218.213 51.602 218.213 51.0632C218.213 50.5244 217.776 50.0876 217.237 50.0876C216.698 50.0876 216.262 50.5244 216.262 51.0632C216.262 51.602 216.698 52.0387 217.237 52.0387Z" fill="white"/>
<path d="M187.727 19.7239C188.266 19.7239 188.703 19.2871 188.703 18.7484C188.703 18.2096 188.266 17.7728 187.727 17.7728C187.189 17.7728 186.752 18.2096 186.752 18.7484C186.752 19.2871 187.189 19.7239 187.727 19.7239Z" fill="white"/>
<path d="M399.784 36.674C400.323 36.674 400.76 36.2372 400.76 35.6984C400.76 35.1597 400.323 34.7229 399.784 34.7229C399.245 34.7229 398.809 35.1597 398.809 35.6984C398.809 36.2372 399.245 36.674 399.784 36.674Z" fill="white"/>
<path d="M361.983 92.2798C362.522 92.2798 362.959 91.8431 362.959 91.3043C362.959 90.7655 362.522 90.3287 361.983 90.3287C361.445 90.3287 361.008 90.7655 361.008 91.3043C361.008 91.8431 361.445 92.2798 361.983 92.2798Z" fill="white"/>
<path d="M175.655 191.541C176.194 191.541 176.631 191.104 176.631 190.566C176.631 190.027 176.194 189.59 175.655 189.59C175.116 189.59 174.68 190.027 174.68 190.566C174.68 191.104 175.116 191.541 175.655 191.541Z" fill="white"/>
<path d="M285.892 37.4057C286.43 37.4057 286.867 36.9689 286.867 36.4301C286.867 35.8914 286.43 35.4546 285.892 35.4546C285.353 35.4546 284.916 35.8914 284.916 36.4301C284.916 36.9689 285.353 37.4057 285.892 37.4057Z" fill="white"/>
<path d="M145.901 261.049C146.44 261.049 146.877 260.612 146.877 260.073C146.877 259.534 146.44 259.098 145.901 259.098C145.363 259.098 144.926 259.534 144.926 260.073C144.926 260.612 145.363 261.049 145.901 261.049Z" fill="white"/>
<path d="M542.946 375.553C543.485 375.553 543.922 375.116 543.922 374.577C543.922 374.038 543.485 373.602 542.946 373.602C542.407 373.602 541.971 374.038 541.971 374.577C541.971 375.116 542.407 375.553 542.946 375.553Z" fill="white"/>
<path d="M663.669 392.259C664.208 392.259 664.644 391.822 664.644 391.283C664.644 390.745 664.208 390.308 663.669 390.308C663.13 390.308 662.693 390.745 662.693 391.283C662.693 391.822 663.13 392.259 663.669 392.259Z" fill="white"/>
<path d="M416.126 285.559C416.665 285.559 417.101 285.122 417.101 284.584C417.101 284.045 416.665 283.608 416.126 283.608C415.587 283.608 415.15 284.045 415.15 284.584C415.15 285.122 415.587 285.559 416.126 285.559Z" fill="white"/>
<path d="M390.395 263.487C390.934 263.487 391.371 263.051 391.371 262.512C391.371 261.973 390.934 261.536 390.395 261.536C389.857 261.536 389.42 261.973 389.42 262.512C389.42 263.051 389.857 263.487 390.395 263.487Z" fill="white"/>
<path d="M558.311 67.5256C558.85 67.5256 559.287 67.0888 559.287 66.55C559.287 66.0112 558.85 65.5745 558.311 65.5745C557.773 65.5745 557.336 66.0112 557.336 66.55C557.336 67.0888 557.773 67.5256 558.311 67.5256Z" fill="white"/>
<path d="M331.497 209.589C332.036 209.589 332.473 209.152 332.473 208.613C332.473 208.074 332.036 207.638 331.497 207.638C330.958 207.638 330.521 208.074 330.521 208.613C330.521 209.152 330.958 209.589 331.497 209.589Z" fill="white"/>
<path d="M444.538 68.3791C445.077 68.3791 445.514 67.9423 445.514 67.4035C445.514 66.8647 445.077 66.428 444.538 66.428C443.999 66.428 443.562 66.8647 443.562 67.4035C443.562 67.9423 443.999 68.3791 444.538 68.3791Z" fill="white"/>
<path d="M261.259 237.636C261.798 237.636 262.234 237.199 262.234 236.66C262.234 236.121 261.798 235.684 261.259 235.684C260.72 235.684 260.283 236.121 260.283 236.66C260.283 237.199 260.72 237.636 261.259 237.636Z" fill="white"/>
<path d="M1572.63 379.089C1573.17 379.089 1573.61 378.652 1573.61 378.114C1573.61 377.575 1573.17 377.138 1572.63 377.138C1572.09 377.138 1571.65 377.575 1571.65 378.114C1571.65 378.652 1572.09 379.089 1572.63 379.089Z" fill="white"/>
<path d="M1289.72 510.177C1290.26 510.177 1290.7 509.741 1290.7 509.202C1290.7 508.663 1290.26 508.226 1289.72 508.226C1289.18 508.226 1288.75 508.663 1288.75 509.202C1288.75 509.741 1289.18 510.177 1289.72 510.177Z" fill="white"/>
<path d="M1322.16 456.645C1322.7 456.645 1323.13 456.208 1323.13 455.669C1323.13 455.13 1322.7 454.694 1322.16 454.694C1321.62 454.694 1321.18 455.13 1321.18 455.669C1321.18 456.208 1321.62 456.645 1322.16 456.645Z" fill="white"/>
<path d="M1312.41 465.424C1312.94 465.424 1313.38 464.988 1313.38 464.449C1313.38 463.91 1312.94 463.473 1312.41 463.473C1311.87 463.473 1311.43 463.91 1311.43 464.449C1311.43 464.988 1311.87 465.424 1312.41 465.424Z" fill="white"/>
<path d="M1460.57 428.232C1461.1 428.232 1461.54 427.795 1461.54 427.257C1461.54 426.718 1461.1 426.281 1460.57 426.281C1460.03 426.281 1459.59 426.718 1459.59 427.257C1459.59 427.795 1460.03 428.232 1460.57 428.232Z" fill="white"/>
<path d="M1472.64 333.361C1473.18 333.361 1473.61 332.924 1473.61 332.385C1473.61 331.846 1473.18 331.41 1472.64 331.41C1472.1 331.41 1471.66 331.846 1471.66 332.385C1471.66 332.924 1472.1 333.361 1472.64 333.361Z" fill="white"/>
<path d="M1451.66 517.494C1452.2 517.494 1452.64 517.057 1452.64 516.519C1452.64 515.98 1452.2 515.543 1451.66 515.543C1451.12 515.543 1450.69 515.98 1450.69 516.519C1450.69 517.057 1451.12 517.494 1451.66 517.494Z" fill="white"/>
<path d="M1370.33 450.304C1370.87 450.304 1371.3 449.867 1371.3 449.328C1371.3 448.789 1370.87 448.353 1370.33 448.353C1369.79 448.353 1369.35 448.789 1369.35 449.328C1369.35 449.867 1369.79 450.304 1370.33 450.304Z" fill="white"/>
<path d="M1326.55 448.353C1327.09 448.353 1327.53 447.916 1327.53 447.377C1327.53 446.838 1327.09 446.401 1326.55 446.401C1326.01 446.401 1325.57 446.838 1325.57 447.377C1325.57 447.916 1326.01 448.353 1326.55 448.353Z" fill="white"/>
<path d="M1207.41 370.309C1207.95 370.309 1208.39 369.872 1208.39 369.334C1208.39 368.795 1207.95 368.358 1207.41 368.358C1206.87 368.358 1206.44 368.795 1206.44 369.334C1206.44 369.872 1206.87 370.309 1207.41 370.309Z" fill="white"/>
<path d="M1456.17 457.62C1456.71 457.62 1457.15 457.183 1457.15 456.645C1457.15 456.106 1456.71 455.669 1456.17 455.669C1455.64 455.669 1455.2 456.106 1455.2 456.645C1455.2 457.183 1455.64 457.62 1456.17 457.62Z" fill="white"/>
<path d="M1327.52 408.111C1328.06 408.111 1328.5 407.675 1328.5 407.136C1328.5 406.597 1328.06 406.16 1327.52 406.16C1326.99 406.16 1326.55 406.597 1326.55 407.136C1326.55 407.675 1326.99 408.111 1327.52 408.111Z" fill="white"/>
<path d="M1408.49 391.405C1409.03 391.405 1409.47 390.969 1409.47 390.43C1409.47 389.891 1409.03 389.454 1408.49 389.454C1407.96 389.454 1407.52 389.891 1407.52 390.43C1407.52 390.969 1407.96 391.405 1408.49 391.405Z" fill="white"/>
<path d="M1270.58 736.869C1271.12 736.869 1271.55 736.432 1271.55 735.893C1271.55 735.355 1271.12 734.918 1270.58 734.918C1270.04 734.918 1269.6 735.355 1269.6 735.893C1269.6 736.432 1270.04 736.869 1270.58 736.869Z" fill="white"/>
<path d="M1634.94 524.323C1635.48 524.323 1635.92 523.886 1635.92 523.347C1635.92 522.808 1635.48 522.372 1634.94 522.372C1634.4 522.372 1633.97 522.808 1633.97 523.347C1633.97 523.886 1634.4 524.323 1634.94 524.323Z" fill="white"/>
<path d="M1706.77 199.711C1707.31 199.711 1707.74 199.275 1707.74 198.736C1707.74 198.197 1707.31 197.76 1706.77 197.76C1706.23 197.76 1705.79 198.197 1705.79 198.736C1705.79 199.275 1706.23 199.711 1706.77 199.711Z" fill="white"/>
<path d="M1763.35 191.175C1763.89 191.175 1764.32 190.739 1764.32 190.2C1764.32 189.661 1763.89 189.224 1763.35 189.224C1762.81 189.224 1762.37 189.661 1762.37 190.2C1762.37 190.739 1762.81 191.175 1763.35 191.175Z" fill="white"/>
<path d="M1778.23 252.025C1778.76 252.025 1779.2 251.588 1779.2 251.049C1779.2 250.51 1778.76 250.074 1778.23 250.074C1777.69 250.074 1777.25 250.51 1777.25 251.049C1777.25 251.588 1777.69 252.025 1778.23 252.025Z" fill="white"/>
<path d="M1778.96 238.733C1779.49 238.733 1779.93 238.296 1779.93 237.758C1779.93 237.219 1779.49 236.782 1778.96 236.782C1778.42 236.782 1777.98 237.219 1777.98 237.758C1777.98 238.296 1778.42 238.733 1778.96 238.733Z" fill="white"/>
<path d="M1662.01 376.163C1662.55 376.163 1662.99 375.726 1662.99 375.187C1662.99 374.648 1662.55 374.211 1662.01 374.211C1661.48 374.211 1661.04 374.648 1661.04 375.187C1661.04 375.726 1661.48 376.163 1662.01 376.163Z" fill="white"/>
<path d="M1671.28 373.236C1671.82 373.236 1672.26 372.799 1672.26 372.26C1672.26 371.722 1671.82 371.285 1671.28 371.285C1670.74 371.285 1670.31 371.722 1670.31 372.26C1670.31 372.799 1670.74 373.236 1671.28 373.236Z" fill="white"/>
<path d="M1643.72 300.436C1644.26 300.436 1644.7 299.999 1644.7 299.461C1644.7 298.922 1644.26 298.485 1643.72 298.485C1643.18 298.485 1642.75 298.922 1642.75 299.461C1642.75 299.999 1643.18 300.436 1643.72 300.436Z" fill="white"/>
<path d="M1693.96 270.194C1694.5 270.194 1694.94 269.757 1694.94 269.219C1694.94 268.68 1694.5 268.243 1693.96 268.243C1693.42 268.243 1692.99 268.68 1692.99 269.219C1692.99 269.757 1693.42 270.194 1693.96 270.194Z" fill="white"/>
<path d="M1616.53 311.533C1617.07 311.533 1617.51 311.096 1617.51 310.557C1617.51 310.019 1617.07 309.582 1616.53 309.582C1615.99 309.582 1615.55 310.019 1615.55 310.557C1615.55 311.096 1615.99 311.533 1616.53 311.533Z" fill="white"/>
<path d="M1748.72 290.437C1749.25 290.437 1749.69 290 1749.69 289.461C1749.69 288.922 1749.25 288.486 1748.72 288.486C1748.18 288.486 1747.74 288.922 1747.74 289.461C1747.74 290 1748.18 290.437 1748.72 290.437Z" fill="white"/>
<path d="M1781.03 260.927C1781.57 260.927 1782.01 260.49 1782.01 259.951C1782.01 259.412 1781.57 258.976 1781.03 258.976C1780.49 258.976 1780.05 259.412 1780.05 259.951C1780.05 260.49 1780.49 260.927 1781.03 260.927Z" fill="white"/>
<path d="M1764.2 472.985C1764.74 472.985 1765.18 472.548 1765.18 472.009C1765.18 471.471 1764.74 471.034 1764.2 471.034C1763.66 471.034 1763.23 471.471 1763.23 472.009C1763.23 472.548 1763.66 472.985 1764.2 472.985Z" fill="white"/>
<path d="M1708.47 435.061C1709.01 435.061 1709.45 434.624 1709.45 434.085C1709.45 433.546 1709.01 433.11 1708.47 433.11C1707.93 433.11 1707.5 433.546 1707.5 434.085C1707.5 434.624 1707.93 435.061 1708.47 435.061Z" fill="white"/>
<path d="M1609.33 248.732C1609.87 248.732 1610.31 248.296 1610.31 247.757C1610.31 247.218 1609.87 246.781 1609.33 246.781C1608.8 246.781 1608.36 247.218 1608.36 247.757C1608.36 248.296 1608.8 248.732 1609.33 248.732Z" fill="white"/>
<path d="M1808.71 290.071C1809.25 290.071 1809.69 289.634 1809.69 289.095C1809.69 288.557 1809.25 288.12 1808.71 288.12C1808.17 288.12 1807.74 288.557 1807.74 289.095C1807.74 289.634 1808.17 290.071 1808.71 290.071Z" fill="white"/>
<path d="M1763.35 359.09C1763.89 359.09 1764.32 358.654 1764.32 358.115C1764.32 357.576 1763.89 357.139 1763.35 357.139C1762.81 357.139 1762.37 357.576 1762.37 358.115C1762.37 358.654 1762.81 359.09 1763.35 359.09Z" fill="white"/>
<path d="M1539.71 218.978C1540.24 218.978 1540.68 218.542 1540.68 218.003C1540.68 217.464 1540.24 217.027 1539.71 217.027C1539.17 217.027 1538.73 217.464 1538.73 218.003C1538.73 218.542 1539.17 218.978 1539.71 218.978Z" fill="white"/>
<path d="M1425.2 616.146C1425.74 616.146 1426.18 615.709 1426.18 615.17C1426.18 614.631 1425.74 614.195 1425.2 614.195C1424.66 614.195 1424.23 614.631 1424.23 615.17C1424.23 615.709 1424.66 616.146 1425.2 616.146Z" fill="white"/>
<path d="M1626.53 607.854C1627.07 607.854 1627.5 607.417 1627.5 606.878C1627.5 606.339 1627.07 605.902 1626.53 605.902C1625.99 605.902 1625.55 606.339 1625.55 606.878C1625.55 607.417 1625.99 607.854 1626.53 607.854Z" fill="white"/>
<path d="M1537.27 463.473C1537.81 463.473 1538.24 463.037 1538.24 462.498C1538.24 461.959 1537.81 461.522 1537.27 461.522C1536.73 461.522 1536.29 461.959 1536.29 462.498C1536.29 463.037 1536.73 463.473 1537.27 463.473Z" fill="white"/>
<path d="M1579.09 465.424C1579.63 465.424 1580.07 464.988 1580.07 464.449C1580.07 463.91 1579.63 463.473 1579.09 463.473C1578.55 463.473 1578.12 463.91 1578.12 464.449C1578.12 464.988 1578.55 465.424 1579.09 465.424Z" fill="white"/>
<path d="M1635.92 479.692C1636.46 479.692 1636.89 479.255 1636.89 478.716C1636.89 478.178 1636.46 477.741 1635.92 477.741C1635.38 477.741 1634.94 478.178 1634.94 478.716C1634.94 479.255 1635.38 479.692 1635.92 479.692Z" fill="white"/>
<path d="M1482.51 401.77C1483.05 401.77 1483.49 401.334 1483.49 400.795C1483.49 400.256 1483.05 399.819 1482.51 399.819C1481.98 399.819 1481.54 400.256 1481.54 400.795C1481.54 401.334 1481.98 401.77 1482.51 401.77Z" fill="white"/>
<path d="M1809.69 441.89C1810.23 441.89 1810.66 441.453 1810.66 440.914C1810.66 440.375 1810.23 439.938 1809.69 439.938C1809.15 439.938 1808.71 440.375 1808.71 440.914C1808.71 441.453 1809.15 441.89 1809.69 441.89Z" fill="white"/>
<path d="M1733.23 631.51C1733.77 631.51 1734.2 631.074 1734.2 630.535C1734.2 629.996 1733.77 629.559 1733.23 629.559C1732.69 629.559 1732.25 629.996 1732.25 630.535C1732.25 631.074 1732.69 631.51 1733.23 631.51Z" fill="white"/>
<path d="M1591.29 404.575C1591.83 404.575 1592.26 404.138 1592.26 403.6C1592.26 403.061 1591.83 402.624 1591.29 402.624C1590.75 402.624 1590.31 403.061 1590.31 403.6C1590.31 404.138 1590.75 404.575 1591.29 404.575Z" fill="white"/>
<path d="M1732.37 517.616C1732.91 517.616 1733.35 517.179 1733.35 516.64C1733.35 516.102 1732.91 515.665 1732.37 515.665C1731.84 515.665 1731.4 516.102 1731.4 516.64C1731.4 517.179 1731.84 517.616 1732.37 517.616Z" fill="white"/>
<path d="M1563.12 334.336C1563.66 334.336 1564.09 333.899 1564.09 333.361C1564.09 332.822 1563.66 332.385 1563.12 332.385C1562.58 332.385 1562.14 332.822 1562.14 333.361C1562.14 333.899 1562.58 334.336 1563.12 334.336Z" fill="white"/>
<path d="M1322.16 138.13C1322.7 138.13 1323.13 137.694 1323.13 137.155C1323.13 136.616 1322.7 136.179 1322.16 136.179C1321.62 136.179 1321.18 136.616 1321.18 137.155C1321.18 137.694 1321.62 138.13 1322.16 138.13Z" fill="white"/>
<path d="M1276.19 104.23C1276.73 104.23 1277.16 103.793 1277.16 103.255C1277.16 102.716 1276.73 102.279 1276.19 102.279C1275.65 102.279 1275.21 102.716 1275.21 103.255C1275.21 103.793 1275.65 104.23 1276.19 104.23Z" fill="white"/>
<path d="M1308.62 50.6974C1309.16 50.6974 1309.6 50.2607 1309.6 49.7219C1309.6 49.1831 1309.16 48.7463 1308.62 48.7463C1308.09 48.7463 1307.65 49.1831 1307.65 49.7219C1307.65 50.2607 1308.09 50.6974 1308.62 50.6974Z" fill="white"/>
<path d="M1298.75 59.5993C1299.29 59.5993 1299.72 59.1625 1299.72 58.6237C1299.72 58.085 1299.29 57.6482 1298.75 57.6482C1298.21 57.6482 1297.77 58.085 1297.77 58.6237C1297.77 59.1625 1298.21 59.5993 1298.75 59.5993Z" fill="white"/>
<path d="M1446.91 22.2848C1447.45 22.2848 1447.88 21.8481 1447.88 21.3093C1447.88 20.7705 1447.45 20.3337 1446.91 20.3337C1446.37 20.3337 1445.93 20.7705 1445.93 21.3093C1445.93 21.8481 1446.37 22.2848 1446.91 22.2848Z" fill="white"/>
<path d="M1438 111.547C1438.54 111.547 1438.98 111.11 1438.98 110.571C1438.98 110.032 1438.54 109.596 1438 109.596C1437.47 109.596 1437.03 110.032 1437.03 110.571C1437.03 111.11 1437.47 111.547 1438 111.547Z" fill="white"/>
<path d="M1381.06 97.4014C1381.6 97.4014 1382.03 96.9646 1382.03 96.4259C1382.03 95.8871 1381.6 95.4503 1381.06 95.4503C1380.52 95.4503 1380.08 95.8871 1380.08 96.4259C1380.08 96.9646 1380.52 97.4014 1381.06 97.4014Z" fill="white"/>
<path d="M1337.52 263.609C1338.06 263.609 1338.5 263.173 1338.5 262.634C1338.5 262.095 1338.06 261.658 1337.52 261.658C1336.99 261.658 1336.55 262.095 1336.55 262.634C1336.55 263.173 1336.99 263.609 1337.52 263.609Z" fill="white"/>
<path d="M1356.67 44.3564C1357.21 44.3564 1357.64 43.9196 1357.64 43.3808C1357.64 42.842 1357.21 42.4053 1356.67 42.4053C1356.13 42.4053 1355.69 42.842 1355.69 43.3808C1355.69 43.9196 1356.13 44.3564 1356.67 44.3564Z" fill="white"/>
<path d="M1313.01 42.4053C1313.55 42.4053 1313.99 41.9685 1313.99 41.4298C1313.99 40.891 1313.55 40.4542 1313.01 40.4542C1312.48 40.4542 1312.04 40.891 1312.04 41.4298C1312.04 41.9685 1312.48 42.4053 1313.01 42.4053Z" fill="white"/>
<path d="M1244.6 410.063C1245.14 410.063 1245.58 409.626 1245.58 409.087C1245.58 408.548 1245.14 408.111 1244.6 408.111C1244.07 408.111 1243.63 408.548 1243.63 409.087C1243.63 409.626 1244.07 410.063 1244.6 410.063Z" fill="white"/>
<path d="M1442.52 51.673C1443.06 51.673 1443.49 51.2362 1443.49 50.6975C1443.49 50.1587 1443.06 49.7219 1442.52 49.7219C1441.98 49.7219 1441.54 50.1587 1441.54 50.6975C1441.54 51.2362 1441.98 51.673 1442.52 51.673Z" fill="white"/>
<path d="M1425.81 172.396C1426.35 172.396 1426.79 171.959 1426.79 171.421C1426.79 170.882 1426.35 170.445 1425.81 170.445C1425.27 170.445 1424.84 170.882 1424.84 171.421C1424.84 171.959 1425.27 172.396 1425.81 172.396Z" fill="white"/>
<path d="M1313.99 2.28616C1314.53 2.28616 1314.96 1.8494 1314.96 1.31062C1314.96 0.771842 1314.53 0.335083 1313.99 0.335083C1313.45 0.335083 1313.01 0.771842 1313.01 1.31062C1313.01 1.8494 1313.45 2.28616 1313.99 2.28616Z" fill="white"/>
<path d="M1257.04 330.922C1257.58 330.922 1258.02 330.485 1258.02 329.946C1258.02 329.407 1257.58 328.971 1257.04 328.971C1256.5 328.971 1256.07 329.407 1256.07 329.946C1256.07 330.485 1256.5 330.922 1257.04 330.922Z" fill="white"/>
<path d="M1621.41 118.498C1621.95 118.498 1622.38 118.061 1622.38 117.522C1622.38 116.983 1621.95 116.547 1621.41 116.547C1620.87 116.547 1620.43 116.983 1620.43 117.522C1620.43 118.061 1620.87 118.498 1621.41 118.498Z" fill="white"/>
<path d="M1861.02 116.059C1861.56 116.059 1862 115.622 1862 115.083C1862 114.544 1861.56 114.108 1861.02 114.108C1860.49 114.108 1860.05 114.544 1860.05 115.083C1860.05 115.622 1860.49 116.059 1861.02 116.059Z" fill="white"/>
<path d="M1841.76 169.835C1842.3 169.835 1842.73 169.399 1842.73 168.86C1842.73 168.321 1842.3 167.884 1841.76 167.884C1841.22 167.884 1840.78 168.321 1840.78 168.86C1840.78 169.399 1841.22 169.835 1841.76 169.835Z" fill="white"/>
<path d="M1811.03 151.422C1811.57 151.422 1812 150.985 1812 150.446C1812 149.908 1811.57 149.471 1811.03 149.471C1810.49 149.471 1810.05 149.908 1810.05 150.446C1810.05 150.985 1810.49 151.422 1811.03 151.422Z" fill="white"/>
<path d="M1823.22 239.831C1823.76 239.831 1824.2 239.394 1824.2 238.855C1824.2 238.316 1823.76 237.88 1823.22 237.88C1822.68 237.88 1822.25 238.316 1822.25 238.855C1822.25 239.394 1822.68 239.831 1823.22 239.831Z" fill="white"/>
<path d="M1802.37 12.6513C1802.91 12.6513 1803.35 12.2145 1803.35 11.6757C1803.35 11.137 1802.91 10.7002 1802.37 10.7002C1801.83 10.7002 1801.39 11.137 1801.39 11.6757C1801.39 12.2145 1801.83 12.6513 1802.37 12.6513Z" fill="white"/>
<path d="M1805.05 71.3057C1805.59 71.3057 1806.03 70.8689 1806.03 70.3302C1806.03 69.7914 1805.59 69.3546 1805.05 69.3546C1804.51 69.3546 1804.08 69.7914 1804.08 70.3302C1804.08 70.8689 1804.51 71.3057 1805.05 71.3057Z" fill="white"/>
<path d="M977.671 166.177C978.21 166.177 978.646 165.74 978.646 165.202C978.646 164.663 978.21 164.226 977.671 164.226C977.132 164.226 976.695 164.663 976.695 165.202C976.695 165.74 977.132 166.177 977.671 166.177Z" fill="white"/>
<path d="M1761.28 109.84C1761.82 109.84 1762.25 109.403 1762.25 108.864C1762.25 108.325 1761.82 107.889 1761.28 107.889C1760.74 107.889 1760.3 108.325 1760.3 108.864C1760.3 109.403 1760.74 109.84 1761.28 109.84Z" fill="white"/>
<path d="M1772.01 152.276C1772.55 152.276 1772.98 151.839 1772.98 151.3C1772.98 150.761 1772.55 150.325 1772.01 150.325C1771.47 150.325 1771.03 150.761 1771.03 151.3C1771.03 151.839 1771.47 152.276 1772.01 152.276Z" fill="white"/>
<path d="M1750.54 67.0378C1751.08 67.0378 1751.52 66.601 1751.52 66.0622C1751.52 65.5234 1751.08 65.0867 1750.54 65.0867C1750.01 65.0867 1749.57 65.5234 1749.57 66.0622C1749.57 66.601 1750.01 67.0378 1750.54 67.0378Z" fill="white"/>
<path d="M1694.94 29.2355C1695.48 29.2355 1695.91 28.7987 1695.91 28.26C1695.91 27.7212 1695.48 27.2844 1694.94 27.2844C1694.4 27.2844 1693.96 27.7212 1693.96 28.26C1693.96 28.7987 1694.4 29.2355 1694.94 29.2355Z" fill="white"/>
<path d="M970.354 103.499C970.893 103.499 971.33 103.062 971.33 102.523C971.33 101.984 970.893 101.547 970.354 101.547C969.816 101.547 969.379 101.984 969.379 102.523C969.379 103.062 969.816 103.499 970.354 103.499Z" fill="white"/>
<path d="M1733.23 162.885C1733.77 162.885 1734.2 162.448 1734.2 161.909C1734.2 161.37 1733.77 160.934 1733.23 160.934C1732.69 160.934 1732.25 161.37 1732.25 161.909C1732.25 162.448 1732.69 162.885 1733.23 162.885Z" fill="white"/>
<path d="M900.849 73.6226C901.387 73.6226 901.824 73.1858 901.824 72.6471C901.824 72.1083 901.387 71.6715 900.849 71.6715C900.31 71.6715 899.873 72.1083 899.873 72.6471C899.873 73.1858 900.31 73.6226 900.849 73.6226Z" fill="white"/>
<path d="M1502.64 155.08C1503.17 155.08 1503.61 154.644 1503.61 154.105C1503.61 153.566 1503.17 153.129 1502.64 153.129C1502.1 153.129 1501.66 153.566 1501.66 154.105C1501.66 154.644 1502.1 155.08 1502.64 155.08Z" fill="white"/>
<path d="M1458.13 269.097C1458.66 269.097 1459.1 268.66 1459.1 268.121C1459.1 267.583 1458.66 267.146 1458.13 267.146C1457.59 267.146 1457.15 267.583 1457.15 268.121C1457.15 268.66 1457.59 269.097 1458.13 269.097Z" fill="white"/>
<path d="M1448.86 272.023C1449.4 272.023 1449.83 271.587 1449.83 271.048C1449.83 270.509 1449.4 270.072 1448.86 270.072C1448.32 270.072 1447.88 270.509 1447.88 271.048C1447.88 271.587 1448.32 272.023 1448.86 272.023Z" fill="white"/>
<path d="M1407.15 270.072C1407.69 270.072 1408.13 269.636 1408.13 269.097C1408.13 268.558 1407.69 268.121 1407.15 268.121C1406.61 268.121 1406.18 268.558 1406.18 269.097C1406.18 269.636 1406.61 270.072 1407.15 270.072Z" fill="white"/>
<path d="M1411.66 210.198C1412.2 210.198 1412.64 209.762 1412.64 209.223C1412.64 208.684 1412.2 208.247 1411.66 208.247C1411.13 208.247 1410.69 208.684 1410.69 209.223C1410.69 209.762 1411.13 210.198 1411.66 210.198Z" fill="white"/>
<path d="M1394.84 330.922C1395.38 330.922 1395.81 330.485 1395.81 329.946C1395.81 329.407 1395.38 328.971 1394.84 328.971C1394.3 328.971 1393.86 329.407 1393.86 329.946C1393.86 330.485 1394.3 330.922 1394.84 330.922Z" fill="white"/>
<path d="M1612.99 201.906C1613.53 201.906 1613.97 201.47 1613.97 200.931C1613.97 200.392 1613.53 199.955 1612.99 199.955C1612.45 199.955 1612.02 200.392 1612.02 200.931C1612.02 201.47 1612.45 201.906 1612.99 201.906Z" fill="white"/>
<path d="M1501.66 83.3781C1502.2 83.3781 1502.63 82.9413 1502.63 82.4025C1502.63 81.8638 1502.2 81.427 1501.66 81.427C1501.12 81.427 1500.68 81.8638 1500.68 82.4025C1500.68 82.9413 1501.12 83.3781 1501.66 83.3781Z" fill="white"/>
<path d="M1523.73 57.6481C1524.27 57.6481 1524.71 57.2113 1524.71 56.6726C1524.71 56.1338 1524.27 55.697 1523.73 55.697C1523.19 55.697 1522.76 56.1338 1522.76 56.6726C1522.76 57.2113 1523.19 57.6481 1523.73 57.6481Z" fill="white"/>
<path d="M1622.38 73.7445C1622.92 73.7445 1623.36 73.3078 1623.36 72.769C1623.36 72.2302 1622.92 71.7935 1622.38 71.7935C1621.84 71.7935 1621.41 72.2302 1621.41 72.769C1621.41 73.3078 1621.84 73.7445 1622.38 73.7445Z" fill="white"/>
<path d="M1796.03 35.9423C1796.57 35.9423 1797 35.5055 1797 34.9668C1797 34.428 1796.57 33.9912 1796.03 33.9912C1795.49 33.9912 1795.05 34.428 1795.05 34.9668C1795.05 35.5055 1795.49 35.9423 1796.03 35.9423Z" fill="white"/>
<path d="M1719.69 225.563C1720.23 225.563 1720.67 225.126 1720.67 224.588C1720.67 224.049 1720.23 223.612 1719.69 223.612C1719.15 223.612 1718.72 224.049 1718.72 224.588C1718.72 225.126 1719.15 225.563 1719.69 225.563Z" fill="white"/>
<path d="M1560.92 119.473C1561.46 119.473 1561.9 119.036 1561.9 118.498C1561.9 117.959 1561.46 117.522 1560.92 117.522C1560.38 117.522 1559.95 117.959 1559.95 118.498C1559.95 119.036 1560.38 119.473 1560.92 119.473Z" fill="white"/>
<path d="M1179.73 181.664C1180.27 181.664 1180.71 181.227 1180.71 180.688C1180.71 180.15 1180.27 179.713 1179.73 179.713C1179.19 179.713 1178.76 180.15 1178.76 180.688C1178.76 181.227 1179.19 181.664 1179.73 181.664Z" fill="white"/>
<path d="M1067.54 230.929C1068.08 230.929 1068.52 230.492 1068.52 229.953C1068.52 229.414 1068.08 228.978 1067.54 228.978C1067.01 228.978 1066.57 229.414 1066.57 229.953C1066.57 230.492 1067.01 230.929 1067.54 230.929Z" fill="white"/>
<path d="M1079.74 135.935C1080.28 135.935 1080.71 135.499 1080.71 134.96C1080.71 134.421 1080.28 133.984 1079.74 133.984C1079.2 133.984 1078.76 134.421 1078.76 134.96C1078.76 135.499 1079.2 135.935 1079.74 135.935Z" fill="white"/>
<path d="M977.306 253C977.844 253 978.281 252.564 978.281 252.025C978.281 251.486 977.844 251.049 977.306 251.049C976.767 251.049 976.33 251.486 976.33 252.025C976.33 252.564 976.767 253 977.306 253Z" fill="white"/>
<path d="M1015.6 194.102C1016.14 194.102 1016.57 193.665 1016.57 193.126C1016.57 192.588 1016.14 192.151 1015.6 192.151C1015.06 192.151 1014.62 192.588 1014.62 193.126C1014.62 193.665 1015.06 194.102 1015.6 194.102Z" fill="white"/>
<path d="M1250.82 103.133C1251.36 103.133 1251.8 102.696 1251.8 102.157C1251.8 101.618 1251.36 101.182 1250.82 101.182C1250.28 101.182 1249.85 101.618 1249.85 102.157C1249.85 102.696 1250.28 103.133 1250.82 103.133Z" fill="white"/>
<path d="M1223.63 114.108C1224.17 114.108 1224.61 113.671 1224.61 113.132C1224.61 112.593 1224.17 112.156 1223.63 112.156C1223.09 112.156 1222.65 112.593 1222.65 113.132C1222.65 113.671 1223.09 114.108 1223.63 114.108Z" fill="white"/>
<path d="M1216.43 51.4291C1216.97 51.4291 1217.41 50.9923 1217.41 50.4536C1217.41 49.9148 1216.97 49.478 1216.43 49.478C1215.9 49.478 1215.46 49.9148 1215.46 50.4536C1215.46 50.9923 1215.9 51.4291 1216.43 51.4291Z" fill="white"/>
<path d="M1146.81 21.6751C1147.34 21.6751 1147.78 21.2383 1147.78 20.6995C1147.78 20.1608 1147.34 19.724 1146.81 19.724C1146.27 19.724 1145.83 20.1608 1145.83 20.6995C1145.83 21.2383 1146.27 21.6751 1146.81 21.6751Z" fill="white"/>
<path d="M1089.61 204.345C1090.15 204.345 1090.59 203.908 1090.59 203.37C1090.59 202.831 1090.15 202.394 1089.61 202.394C1089.08 202.394 1088.64 202.831 1088.64 203.37C1088.64 203.908 1089.08 204.345 1089.61 204.345Z" fill="white"/>
<path d="M1198.39 207.272C1198.93 207.272 1199.36 206.835 1199.36 206.296C1199.36 205.758 1198.93 205.321 1198.39 205.321C1197.85 205.321 1197.41 205.758 1197.41 206.296C1197.41 206.835 1197.85 207.272 1198.39 207.272Z" fill="white"/>
<path d="M1170.22 137.033C1170.76 137.033 1171.2 136.596 1171.2 136.057C1171.2 135.519 1170.76 135.082 1170.22 135.082C1169.68 135.082 1169.24 135.519 1169.24 136.057C1169.24 136.596 1169.68 137.033 1170.22 137.033Z" fill="white"/>
<path d="M980.11 386.528C980.649 386.528 981.086 386.091 981.086 385.552C981.086 385.013 980.649 384.577 980.11 384.577C979.572 384.577 979.135 385.013 979.135 385.552C979.135 386.091 979.572 386.528 980.11 386.528Z" fill="white"/>
<path d="M956.698 307.875C957.237 307.875 957.674 307.438 957.674 306.899C957.674 306.36 957.237 305.923 956.698 305.923C956.159 305.923 955.723 306.36 955.723 306.899C955.723 307.438 956.159 307.875 956.698 307.875Z" fill="white"/>
<path d="M1095.96 359.944C1096.49 359.944 1096.93 359.507 1096.93 358.969C1096.93 358.43 1096.49 357.993 1095.96 357.993C1095.42 357.993 1094.98 358.43 1094.98 358.969C1094.98 359.507 1095.42 359.944 1095.96 359.944Z" fill="white"/>
<path d="M1039.01 345.677C1039.55 345.677 1039.98 345.24 1039.98 344.701C1039.98 344.162 1039.55 343.726 1039.01 343.726C1038.47 343.726 1038.03 344.162 1038.03 344.701C1038.03 345.24 1038.47 345.677 1039.01 345.677Z" fill="white"/>
<path d="M944.626 66.3061C945.165 66.3061 945.601 65.8693 945.601 65.3305C945.601 64.7917 945.165 64.355 944.626 64.355C944.087 64.355 943.65 64.7917 943.65 65.3305C943.65 65.8693 944.087 66.3061 944.626 66.3061Z" fill="white"/>
<path d="M864.143 133.618C864.682 133.618 865.119 133.182 865.119 132.643C865.119 132.104 864.682 131.667 864.143 131.667C863.605 131.667 863.168 132.104 863.168 132.643C863.168 133.182 863.605 133.618 864.143 133.618Z" fill="white"/>
<path d="M1279.24 366.773C1279.77 366.773 1280.21 366.336 1280.21 365.797C1280.21 365.259 1279.77 364.822 1279.24 364.822C1278.7 364.822 1278.26 365.259 1278.26 365.797C1278.26 366.336 1278.7 366.773 1279.24 366.773Z" fill="white"/>
<path d="M1160.58 403.478C1161.12 403.478 1161.56 403.041 1161.56 402.502C1161.56 401.963 1161.12 401.527 1160.58 401.527C1160.05 401.527 1159.61 401.963 1159.61 402.502C1159.61 403.041 1160.05 403.478 1160.58 403.478Z" fill="white"/>
<path d="M1065.23 71.7935C1065.76 71.7935 1066.2 71.3567 1066.2 70.818C1066.2 70.2792 1065.76 69.8424 1065.23 69.8424C1064.69 69.8424 1064.25 70.2792 1064.25 70.818C1064.25 71.3567 1064.69 71.7935 1065.23 71.7935Z" fill="white"/>
<path d="M1055.96 74.7201C1056.5 74.7201 1056.93 74.2834 1056.93 73.7446C1056.93 73.2058 1056.5 72.769 1055.96 72.769C1055.42 72.769 1054.98 73.2058 1054.98 73.7446C1054.98 74.2834 1055.42 74.7201 1055.96 74.7201Z" fill="white"/>
<path d="M1014.13 72.7691C1014.67 72.7691 1015.11 72.3323 1015.11 71.7935C1015.11 71.2548 1014.67 70.818 1014.13 70.818C1013.59 70.818 1013.16 71.2548 1013.16 71.7935C1013.16 72.3323 1013.59 72.7691 1014.13 72.7691Z" fill="white"/>
<path d="M1018.77 12.8952C1019.31 12.8952 1019.74 12.4584 1019.74 11.9196C1019.74 11.3809 1019.31 10.9441 1018.77 10.9441C1018.23 10.9441 1017.79 11.3809 1017.79 11.9196C1017.79 12.4584 1018.23 12.8952 1018.77 12.8952Z" fill="white"/>
<path d="M1001.94 133.618C1002.48 133.618 1002.91 133.182 1002.91 132.643C1002.91 132.104 1002.48 131.667 1001.94 131.667C1001.4 131.667 1000.96 132.104 1000.96 132.643C1000.96 133.182 1001.4 133.618 1001.94 133.618Z" fill="white"/>
<path d="M1220.09 4.60306C1220.63 4.60306 1221.07 4.16629 1221.07 3.62751C1221.07 3.08874 1220.63 2.65198 1220.09 2.65198C1219.55 2.65198 1219.12 3.08874 1219.12 3.62751C1219.12 4.16629 1219.55 4.60306 1220.09 4.60306Z" fill="white"/>
<path d="M1159.49 331.775C1160.03 331.775 1160.46 331.339 1160.46 330.8C1160.46 330.261 1160.03 329.824 1159.49 329.824C1158.95 329.824 1158.51 330.261 1158.51 330.8C1158.51 331.339 1158.95 331.775 1159.49 331.775Z" fill="white"/>
<path d="M1181.56 305.924C1182.1 305.924 1182.54 305.487 1182.54 304.948C1182.54 304.409 1182.1 303.972 1181.56 303.972C1181.02 303.972 1180.58 304.409 1180.58 304.948C1180.58 305.487 1181.02 305.924 1181.56 305.924Z" fill="white"/>
<path d="M1223.39 307.875C1223.92 307.875 1224.36 307.438 1224.36 306.899C1224.36 306.36 1223.92 305.923 1223.39 305.923C1222.85 305.923 1222.41 306.36 1222.41 306.899C1222.41 307.438 1222.85 307.875 1223.39 307.875Z" fill="white"/>
<path d="M1280.33 322.142C1280.87 322.142 1281.31 321.705 1281.31 321.166C1281.31 320.628 1280.87 320.191 1280.33 320.191C1279.79 320.191 1279.36 320.628 1279.36 321.166C1279.36 321.705 1279.79 322.142 1280.33 322.142Z" fill="white"/>
<path d="M1218.87 367.748C1219.41 367.748 1219.85 367.312 1219.85 366.773C1219.85 366.234 1219.41 365.797 1218.87 365.797C1218.34 365.797 1217.9 366.234 1217.9 366.773C1217.9 367.312 1218.34 367.748 1218.87 367.748Z" fill="white"/>
<path d="M1718.84 111.669C1719.38 111.669 1719.81 111.232 1719.81 110.693C1719.81 110.154 1719.38 109.718 1718.84 109.718C1718.3 109.718 1717.86 110.154 1717.86 110.693C1717.86 111.232 1718.3 111.669 1718.84 111.669Z" fill="white"/>
<path d="M1118.76 771.866C1119.3 771.866 1119.73 771.43 1119.73 770.891C1119.73 770.352 1119.3 769.915 1118.76 769.915C1118.22 769.915 1117.78 770.352 1117.78 770.891C1117.78 771.43 1118.22 771.866 1118.76 771.866Z" fill="white"/>
<path d="M1289.84 739.064C1290.38 739.064 1290.82 738.627 1290.82 738.088C1290.82 737.55 1290.38 737.113 1289.84 737.113C1289.31 737.113 1288.87 737.55 1288.87 738.088C1288.87 738.627 1289.31 739.064 1289.84 739.064Z" fill="white"/>
<path d="M1262.65 750.039C1263.19 750.039 1263.63 749.602 1263.63 749.063C1263.63 748.524 1263.19 748.088 1262.65 748.088C1262.11 748.088 1261.68 748.524 1261.68 749.063C1261.68 749.602 1262.11 750.039 1262.65 750.039Z" fill="white"/>
<path d="M1255.33 687.36C1255.87 687.36 1256.31 686.923 1256.31 686.385C1256.31 685.846 1255.87 685.409 1255.33 685.409C1254.8 685.409 1254.36 685.846 1254.36 686.385C1254.36 686.923 1254.8 687.36 1255.33 687.36Z" fill="white"/>
<path d="M1185.83 657.606C1186.37 657.606 1186.8 657.169 1186.8 656.631C1186.8 656.092 1186.37 655.655 1185.83 655.655C1185.29 655.655 1184.85 656.092 1184.85 656.631C1184.85 657.169 1185.29 657.606 1185.83 657.606Z" fill="white"/>
<path d="M1209.24 772.964C1209.78 772.964 1210.22 772.527 1210.22 771.988C1210.22 771.45 1209.78 771.013 1209.24 771.013C1208.7 771.013 1208.27 771.45 1208.27 771.988C1208.27 772.527 1208.7 772.964 1209.24 772.964Z" fill="white"/>
<path d="M968.282 576.758C968.821 576.758 969.258 576.321 969.258 575.783C969.258 575.244 968.821 574.807 968.282 574.807C967.743 574.807 967.307 575.244 967.307 575.783C967.307 576.321 967.743 576.758 968.282 576.758Z" fill="white"/>
<path d="M922.188 542.858C922.727 542.858 923.164 542.421 923.164 541.883C923.164 541.344 922.727 540.907 922.188 540.907C921.65 540.907 921.213 541.344 921.213 541.883C921.213 542.421 921.65 542.858 922.188 542.858Z" fill="white"/>
<path d="M780.976 431.329C781.514 431.329 781.951 430.892 781.951 430.353C781.951 429.814 781.514 429.378 780.976 429.378C780.437 429.378 780 429.814 780 430.353C780 430.892 780.437 431.329 780.976 431.329Z" fill="white"/>
<path d="M946.976 435.329C947.514 435.329 947.951 434.892 947.951 434.353C947.951 433.814 947.514 433.378 946.976 433.378C946.437 433.378 946 433.814 946 434.353C946 434.892 946.437 435.329 946.976 435.329Z" fill="white"/>
<path d="M1093.03 460.913C1093.57 460.913 1094.01 460.476 1094.01 459.937C1094.01 459.398 1093.57 458.962 1093.03 458.962C1092.49 458.962 1092.05 459.398 1092.05 459.937C1092.05 460.476 1092.49 460.913 1093.03 460.913Z" fill="white"/>
<path d="M479.901 626.511C480.44 626.511 480.877 626.074 480.877 625.535C480.877 624.996 480.44 624.56 479.901 624.56C479.363 624.56 478.926 624.996 478.926 625.535C478.926 626.074 479.363 626.511 479.901 626.511Z" fill="white"/>
<path d="M1084.13 550.175C1084.67 550.175 1085.1 549.738 1085.1 549.199C1085.1 548.66 1084.67 548.224 1084.13 548.224C1083.59 548.224 1083.15 548.66 1083.15 549.199C1083.15 549.738 1083.59 550.175 1084.13 550.175Z" fill="white"/>
<path d="M1027.18 536.029C1027.72 536.029 1028.16 535.593 1028.16 535.054C1028.16 534.515 1027.72 534.078 1027.18 534.078C1026.64 534.078 1026.21 534.515 1026.21 535.054C1026.21 535.593 1026.64 536.029 1027.18 536.029Z" fill="white"/>
<path d="M983.647 702.237C984.186 702.237 984.623 701.8 984.623 701.262C984.623 700.723 984.186 700.286 983.647 700.286C983.109 700.286 982.672 700.723 982.672 701.262C982.672 701.8 983.109 702.237 983.647 702.237Z" fill="white"/>
<path d="M1002.79 482.984C1003.33 482.984 1003.77 482.548 1003.77 482.009C1003.77 481.47 1003.33 481.033 1002.79 481.033C1002.25 481.033 1001.82 481.47 1001.82 482.009C1001.82 482.548 1002.25 482.984 1002.79 482.984Z" fill="white"/>
<path d="M959.015 481.033C959.553 481.033 959.99 480.596 959.99 480.058C959.99 479.519 959.553 479.082 959.015 479.082C958.476 479.082 958.039 479.519 958.039 480.058C958.039 480.596 958.476 481.033 959.015 481.033Z" fill="white"/>
<path d="M1088.64 490.301C1089.18 490.301 1089.62 489.864 1089.62 489.325C1089.62 488.786 1089.18 488.35 1088.64 488.35C1088.1 488.35 1087.66 488.786 1087.66 489.325C1087.66 489.864 1088.1 490.301 1088.64 490.301Z" fill="white"/>
<path d="M1071.93 611.024C1072.47 611.024 1072.91 610.587 1072.91 610.049C1072.91 609.51 1072.47 609.073 1071.93 609.073C1071.39 609.073 1070.96 609.51 1070.96 610.049C1070.96 610.587 1071.39 611.024 1071.93 611.024Z" fill="white"/>
<path d="M903.165 769.55C903.704 769.55 904.141 769.113 904.141 768.574C904.141 768.035 903.704 767.599 903.165 767.599C902.626 767.599 902.189 768.035 902.189 768.574C902.189 769.113 902.626 769.55 903.165 769.55Z" fill="white"/>
<path d="M594.976 558.329C595.514 558.329 595.951 557.892 595.951 557.353C595.951 556.814 595.514 556.378 594.976 556.378C594.437 556.378 594 556.814 594 557.353C594 557.892 594.437 558.329 594.976 558.329Z" fill="white"/>
<path d="M1148.76 593.708C1149.3 593.708 1149.73 593.271 1149.73 592.733C1149.73 592.194 1149.3 591.757 1148.76 591.757C1148.22 591.757 1147.78 592.194 1147.78 592.733C1147.78 593.271 1148.22 593.708 1148.76 593.708Z" fill="white"/>
<path d="M1104.25 707.725C1104.79 707.725 1105.22 707.288 1105.22 706.749C1105.22 706.21 1104.79 705.774 1104.25 705.774C1103.71 705.774 1103.27 706.21 1103.27 706.749C1103.27 707.288 1103.71 707.725 1104.25 707.725Z" fill="white"/>
<path d="M1094.98 710.651C1095.52 710.651 1095.95 710.214 1095.95 709.676C1095.95 709.137 1095.52 708.7 1094.98 708.7C1094.44 708.7 1094 709.137 1094 709.676C1094 710.214 1094.44 710.651 1094.98 710.651Z" fill="white"/>
<path d="M1053.15 708.7C1053.69 708.7 1054.13 708.263 1054.13 707.725C1054.13 707.186 1053.69 706.749 1053.15 706.749C1052.61 706.749 1052.18 707.186 1052.18 707.725C1052.18 708.263 1052.61 708.7 1053.15 708.7Z" fill="white"/>
<path d="M1057.67 648.826C1058.21 648.826 1058.64 648.389 1058.64 647.851C1058.64 647.312 1058.21 646.875 1057.67 646.875C1057.13 646.875 1056.69 647.312 1056.69 647.851C1056.69 648.389 1057.13 648.826 1057.67 648.826Z" fill="white"/>
<path d="M1040.96 769.55C1041.5 769.55 1041.94 769.113 1041.94 768.574C1041.94 768.035 1041.5 767.599 1040.96 767.599C1040.42 767.599 1039.98 768.035 1039.98 768.574C1039.98 769.113 1040.42 769.55 1040.96 769.55Z" fill="white"/>
<path d="M1259.12 640.534C1259.65 640.534 1260.09 640.097 1260.09 639.559C1260.09 639.02 1259.65 638.583 1259.12 638.583C1258.58 638.583 1258.14 639.02 1258.14 639.559C1258.14 640.097 1258.58 640.534 1259.12 640.534Z" fill="white"/>
<path d="M1147.78 522.006C1148.32 522.006 1148.76 521.569 1148.76 521.03C1148.76 520.492 1148.32 520.055 1147.78 520.055C1147.24 520.055 1146.81 520.492 1146.81 521.03C1146.81 521.569 1147.24 522.006 1147.78 522.006Z" fill="white"/>
<path d="M1169.73 496.154C1170.27 496.154 1170.71 495.717 1170.71 495.179C1170.71 494.64 1170.27 494.203 1169.73 494.203C1169.19 494.203 1168.76 494.64 1168.76 495.179C1168.76 495.717 1169.19 496.154 1169.73 496.154Z" fill="white"/>
<path d="M1211.56 498.227C1212.1 498.227 1212.53 497.79 1212.53 497.252C1212.53 496.713 1212.1 496.276 1211.56 496.276C1211.02 496.276 1210.58 496.713 1210.58 497.252C1210.58 497.79 1211.02 498.227 1211.56 498.227Z" fill="white"/>
<path d="M1268.5 512.372C1269.04 512.372 1269.48 511.936 1269.48 511.397C1269.48 510.858 1269.04 510.421 1268.5 510.421C1267.97 510.421 1267.53 510.858 1267.53 511.397C1267.53 511.936 1267.97 512.372 1268.5 512.372Z" fill="white"/>
<path d="M1207.05 557.979C1207.58 557.979 1208.02 557.542 1208.02 557.003C1208.02 556.465 1207.58 556.028 1207.05 556.028C1206.51 556.028 1206.07 556.465 1206.07 557.003C1206.07 557.542 1206.51 557.979 1207.05 557.979Z" fill="white"/>
<path d="M725.86 574.563C726.399 574.563 726.836 574.126 726.836 573.588C726.836 573.049 726.399 572.612 725.86 572.612C725.322 572.612 724.885 573.049 724.885 573.588C724.885 574.126 725.322 574.563 725.86 574.563Z" fill="white"/>
<path d="M682.976 709.329C683.514 709.329 683.951 708.892 683.951 708.353C683.951 707.815 683.514 707.378 682.976 707.378C682.437 707.378 682 707.815 682 708.353C682 708.892 682.437 709.329 682.976 709.329Z" fill="white"/>
<path d="M543.976 741.329C544.514 741.329 544.951 740.892 544.951 740.353C544.951 739.814 544.514 739.378 543.976 739.378C543.437 739.378 543 739.814 543 740.353C543 740.892 543.437 741.329 543.976 741.329Z" fill="white"/>
<path d="M460.513 611.634C461.051 611.634 461.488 611.197 461.488 610.658C461.488 610.119 461.051 609.683 460.513 609.683C459.974 609.683 459.537 610.119 459.537 610.658C459.537 611.197 459.974 611.634 460.513 611.634Z" fill="white"/>
<path d="M587.976 429.329C588.514 429.329 588.951 428.892 588.951 428.353C588.951 427.814 588.514 427.378 587.976 427.378C587.437 427.378 587 427.814 587 428.353C587 428.892 587.437 429.329 587.976 429.329Z" fill="white"/>
<path d="M873.976 555.329C874.514 555.329 874.951 554.892 874.951 554.353C874.951 553.814 874.514 553.378 873.976 553.378C873.437 553.378 873 553.814 873 554.353C873 554.892 873.437 555.329 873.976 555.329Z" fill="white"/>
<path d="M862.436 490.057C862.975 490.057 863.412 489.62 863.412 489.081C863.412 488.543 862.975 488.106 862.436 488.106C861.898 488.106 861.461 488.543 861.461 489.081C861.461 489.62 861.898 490.057 862.436 490.057Z" fill="white"/>
<path d="M816.341 575.661C816.88 575.661 817.316 575.224 817.316 574.685C817.316 574.146 816.88 573.71 816.341 573.71C815.802 573.71 815.365 574.146 815.365 574.685C815.365 575.224 815.802 575.661 816.341 575.661Z" fill="white"/>
<path d="M705.983 66.0622C706.522 66.0622 706.959 65.6254 706.959 65.0866C706.959 64.5479 706.522 64.1111 705.983 64.1111C705.445 64.1111 705.008 64.5479 705.008 65.0866C705.008 65.6254 705.445 66.0622 705.983 66.0622Z" fill="white"/>
<path d="M743.175 105.815C743.714 105.815 744.15 105.379 744.15 104.84C744.15 104.301 743.714 103.864 743.175 103.864C742.636 103.864 742.199 104.301 742.199 104.84C742.199 105.379 742.636 105.815 743.175 105.815Z" fill="white"/>
<path d="M755.614 26.6747C756.153 26.6747 756.59 26.2379 756.59 25.6992C756.59 25.1604 756.153 24.7236 755.614 24.7236C755.075 24.7236 754.639 25.1604 754.639 25.6992C754.639 26.2379 755.075 26.6747 755.614 26.6747Z" fill="white"/>
<path d="M478.683 82.1586C479.221 82.1586 479.658 81.7218 479.658 81.1831C479.658 80.6443 479.221 80.2075 478.683 80.2075C478.144 80.2075 477.707 80.6443 477.707 81.1831C477.707 81.7218 478.144 82.1586 478.683 82.1586Z" fill="white"/>
<path d="M432.587 48.3805C433.126 48.3805 433.562 47.9438 433.562 47.405C433.562 46.8662 433.126 46.4294 432.587 46.4294C432.048 46.4294 431.611 46.8662 431.611 47.405C431.611 47.9438 432.048 48.3805 432.587 48.3805Z" fill="white"/>
<path d="M455.268 3.62759C455.807 3.62759 456.244 3.19084 456.244 2.65206C456.244 2.11328 455.807 1.67651 455.268 1.67651C454.73 1.67651 454.293 2.11328 454.293 2.65206C454.293 3.19084 454.73 3.62759 455.268 3.62759Z" fill="white"/>
<path d="M594.528 55.5751C595.067 55.5751 595.504 55.1383 595.504 54.5996C595.504 54.0608 595.067 53.624 594.528 53.624C593.99 53.624 593.553 54.0608 593.553 54.5996C593.553 55.1383 593.99 55.5751 594.528 55.5751Z" fill="white"/>
<path d="M537.581 41.4297C538.12 41.4297 538.557 40.993 538.557 40.4542C538.557 39.9154 538.12 39.4786 537.581 39.4786C537.042 39.4786 536.605 39.9154 536.605 40.4542C536.605 40.993 537.042 41.4297 537.581 41.4297Z" fill="white"/>
<path d="M777.808 62.5258C778.346 62.5258 778.783 62.089 778.783 61.5502C778.783 61.0115 778.346 60.5747 777.808 60.5747C777.269 60.5747 776.832 61.0115 776.832 61.5502C776.832 62.089 777.269 62.5258 777.808 62.5258Z" fill="white"/>
<path d="M659.036 99.1087C659.575 99.1087 660.012 98.6719 660.012 98.1331C660.012 97.5944 659.575 97.1576 659.036 97.1576C658.497 97.1576 658.061 97.5944 658.061 98.1331C658.061 98.6719 658.497 99.1087 659.036 99.1087Z" fill="white"/>
<path d="M658.06 27.4064C658.598 27.4064 659.035 26.9696 659.035 26.4309C659.035 25.8921 658.598 25.4553 658.06 25.4553C657.521 25.4553 657.084 25.8921 657.084 26.4309C657.084 26.9696 657.521 27.4064 658.06 27.4064Z" fill="white"/>
<path d="M680.132 1.67642C680.671 1.67642 681.107 1.23965 681.107 0.700878C681.107 0.162101 680.671 -0.274658 680.132 -0.274658C679.593 -0.274658 679.156 0.162101 679.156 0.700878C679.156 1.23965 679.593 1.67642 680.132 1.67642Z" fill="white"/>
<path d="M721.958 3.62759C722.497 3.62759 722.934 3.19084 722.934 2.65206C722.934 2.11328 722.497 1.67651 721.958 1.67651C721.419 1.67651 720.982 2.11328 720.982 2.65206C720.982 3.19084 721.419 3.62759 721.958 3.62759Z" fill="white"/>
<path d="M778.782 17.7729C779.321 17.7729 779.758 17.3361 779.758 16.7973C779.758 16.2585 779.321 15.8218 778.782 15.8218C778.243 15.8218 777.807 16.2585 777.807 16.7973C777.807 17.3361 778.243 17.7729 778.782 17.7729Z" fill="white"/>
<path d="M717.446 63.5014C717.985 63.5014 718.422 63.0646 718.422 62.5258C718.422 61.9871 717.985 61.5503 717.446 61.5503C716.907 61.5503 716.471 61.9871 716.471 62.5258C716.471 63.0646 716.907 63.5014 717.446 63.5014Z" fill="white"/>
<path d="M591.601 156.666C592.139 156.666 592.576 156.229 592.576 155.69C592.576 155.151 592.139 154.714 591.601 154.714C591.062 154.714 590.625 155.151 590.625 155.69C590.625 156.229 591.062 156.666 591.601 156.666Z" fill="white"/>
<path d="M710.13 193.858C710.669 193.858 711.105 193.421 711.105 192.883C711.105 192.344 710.669 191.907 710.13 191.907C709.591 191.907 709.154 192.344 709.154 192.883C709.154 193.421 709.591 193.858 710.13 193.858Z" fill="white"/>
<path d="M767.077 208.004C767.616 208.004 768.053 207.567 768.053 207.028C768.053 206.489 767.616 206.052 767.077 206.052C766.538 206.052 766.102 206.489 766.102 207.028C766.102 207.567 766.538 208.004 767.077 208.004Z" fill="white"/>
<path d="M361.007 185.81C361.546 185.81 361.982 185.373 361.982 184.834C361.982 184.296 361.546 183.859 361.007 183.859C360.468 183.859 360.031 184.296 360.031 184.834C360.031 185.373 360.468 185.81 361.007 185.81Z" fill="white"/>
<path d="M892.19 78.1345C892.729 78.1345 893.166 77.6978 893.166 77.159C893.166 76.6202 892.729 76.1835 892.19 76.1835C891.652 76.1835 891.215 76.6202 891.215 77.159C891.215 77.6978 891.652 78.1345 892.19 78.1345Z" fill="white"/>
<path d="M866.339 56.0629C866.878 56.0629 867.314 55.6261 867.314 55.0874C867.314 54.5486 866.878 54.1118 866.339 54.1118C865.8 54.1118 865.363 54.5486 865.363 55.0874C865.363 55.6261 865.8 56.0629 866.339 56.0629Z" fill="white"/>
<path d="M868.288 14.3586C868.827 14.3586 869.264 13.9218 869.264 13.383C869.264 12.8442 868.827 12.4075 868.288 12.4075C867.749 12.4075 867.312 12.8442 867.312 13.383C867.312 13.9218 867.749 14.3586 868.288 14.3586Z" fill="white"/>
<path d="M928.163 18.8704C928.702 18.8704 929.139 18.4336 929.139 17.8949C929.139 17.3561 928.702 16.9193 928.163 16.9193C927.624 16.9193 927.188 17.3561 927.188 17.8949C927.188 18.4336 927.624 18.8704 928.163 18.8704Z" fill="white"/>
<path d="M807.44 2.16422C807.979 2.16422 808.416 1.72745 808.416 1.18867C808.416 0.649894 807.979 0.213135 807.44 0.213135C806.902 0.213135 806.465 0.649894 806.465 1.18867C806.465 1.72745 806.902 2.16422 807.44 2.16422Z" fill="white"/>
<path d="M942.917 65.0866C943.456 65.0866 943.892 64.6498 943.892 64.111C943.892 63.5723 943.456 63.1355 942.917 63.1355C942.378 63.1355 941.941 63.5723 941.941 64.111C941.941 64.6498 942.378 65.0866 942.917 65.0866Z" fill="white"/>
<path d="M896.823 31.1866C897.362 31.1866 897.799 30.7498 897.799 30.211C897.799 29.6722 897.362 29.2355 896.823 29.2355C896.284 29.2355 895.848 29.6722 895.848 30.211C895.848 30.7498 896.284 31.1866 896.823 31.1866Z" fill="white"/>
<path d="M871.46 30.0892C871.999 30.0892 872.435 29.6524 872.435 29.1136C872.435 28.5748 871.999 28.1381 871.46 28.1381C870.921 28.1381 870.484 28.5748 870.484 29.1136C870.484 29.6524 870.921 30.0892 871.46 30.0892Z" fill="white"/>
<path d="M844.267 41.0639C844.805 41.0639 845.242 40.6271 845.242 40.0883C845.242 39.5496 844.805 39.1128 844.267 39.1128C843.728 39.1128 843.291 39.5496 843.291 40.0883C843.291 40.6271 843.728 41.0639 844.267 41.0639Z" fill="white"/>
<path d="M585.138 31.6743C585.676 31.6743 586.113 31.2376 586.113 30.6988C586.113 30.16 585.676 29.7233 585.138 29.7233C584.599 29.7233 584.162 30.16 584.162 30.6988C584.162 31.2376 584.599 31.6743 585.138 31.6743Z" fill="white"/>
<path d="M559.286 9.60269C559.825 9.60269 560.262 9.16592 560.262 8.62715C560.262 8.08837 559.825 7.65161 559.286 7.65161C558.747 7.65161 558.311 8.08837 558.311 8.62715C558.311 9.16592 558.747 9.60269 559.286 9.60269Z" fill="white"/>
<path d="M635.866 18.6265C636.405 18.6265 636.842 18.1897 636.842 17.651C636.842 17.1122 636.405 16.6754 635.866 16.6754C635.327 16.6754 634.891 17.1122 634.891 17.651C634.891 18.1897 635.327 18.6265 635.866 18.6265Z" fill="white"/>
<path d="M314.913 271.292C315.452 271.292 315.889 270.855 315.889 270.316C315.889 269.777 315.452 269.341 314.913 269.341C314.374 269.341 313.938 269.777 313.938 270.316C313.938 270.855 314.374 271.292 314.913 271.292Z" fill="white"/>
<path d="M580.138 791.255C580.676 791.255 581.113 790.819 581.113 790.28C581.113 789.741 580.676 789.304 580.138 789.304C579.599 789.304 579.162 789.741 579.162 790.28C579.162 790.819 579.599 791.255 580.138 791.255Z" fill="white"/>
<path d="M364.976 559.329C365.514 559.329 365.951 558.892 365.951 558.353C365.951 557.814 365.514 557.378 364.976 557.378C364.437 557.378 364 557.814 364 558.353C364 558.892 364.437 559.329 364.976 559.329Z" fill="white"/>
<path d="M685.132 784.305C685.671 784.305 686.107 783.868 686.107 783.329C686.107 782.79 685.671 782.354 685.132 782.354C684.593 782.354 684.156 782.79 684.156 783.329C684.156 783.868 684.593 784.305 685.132 784.305Z" fill="white"/>
<path d="M510.143 572.246C510.682 572.246 511.119 571.809 511.119 571.271C511.119 570.732 510.682 570.295 510.143 570.295C509.605 570.295 509.168 570.732 509.168 571.271C509.168 571.809 509.605 572.246 510.143 572.246Z" fill="white"/>
<path d="M648.06 572.246C648.598 572.246 649.035 571.809 649.035 571.271C649.035 570.732 648.598 570.295 648.06 570.295C647.521 570.295 647.084 570.732 647.084 571.271C647.084 571.809 647.521 572.246 648.06 572.246Z" fill="white"/>
<path d="M805.61 770.281C806.149 770.281 806.586 769.845 806.586 769.306C806.586 768.767 806.149 768.33 805.61 768.33C805.072 768.33 804.635 768.767 804.635 769.306C804.635 769.845 805.072 770.281 805.61 770.281Z" fill="white"/>
<path d="M827.683 744.551C828.221 744.551 828.658 744.115 828.658 743.576C828.658 743.037 828.221 742.6 827.683 742.6C827.144 742.6 826.707 743.037 826.707 743.576C826.707 744.115 827.144 744.551 827.683 744.551Z" fill="white"/>
<path d="M869.976 746.951C870.514 746.951 870.951 746.514 870.951 745.976C870.951 745.437 870.514 745 869.976 745C869.437 745 869 745.437 869 745.976C869 746.514 869.437 746.951 869.976 746.951Z" fill="white"/>
<path d="M926.333 760.648C926.872 760.648 927.308 760.211 927.308 759.672C927.308 759.133 926.872 758.697 926.333 758.697C925.794 758.697 925.357 759.133 925.357 759.672C925.357 760.211 925.794 760.648 926.333 760.648Z" fill="white"/>
<rect x="2" width="1920" height="598" fill="url(#paint0_linear_2301_295)"/>
<g opacity="0.4" filter="url(#filter0_f_2301_295)">
<circle cx="1321.5" cy="201.5" r="656.5" fill="url(#paint1_linear_2301_295)"/>
</g>
</g>
<circle opacity="0.8" cx="1045.88" cy="148.88" r="5" fill="white"/>
<circle opacity="0.2" cx="1257.88" cy="436.88" r="358.25" stroke="url(#paint2_linear_2301_295)" stroke-width="1.5"/>
<circle opacity="0.2" cx="1257.88" cy="436.88" r="195.25" transform="rotate(60 1257.88 436.88)" stroke="url(#paint3_linear_2301_295)" stroke-width="1.5"/>
<circle opacity="0.2" cx="1257.88" cy="436.88" r="568.25" transform="rotate(105 1257.88 436.88)" stroke="url(#paint4_linear_2301_295)" stroke-width="1.5"/>
<circle opacity="0.2" cx="1045.88" cy="148.88" r="13.25" stroke="url(#paint5_linear_2301_295)" stroke-width="1.5"/>
<g filter="url(#filter1_d_2301_295)">
<path fill-rule="evenodd" clip-rule="evenodd" d="M1058.04 159.491L1062.88 157.821L1049.88 150.88L1053.67 164.81L1056.51 160.656L1059.9 164.88L1061.44 163.715L1058.04 159.491Z" fill="white"/>
<path d="M1058.88 159.732L1063.04 158.294C1063.23 158.229 1063.36 158.059 1063.38 157.861C1063.39 157.663 1063.29 157.474 1063.11 157.38L1050.11 150.439C1049.94 150.345 1049.72 150.365 1049.57 150.489C1049.41 150.613 1049.34 150.819 1049.4 151.011L1053.19 164.941C1053.24 165.13 1053.39 165.271 1053.59 165.303C1053.78 165.336 1053.97 165.253 1054.08 165.092L1056.54 161.494L1059.52 165.193C1059.68 165.404 1059.99 165.442 1060.21 165.278L1061.74 164.113C1061.85 164.032 1061.92 163.91 1061.94 163.776C1061.95 163.642 1061.91 163.507 1061.83 163.402L1058.88 159.732Z" stroke="#484854" stroke-linejoin="round"/>
</g>
<circle cx="1451" cy="402" r="3" fill="white"/>
<circle opacity="0.6" cx="1715.88" cy="101.88" r="3" fill="white"/>
</g>
<defs>
<filter id="filter0_f_2301_295" x="545" y="-575" width="1553" height="1553" filterUnits="userSpaceOnUse" color-interpolation-filters="sRGB">
<feFlood flood-opacity="0" result="BackgroundImageFix"/>
<feBlend mode="normal" in="SourceGraphic" in2="BackgroundImageFix" result="shape"/>
<feGaussianBlur stdDeviation="60" result="effect1_foregroundBlur_2301_295"/>
</filter>
<filter id="filter1_d_2301_295" x="1045.88" y="147.88" width="21" height="22" filterUnits="userSpaceOnUse" color-interpolation-filters="sRGB">
<feFlood flood-opacity="0" result="BackgroundImageFix"/>
<feColorMatrix in="SourceAlpha" type="matrix" values="0 0 0 0 0 0 0 0 0 0 0 0 0 0 0 0 0 0 127 0" result="hardAlpha"/>
<feOffset dy="1"/>
<feGaussianBlur stdDeviation="1.5"/>
<feColorMatrix type="matrix" values="0 0 0 0 0 0 0 0 0 0 0 0 0 0 0 0 0 0 0.25 0"/>
<feBlend mode="normal" in2="BackgroundImageFix" result="effect1_dropShadow_2301_295"/>
<feBlend mode="normal" in="SourceGraphic" in2="effect1_dropShadow_2301_295" result="shape"/>
</filter>
<linearGradient id="paint0_linear_2301_295" x1="962" y1="4.5126e-06" x2="985.778" y2="426.804" gradientUnits="userSpaceOnUse">
<stop stop-color="#27272D"/>
<stop offset="1" stop-color="#27272D" stop-opacity="0"/>
</linearGradient>
<linearGradient id="paint1_linear_2301_295" x1="1474.5" y1="-455" x2="833.5" y2="602.5" gradientUnits="userSpaceOnUse">
<stop stop-color="#474D89"/>
<stop offset="1" stop-color="#40405E" stop-opacity="0"/>
</linearGradient>
<linearGradient id="paint2_linear_2301_295" x1="996.379" y1="-78.1201" x2="928.879" y2="630.38" gradientUnits="userSpaceOnUse">
<stop stop-color="white"/>
<stop offset="1" stop-color="white" stop-opacity="0"/>
</linearGradient>
<linearGradient id="paint3_linear_2301_295" x1="1061.88" y1="199.38" x2="1257.88" y2="632.88" gradientUnits="userSpaceOnUse">
<stop stop-color="white"/>
<stop offset="1" stop-color="white" stop-opacity="0"/>
</linearGradient>
<linearGradient id="paint4_linear_2301_295" x1="688.88" y1="-252.597" x2="1257.88" y2="1005.88" gradientUnits="userSpaceOnUse">
<stop stop-color="white"/>
<stop offset="1" stop-color="white" stop-opacity="0"/>
</linearGradient>
<linearGradient id="paint5_linear_2301_295" x1="1030.77" y1="137.766" x2="1045.88" y2="162.88" gradientUnits="userSpaceOnUse">
<stop stop-color="white"/>
<stop offset="1" stop-color="white" stop-opacity="0"/>
</linearGradient>
</defs>
</svg>
