<svg width="1920" height="696" viewBox="0 0 1920 696" fill="none" xmlns="http://www.w3.org/2000/svg">
<g opacity="0.2">
<path d="M1430.85 170.241C1428.73 152.333 1420.78 134.915 1407.01 121.144C1374.46 88.5941 1321.66 88.5941 1289.11 121.144C1281 129.254 1274.85 138.671 1270.82 148.686C1270.44 148.251 1270.01 147.815 1269.57 147.38C1251.5 129.309 1222.22 129.309 1204.15 147.38C1199.41 152.115 1195.93 157.613 1193.7 163.491C1190.48 159.572 1187.11 155.817 1183.46 152.17C1124.24 92.9486 1028.28 92.9486 969.058 152.17C946.959 174.269 933.133 201.43 927.527 229.952C923.336 223.039 918.219 216.507 912.232 210.52C881.206 179.494 835.43 172.2 797.491 188.693C793.463 146.672 775.392 105.74 743.169 73.5711C671.429 1.83092 556.198 0.0891314 482.335 68.2913C479.45 59.6368 474.551 51.5265 467.638 44.6138C443.798 20.773 405.206 20.773 381.365 44.6138C357.524 68.4546 357.524 107.046 381.365 130.887C394.918 144.44 413.207 150.265 430.897 148.414C409.724 213.622 425.019 288.084 476.837 339.903C550.374 413.439 669.632 413.439 743.169 339.903C744.911 338.161 746.543 336.419 748.176 334.677C752.749 342.787 758.464 350.462 765.377 357.375C805.928 397.926 871.626 397.926 912.177 357.375C923.499 346.053 931.609 332.827 936.617 318.675C944.02 336.092 954.797 352.422 969.004 366.574C1028.22 425.795 1124.19 425.795 1183.41 366.574C1221.95 328.037 1235.39 273.932 1223.74 224.509C1239.47 229.135 1257.11 225.216 1269.52 212.86C1269.95 212.425 1270.33 211.99 1270.77 211.554C1274.85 221.569 1280.95 230.986 1289.06 239.096C1321.61 271.646 1374.41 271.646 1406.96 239.096C1410.93 235.123 1414.36 230.877 1417.35 226.414C1419.58 231.095 1422.63 235.504 1426.5 239.423C1444.57 257.494 1473.85 257.494 1491.92 239.423C1509.99 221.352 1509.99 192.068 1491.92 173.997C1475.27 157.286 1448.98 156.034 1430.85 170.241ZM1634.59 89.7916C1602.04 57.2418 1549.24 57.2418 1516.69 89.7916C1484.14 122.341 1484.14 175.14 1516.69 207.689C1549.24 240.239 1602.04 240.239 1634.59 207.689C1667.14 175.14 1667.14 122.341 1634.59 89.7916Z" fill="#484854"/>
</g>
<path d="M1780.12 68.5954C1729.61 68.5954 1686.38 99.7962 1668.62 143.964C1661.44 140.722 1653.51 138.87 1645.18 138.87C1616.89 138.87 1593.39 159.651 1589.17 186.8C1578.41 183.616 1567.06 181.937 1555.26 181.937C1522.74 181.937 1493.29 194.846 1471.65 215.859C1450.93 198.956 1424.54 188.883 1395.79 188.883C1362.75 188.883 1332.83 202.197 1311.13 223.789C1302.62 203.239 1282.37 188.768 1258.71 188.768C1246.73 188.768 1235.62 192.472 1226.47 198.782C1202.87 178.811 1172.37 166.771 1139.1 166.771C1072.84 166.771 1017.7 214.411 1006.01 277.334C992.933 274.44 979.335 272.877 965.39 272.877C927.952 272.877 893.117 283.933 863.896 302.978C863.896 302.688 863.896 302.457 863.896 302.167C863.896 270.851 838.493 245.438 807.188 245.438C794.4 245.438 782.538 249.722 773.048 256.842C766.22 253.948 758.698 252.327 750.828 252.327C750.713 252.327 750.597 252.327 750.481 252.327C750.481 221.01 725.079 195.598 693.774 195.598C662.469 195.598 637.067 221.01 637.067 252.327C637.067 263.152 640.134 273.282 645.399 281.907C644.821 282.37 644.242 282.775 643.721 283.238C636.083 261.647 615.831 246.075 591.817 245.438C576.193 215.801 545.062 195.598 509.186 195.598C501.027 195.598 493.1 196.64 485.52 198.608C452.942 83.9353 347.513 0 222.468 0C71.4413 0 -51 122.488 -51 273.513C-51 424.539 71.4413 547.027 222.41 547.027C337.097 547.027 435.235 476.405 475.856 376.262C486.156 380.198 497.382 382.34 509.071 382.34C534.126 382.34 556.924 372.441 573.705 356.349C578.913 357.912 584.41 358.78 590.139 358.78C603.853 358.78 616.409 353.918 626.188 345.871C633.942 367.926 654.947 383.729 679.655 383.729C698.692 383.729 715.531 374.352 725.831 359.938C733.353 363.643 741.801 365.726 750.77 365.726C763.559 365.726 775.421 361.443 784.911 354.323C791.739 357.217 799.261 358.838 807.131 358.838C807.593 358.838 807.999 358.838 808.461 358.838C790.003 387.723 779.298 422.108 779.298 458.924C779.298 561.73 862.565 645.028 965.332 645.028C1068.1 645.028 1151.37 561.73 1151.37 458.924C1151.37 451.514 1150.96 444.278 1150.09 437.1C1219.7 431.485 1274.39 373.194 1274.39 302.109C1274.39 301.357 1274.39 300.662 1274.39 299.91C1274.91 299.736 1275.43 299.62 1275.95 299.446C1275.72 302.63 1275.54 305.814 1275.54 309.056C1275.54 375.451 1329.36 429.286 1395.73 429.286C1428.25 429.286 1457.7 416.377 1479.34 395.364C1500.06 412.267 1526.44 422.339 1555.2 422.339C1621.57 422.339 1675.39 368.505 1675.39 302.109C1675.39 283.18 1670.99 265.294 1663.24 249.317C1666.88 248.101 1670.41 246.48 1673.65 244.57C1693.73 282.833 1733.89 308.998 1780.12 308.998C1846.49 308.998 1900.31 255.163 1900.31 188.768C1900.25 122.43 1846.49 68.5954 1780.12 68.5954Z" fill="#27272D"/>
<path d="M1990 127.132C1990 174.537 1966.83 211.187 1921 217V696H-4V297.276C-4 232.91 50.1152 180.77 114.451 180.77C178.786 180.77 230.901 232.91 230.901 297.276C230.901 303.508 230.422 309.681 229.464 315.674C238.569 313.397 248.093 312.198 257.857 312.198C276.787 312.198 294.638 316.753 310.392 324.724C314.885 264.493 365.203 217.028 426.543 217.028C463.084 217.028 495.73 233.869 517.056 260.238C531.372 227.277 564.199 204.203 602.417 204.203C643.81 204.203 678.853 231.232 690.953 268.629C712.039 260.238 735.041 255.624 759.122 255.624C815.371 255.624 865.749 280.855 899.594 320.589C910.855 318.131 922.596 316.813 934.637 316.813C945.898 316.813 956.86 317.952 967.463 320.109C1022.27 229.254 1121.89 168.544 1235.71 168.544C1339.76 168.544 1431.95 219.306 1488.92 297.455C1518.27 298.534 1545.82 306.505 1570.14 319.75C1595.54 232.371 1676.17 168.544 1771.66 168.544C1786.87 168.544 1801.73 170.222 1816.04 173.279C1808.26 159.675 1803.82 143.913 1803.82 127.132C1803.82 75.7118 1845.52 34 1896.91 34C1948.31 34 1990 75.7118 1990 127.132Z" fill="white"/>
</svg>
