<svg width="601" height="943" viewBox="0 0 601 943" fill="none" xmlns="http://www.w3.org/2000/svg">
<path d="M178.16 415.18L211.33 413.53L245.1 356.67L229.05 346.57C229.05 346.57 168.98 332.81 141.39 390.5C141.39 390.5 128.1 419.7 139.91 426.64C147.72 431.26 159.23 403.89 178.16 415.18Z" fill="#474854"/>
<path opacity="0.21" d="M178.16 415.18L211.33 413.53L245.1 356.67L229.05 346.57C229.05 346.57 168.98 332.81 141.39 390.5C141.39 390.5 128.1 419.7 139.91 426.64C147.72 431.26 159.23 403.89 178.16 415.18Z" fill="#27272D"/>
<path d="M155.53 404.13C155.53 404.13 151.26 413.8 152.24 420.55C158.89 415 167.34 408.81 178.17 415.18L203.34 414.01L219.81 386.29L209.49 379.86C209.53 379.77 171.5 370.06 155.53 404.13Z" fill="#474854"/>
<path opacity="0.1" d="M141.541 395.81C169.131 338.11 229.201 351.88 229.201 351.88L242.801 360.45L245.101 356.66L229.051 346.56C229.051 346.56 168.981 332.8 141.391 390.49C141.391 390.49 133.481 407.69 135.261 418.83C135.811 408.21 141.541 395.81 141.541 395.81Z" fill="white"/>
<path d="M385.9 538.74L371.41 508.84L405.18 451.98L421.74 461.19C421.74 461.19 462.56 507.48 425.17 559.29C425.17 559.29 405.96 584.95 394.21 577.92C386.32 573.25 404.83 550.03 385.9 538.74Z" fill="#474854"/>
<path opacity="0.21" d="M385.9 538.74L371.41 508.84L405.18 451.98L421.74 461.19C421.74 461.19 462.56 507.48 425.17 559.29C425.17 559.29 405.96 584.95 394.21 577.92C386.32 573.25 404.83 550.03 385.9 538.74Z" fill="#27272D"/>
<path d="M406.39 553.31C406.39 553.31 399.98 561.74 393.57 563.99C395.28 555.46 396.64 545.07 385.82 538.69L375 516.03L391.47 488.31L402.09 494.21C402.04 494.3 428.64 522.99 406.39 553.31Z" fill="#474854"/>
<path opacity="0.1" d="M420.461 561.68C457.841 509.88 417.031 463.59 417.031 463.59L403.021 455.73L405.322 451.94L421.882 461.15C421.882 461.15 462.701 507.45 425.311 559.24C425.311 559.24 413.932 574.43 403.322 578.18C412.242 572.63 420.461 561.68 420.461 561.68Z" fill="white"/>
<path d="M306.531 481.59L335.161 433.42L425.981 466.61L392.491 532.67L306.531 481.59Z" fill="#F2F2F2"/>
<path d="M180.25 406.4L222.07 346.1L294.77 409.26L266.14 457.43L180.25 406.4Z" fill="#F2F2F2"/>
<path d="M506.961 113.28C508.741 110.19 509.321 107.19 508.101 106.49C506.891 105.79 504.541 107.66 502.671 110.69C500.891 113.78 500.311 116.78 501.531 117.48C502.741 118.19 505.221 116.29 506.961 113.28Z" fill="#EDEDF4"/>
<path opacity="0.15" d="M507.351 112.4C507.351 112.4 504.391 117.92 501.771 116.85C500.551 116.36 501.381 113.51 502.661 110.69L502.611 110.77C500.831 113.86 500.301 116.78 501.471 117.56C502.681 118.26 505.041 116.39 506.821 113.31C507.011 112.98 507.211 112.65 507.351 112.4Z" fill="#73737F"/>
<path d="M506.521 113.03C508.111 110.28 508.631 107.57 507.501 106.92C506.461 106.32 504.211 108.02 502.621 110.77C501.031 113.52 500.511 116.23 501.641 116.88C502.681 117.49 504.931 115.78 506.521 113.03Z" fill="white"/>
<path d="M506.521 113.03C508.111 110.28 508.581 107.66 507.541 107.06C506.501 106.46 504.381 108.13 502.701 110.83C501.111 113.58 500.641 116.2 501.681 116.8C502.731 117.4 504.891 115.65 506.521 113.03Z" fill="#BCBCCC"/>
<path d="M506.521 113.03C508.011 110.44 508.571 107.87 507.621 107.32C506.671 106.77 504.681 108.4 503.051 111.02C501.561 113.61 501.001 116.18 501.951 116.73C502.911 117.29 504.941 115.57 506.521 113.03Z" fill="#73737F"/>
<path d="M501.621 114.31C501.531 114.26 501.841 113.32 502.491 112.81C501.931 113.38 501.621 114.31 501.621 114.31Z" fill="#8F8F99"/>
<path d="M505.312 108.11C505.312 108.11 504.662 108.84 504.442 109.61L504.352 109.56C504.572 108.79 505.312 108.11 505.312 108.11Z" fill="#8F8F99"/>
<path opacity="0.15" d="M502.711 110.61C504.091 108.62 505.741 107.57 506.601 108.07C507.551 108.62 507.131 111.16 505.641 113.74C505.011 114.82 504.261 115.73 503.571 116.33C504.531 115.66 505.561 114.48 506.431 112.98C508.021 110.23 508.491 107.61 507.501 106.92C506.461 106.32 504.341 107.99 502.711 110.61Z" fill="#73737F"/>
<path d="M502.831 108.01L500.291 112.21L502.981 113.76L505.521 109.56L502.831 108.01Z" fill="#73737F"/>
<g opacity="0.15">
<path opacity="0.15" d="M504.691 111.19C504.741 111.11 504.841 110.94 504.891 110.64C504.761 110.68 504.751 110.89 504.691 111.19Z" fill="#73737F"/>
</g>
<path d="M502.231 110.44C502.901 109.27 503.221 108.12 502.961 107.97C502.611 107.77 501.821 108.54 501.101 109.79C500.431 110.96 500.111 112.11 500.371 112.26C500.631 112.41 501.471 111.56 502.231 110.44Z" fill="#8F8F99"/>
<path d="M502.151 110.39C502.781 109.31 503.051 108.24 502.791 108.09C502.531 107.94 501.741 108.71 501.031 109.74C500.401 110.82 500.131 111.89 500.391 112.04C500.731 112.24 501.431 111.43 502.151 110.39Z" fill="#73737F"/>
<path d="M502.382 108.19L496.702 104.8L495.672 108.99L500.222 111.73L500.652 111.98C501.022 111.75 501.572 111.18 502.012 110.43C502.492 109.6 502.792 108.88 502.812 108.44L502.382 108.19Z" fill="#69DDAE"/>
<path d="M498.63 109.47C498.63 109.47 502.66 107.9 502.89 103.7C503.12 99.49 500.33 94.1001 491.39 90.1601C482.44 86.2201 472.68 95.93 478.19 105.01C484.74 115.69 498.63 109.47 498.63 109.47Z" fill="#75F1C1"/>
<path d="M494.551 91.88C500.581 95.47 502.481 99.8 502.271 103.35C502.091 107.47 498.111 108.96 498.111 108.96C498.111 108.96 484.591 114.95 478.201 104.58C476.001 100.97 476.251 97.33 477.891 94.5C476.071 97.45 475.681 101.34 478.051 105.05C484.611 115.73 498.491 109.52 498.491 109.52C498.491 109.52 502.521 107.95 502.751 103.75C503.081 100.15 500.971 95.59 494.551 91.88Z" fill="#69DDAE"/>
<path opacity="0.42" d="M492.98 107.43C494.95 107.23 496.38 105.95 496.18 104.49C495.98 103.04 494.29 101.95 492.32 102.15C490.35 102.35 488.92 103.63 489.12 105.09C489.33 106.55 491.01 107.63 492.98 107.43Z" fill="#A7A9CA"/>
<path opacity="0.42" d="M498.671 100.38C500.031 99.83 500.561 97.91 499.751 96.11C498.941 94.31 497.211 93.3 495.851 93.86C494.491 94.41 493.961 96.33 494.771 98.13C495.491 99.87 497.231 100.88 498.671 100.38Z" fill="#A7A9CA"/>
<path d="M493.041 107.13C495.011 106.93 496.441 105.65 496.241 104.19C496.041 102.74 494.351 101.65 492.381 101.85C490.411 102.05 488.981 103.33 489.181 104.79C489.301 106.2 491.121 107.25 493.041 107.13Z" fill="white"/>
<path opacity="0.16" d="M494.771 102.13C495.461 102.53 495.981 103.05 496.031 103.75C496.191 105.07 494.991 106.15 493.291 106.29C491.591 106.42 490.031 105.52 489.951 104.25C489.791 102.93 490.991 101.85 492.691 101.71C493.051 101.69 493.401 101.68 493.711 101.74C493.311 101.62 492.871 101.59 492.381 101.64C490.411 101.84 488.981 103.12 489.181 104.58C489.381 106.03 491.071 107.12 493.041 106.92C495.011 106.72 496.441 105.44 496.241 103.98C496.191 103.28 495.641 102.63 494.771 102.13Z" fill="#A7A9CA"/>
<path d="M498.642 100.03C500.002 99.48 500.532 97.5601 499.722 95.7601C498.912 93.9601 497.172 92.9501 495.822 93.5001C494.462 94.0501 493.932 95.97 494.742 97.77C495.552 99.57 497.282 100.58 498.642 100.03Z" fill="white"/>
<path d="M487.841 103.91C487.841 103.91 487.621 102.89 488.451 101.04C489.291 99.19 486.281 99.79 486.001 102.07C485.821 104.41 488.001 105.23 487.841 103.91Z" fill="#3CAF8E"/>
<path d="M494.731 91.9801C494.731 91.9801 493.661 92.0301 492.051 93.2101C490.441 94.3901 490.391 91.4701 492.611 90.6401C494.771 89.8901 496.021 91.9501 494.731 91.9801Z" fill="#3CAF8E"/>
<path opacity="0.42" d="M486.262 103.44C486.262 103.44 486.602 104.86 487.712 104.94C488.732 104.97 487.732 103.5 488.642 101.92C489.552 100.34 488.732 99.7501 487.922 99.9501C487.922 99.9501 488.502 99.9501 488.152 100.75C487.802 101.55 487.272 102.68 487.452 103.57C487.502 104.49 486.412 103.98 486.262 103.44Z" fill="#A7A9CA"/>
<path opacity="0.42" d="M491.131 91.79C491.131 91.79 490.891 92.21 491.091 92.66C491.431 93.08 492.861 91.79 493.851 91.69C494.831 91.59 495.061 91.39 494.811 91.02C494.811 91.02 495.321 91.54 494.991 91.9L494.671 92.05L494.841 92.15C494.841 92.15 493.681 92.15 492.471 93.45C491.361 94.6 490.171 93.46 491.131 91.79Z" fill="#A7A9CA"/>
<path opacity="0.16" d="M498.82 99.1201C497.64 99.5501 496.08 98.6501 495.44 97.1701C494.71 95.6301 495.09 93.9601 496.32 93.4501C496.5 93.3301 496.72 93.3501 496.95 93.3701C496.59 93.3901 496.24 93.4001 495.83 93.5001C494.47 94.0501 493.94 95.9701 494.75 97.7701C495.56 99.5701 497.3 100.58 498.66 100.03C499.97 99.5601 500.4 97.8101 499.85 96.1601C500.22 97.4901 499.81 98.8101 498.82 99.1201Z" fill="#A7A9CA"/>
<path d="M499.45 102.83C498.97 103.66 498.28 104.26 498 104.55C497.95 104.63 497.86 104.58 497.78 104.53C497.69 104.48 497.74 104.4 497.79 104.31C498.07 104.03 498.86 103.26 499.34 102.42C499.39 102.34 499.39 102.34 499.48 102.39C499.57 102.44 499.52 102.52 499.52 102.52C499.55 102.66 499.5 102.75 499.45 102.83Z" fill="#3CAF8E"/>
<path d="M507.74 107.51C507.34 107.61 506.73 108.26 506.22 108.75C505.71 109.23 505.29 109.77 504.98 109.7C504.76 109.68 504.28 109.52 503.72 109.08C503.29 108.83 502.9 108.5 502.9 108.5L502.95 108.42C502.95 108.42 504.42 109.49 505.08 109.54C505.39 109.61 505.81 109.07 506.32 108.59C506.69 108.12 507.25 107.56 507.74 107.51Z" fill="#8F8F99"/>
<path d="M507.66 110.46C507.23 110.21 506.37 110.49 505.65 110.74C505.2 110.92 504.79 111.02 504.57 111.01C504.09 110.84 502.57 109.86 502.49 109.81L502.54 109.73C502.54 109.73 504.14 110.77 504.62 110.93C504.79 111.03 505.25 110.85 505.7 110.66C506.37 110.49 507.22 110.21 507.66 110.46Z" fill="#8F8F99"/>
<path d="M504.171 115.9C503.571 115.33 503.621 114.25 503.661 113.38C503.681 112.95 503.741 112.65 503.611 112.46C503.361 112.09 501.531 111.26 501.531 111.26L501.581 111.18C501.671 111.23 503.501 112.07 503.661 112.38C503.701 112.51 503.731 112.86 503.711 113.3C503.671 114.17 503.621 115.25 504.171 115.9Z" fill="#8F8F99"/>
<path d="M501.742 116.5C501.402 116.08 501.942 114.95 502.202 114.1C502.312 113.72 502.552 113.3 502.512 113.17C502.392 112.99 501.172 112.28 500.602 112.07L500.652 111.99C500.652 111.99 501.082 112.24 501.522 112.49C501.782 112.64 502.392 112.99 502.512 113.17C502.552 113.3 502.402 113.55 502.202 114.1C502.032 115 501.492 116.13 501.742 116.5Z" fill="#8F8F99"/>
<path d="M504.35 111.78C504.25 111.95 504.16 112.11 504.11 112.2C503.69 112.73 503.32 112.97 503.32 112.97L503.23 112.92C503.23 112.92 503.6 112.69 504.02 112.15C504.4 111.7 504.83 110.95 504.88 109.86C504.89 110.64 504.64 111.28 504.35 111.78Z" fill="#8F8F99"/>
<path opacity="0.15" d="M504.551 111.45C504.451 111.62 504.231 111.6 504.061 111.5L502.241 110.45C501.571 111.62 500.781 112.38 500.381 112.27L501.681 113.02C501.231 114.2 501.091 115.24 501.241 115.99C501.471 115.79 501.551 116.06 501.591 116.19C501.441 115.66 501.471 114.79 501.831 113.77C501.431 114.87 501.391 115.74 501.631 116.32C501.631 116.32 501.551 115.05 502.681 113.7C503.601 114.12 504.231 112.82 504.141 112.77C504.051 112.72 503.551 112.99 504.111 112.42C504.391 112.14 504.631 111.72 504.741 111.34C504.641 111.28 504.591 111.36 504.551 111.45ZM501.831 113.55L501.781 113.63L501.831 113.55ZM501.931 113.16C501.881 113.24 501.791 113.41 501.821 113.54C501.881 113.46 501.891 113.25 501.931 113.16Z" fill="#73737F"/>
<path d="M549.722 145.22C549.772 145.14 549.682 145.09 549.072 144.73C548.812 144.58 548.422 144.46 548.422 144.46C548.422 144.46 548.682 144.61 549.072 144.73C549.602 145.03 549.632 145.17 549.722 145.22Z" fill="#8F8F99"/>
<path d="M549.111 146.08C549.151 146 549.151 146 549.111 146.08C549.071 145.95 549.151 146 549.111 146.08C549.071 145.95 549.021 146.03 549.111 146.08C549.021 146.03 548.891 146.06 548.421 145.68C548.161 145.53 547.951 145.3 547.861 145.25C547.891 145.38 548.881 146.07 549.111 146.08Z" fill="#8F8F99"/>
<path d="M548.551 146.65C548.461 146.6 548.461 146.6 548.551 146.65C548.461 146.6 548.411 146.68 547.941 146.3C547.681 146.15 547.471 145.92 547.471 145.92C547.471 145.92 547.681 146.15 548.031 146.35C548.281 146.72 548.411 146.68 548.551 146.65Z" fill="#8F8F99"/>
<path d="M530.11 118.87L526.32 125.24L532.15 127.16C532.15 127.16 550.55 139.57 550.64 139.62C550.81 139.72 551.04 139.74 551.17 139.7C551.31 139.67 551.39 139.72 551.48 139.77L552.48 140.24C552.48 140.24 552.57 140.29 552.62 140.21C552.81 139.88 553.9 138.39 554.04 137.14L554 137.01L553.18 136.43C553.01 136.33 552.88 136.15 552.76 135.96C552.47 135.46 552.08 135.12 551.65 134.87L530.11 118.87Z" fill="#73737F"/>
<path d="M513.351 132.88C512.171 132.31 510.911 132.7 510.291 133.78L505.711 142.92L509.711 145.01L514.381 135.92C514.911 134.78 514.391 133.48 513.351 132.88Z" fill="#D5D5E0"/>
<path d="M509.662 144.88C509.902 144.46 509.092 143.66 508.002 143.14C506.912 142.62 505.852 142.45 505.662 142.79C505.422 143.21 506.232 144.01 507.322 144.53C508.452 145.18 509.512 145.35 509.662 144.88Z" fill="#EDEDF4"/>
<path d="M509.442 144.86C509.632 144.53 509.002 143.82 507.992 143.36C506.992 142.89 506.062 142.69 505.872 143.02C505.682 143.35 506.312 144.06 507.322 144.52C508.412 145.04 509.252 145.19 509.442 144.86Z" fill="#BCBCCC"/>
<path d="M508.63 146.06L505.5 144.47L506.09 143.25L506.2 142.87C506.6 142.77 507.31 142.95 508 143.36C508.69 143.76 509.25 144.19 509.42 144.51L509.18 144.93L508.63 146.06Z" fill="#73737F"/>
<path d="M508.681 145.98C508.821 145.73 508.281 145.08 507.361 144.66C506.441 144.24 505.691 144.14 505.551 144.39C505.411 144.64 505.961 145.29 506.871 145.71C507.651 146.16 508.481 146.31 508.681 145.98Z" fill="#8F8F99"/>
<path d="M506.55 142.86C506.52 143.51 506 144.21 506 144.21C506.04 144.34 506.52 143.51 506.55 142.86Z" fill="#8F8F99"/>
<path d="M507.251 143.04C507.181 143.56 506.701 144.39 506.701 144.39C506.701 144.39 506.801 144.22 506.991 143.89C507.091 143.73 507.191 143.34 507.251 143.04Z" fill="#8F8F99"/>
<path d="M508.081 143.41C508.031 143.49 507.501 144.41 507.441 144.71C507.591 144.46 508.081 143.41 508.081 143.41Z" fill="#8F8F99"/>
<path d="M508.901 143.99C508.901 143.99 508.331 144.77 508.221 145.37C508.381 144.69 508.901 143.99 508.901 143.99Z" fill="#8F8F99"/>
<path d="M509.321 144.46C509.321 144.46 508.901 144.99 508.551 145.8C508.991 145.04 509.321 144.46 509.321 144.46Z" fill="#8F8F99"/>
<path d="M506.611 148.56L505.311 146.81L505.711 144.71L505.761 144.63C505.901 144.38 506.661 144.48 507.351 144.88C508.041 145.28 508.601 145.72 508.461 145.97L506.611 148.56Z" fill="#75F1C1"/>
<path d="M506.611 148.56L505.311 146.81L505.711 144.71L505.761 144.63C505.901 144.38 506.661 144.48 507.351 144.88C508.041 145.28 508.601 145.72 508.461 145.97L506.611 148.56Z" fill="#69DDAE"/>
<path d="M528.141 105.83L510.441 103.62C509.161 103.44 508.051 104.35 507.951 105.52C507.811 106.77 508.781 107.89 509.981 108.03L527.681 110.24C528.961 110.42 530.071 109.51 530.171 108.34C530.311 107.09 529.431 106.02 528.141 105.83Z" fill="#D5D5E0"/>
<path d="M507.961 105.52C508.101 104.27 509.161 103.44 510.451 103.62L512.841 103.89L515.431 108.61L509.951 107.89C508.791 107.89 507.821 106.77 507.961 105.52Z" fill="#BCBCCC"/>
<path d="M528.942 110.07C527.852 110.55 526.492 110.1 525.872 108.97L521.082 99.6401L525.032 97.8101L529.822 107.14C530.492 108.19 530.072 109.51 528.942 110.07Z" fill="#D5D5E0"/>
<path d="M529.351 109.76C529.301 109.84 529.251 109.93 529.251 109.93C529.661 109.61 529.611 108.91 529.171 107.66C528.811 106.67 528.241 105.46 527.511 103.92C526.111 101.33 524.531 98.86 524.531 98.86C524.531 98.86 526.111 101.33 527.511 103.92C528.291 105.37 528.901 106.73 529.171 107.66C529.531 108.64 529.591 109.34 529.351 109.76Z" fill="#EDEDF4"/>
<path opacity="0.15" d="M529.441 108.8C529.031 108.9 528.731 108.83 528.421 108.77C527.941 108.6 527.461 108.22 527.261 107.77L522.751 98.9401L521.161 99.6901L525.341 107.89L509.891 105.2C509.661 106.4 510.021 107.39 510.831 108.19L527.641 110.34C528.751 110.42 529.801 109.81 530.021 108.82C530.121 108.65 530.131 108.44 530.051 108.17C529.991 108.45 529.711 108.74 529.441 108.8Z" fill="#73737F"/>
<path d="M500.561 118.15C499.601 118.82 499.361 120.24 500.071 121.2L510.471 135.66C511.181 136.63 512.641 136.91 513.601 136.25C514.561 135.58 514.801 134.16 514.091 133.2L503.691 118.74C502.891 117.72 501.521 117.49 500.561 118.15Z" fill="#D5D5E0"/>
<path d="M500.561 118.15C499.601 118.82 499.361 120.24 500.071 121.2L501.501 123.14L506.931 123.16L503.701 118.74C502.891 117.72 501.521 117.49 500.561 118.15Z" fill="#BCBCCC"/>
<path opacity="0.15" d="M500.56 118.15C499.51 118.77 499.45 120.07 500.12 121.12L509.79 134.83L505.7 142.92L507.22 143.69L508.35 143.34L511.81 136.55C511.81 136.55 512.45 135.03 511.16 133.06L511.12 132.93L505.32 125.13C504.57 124.03 505.61 122.63 506.83 123.11L506.92 123.16L503.69 118.74C502.89 117.72 501.52 117.49 500.56 118.15Z" fill="#73737F"/>
<path d="M529.271 134.96C529.271 134.96 531.121 127.35 536.471 122.88L530.111 118.87L522.711 131.28L529.271 134.96Z" fill="#73737F"/>
<path opacity="0.15" d="M530.672 119.3L530.062 118.95L526.462 124.99L522.672 131.36L527.232 133.88L529.222 135.03L545.202 145.82C545.632 146.07 546.122 146.24 546.692 146.24C546.912 146.26 547.132 146.27 547.312 146.37L548.182 146.87C548.182 146.87 548.272 146.92 548.312 146.84C548.812 146.57 549.282 145.96 549.572 145.46C548.922 146.19 547.342 145.51 548.262 144.92C549.172 144.34 549.142 143.2 549.142 143.2L549.192 143.12C549.152 142.99 548.982 142.89 548.892 142.84C548.892 142.84 548.542 142.64 547.942 142.29C548.032 142.34 547.982 142.42 548.072 142.47C548.852 142.92 549.062 144.16 547.272 144.46C545.482 144.76 529.672 134.07 529.942 132C530.002 131.7 530.052 131.4 530.202 131.15C530.432 130.95 530.662 130.75 530.892 130.55C530.992 130.38 531.122 130.35 531.222 130.18C531.542 130.03 531.942 129.93 532.162 129.95C531.902 129.8 531.642 129.65 531.472 129.55C531.812 128.97 532.192 128.3 532.632 127.55L532.802 127.65L532.852 127.57L532.802 127.65C537.482 130.36 550.512 139.66 550.602 139.71C550.772 139.81 551.002 139.83 551.132 139.79C551.262 139.75 551.352 139.81 551.442 139.86L552.442 140.33C552.442 140.33 552.532 140.38 552.582 140.3C552.632 140.22 552.822 139.88 553.102 139.6C552.342 139.72 551.622 138.97 552.302 138.58C553.212 138 552.972 136.41 552.972 136.41C552.882 136.36 552.852 136.23 552.762 136.18C552.472 135.68 552.092 135.34 551.652 135.09L551.562 135.04C552.892 136.14 552.382 137.63 551.472 138.21C550.372 138.91 536.832 128.31 533.322 126.17C532.662 124.9 533.032 123.67 533.032 123.67C530.572 130.15 527.462 129.91 526.372 128.39C525.172 127.03 529.672 120.62 530.672 119.3Z" fill="#73737F"/>
<path d="M503.042 110.24L502.702 110.82L502.512 111.15L502.172 111.73L501.762 119.06L506.872 123.24L522.712 131.27L526.312 125.23L526.502 124.9L530.102 118.86L515.422 108.82L509.262 106.26L503.042 110.24Z" fill="#D5D5E0"/>
<path opacity="0.15" d="M514.11 108.3C512.28 108.47 510.02 109.17 508.18 110.77C508.39 110 508.6 109.23 508.64 108.37C508.72 106.63 507.71 106.17 506.6 106.3L503.01 110.12L502.67 110.7L502.48 111.03L502.14 111.61L499.57 119.47L522.76 131.2L524.58 128.25L506.35 119.95C506.46 118.35 507.04 116.35 508.29 114.18C510.49 110.56 513.18 109.11 515.03 108.51L514.94 108.46L514.11 108.3ZM504.94 119.57C504.94 119.57 503.84 119.27 504.21 118.03C504.27 117.73 504.56 117.23 505.03 116.61C504.81 117.6 504.9 118.66 504.94 119.57Z" fill="#73737F"/>
<path d="M508.23 110.68L517.16 116.06L508.23 110.68Z" fill="#EDEDF4"/>
<path d="M519.98 115.58L527.951 122.41L519.98 115.58Z" fill="#EDEDF4"/>
<path d="M515.031 123.95L524.871 127.74L515.031 123.95Z" fill="#EDEDF4"/>
<path d="M505.111 115.88L514.041 121.26L505.111 115.88Z" fill="#EDEDF4"/>
<path d="M513.99 121.13L516.58 128.07L513.99 121.13Z" fill="#EDEDF4"/>
<path d="M503.042 110.24L502.702 110.82L502.512 111.15L502.412 111.32L502.172 111.74L499.602 119.6L506.872 123.24C506.872 123.24 504.712 119.77 507.942 114.18C511.342 108.69 515.382 108.91 515.382 108.91L508.692 104.27L503.042 110.24Z" fill="#BCBCCC"/>
<path opacity="0.15" d="M506.021 120.31L504.931 119.79C504.931 119.79 503.751 119.22 504.121 117.99C504.491 116.75 508.451 112.48 508.591 108.45C508.671 106.71 507.661 106.25 506.551 106.38L502.961 110.2L502.621 110.78L502.431 111.11L502.331 111.28L502.091 111.7L499.521 119.56L506.792 123.2C506.872 123.25 506.211 122.19 506.021 120.31Z" fill="#73737F"/>
<path opacity="0.15" d="M507.811 114C504.581 119.59 506.921 123.16 506.921 123.16C506.921 123.16 504.761 119.69 507.981 114.1C511.381 108.61 515.421 108.83 515.421 108.83C515.421 108.83 511.161 108.59 507.811 114Z" fill="#73737F"/>
<path d="M506.961 113.28C508.741 110.19 509.321 107.19 508.101 106.49C506.891 105.79 504.541 107.66 502.671 110.69C500.891 113.78 500.311 116.78 501.531 117.48C502.741 118.19 505.221 116.29 506.961 113.28Z" fill="#EDEDF4"/>
<path opacity="0.15" d="M507.351 112.4C507.351 112.4 504.391 117.92 501.771 116.85C500.551 116.36 501.381 113.51 502.661 110.69L502.611 110.77C500.831 113.86 500.301 116.78 501.471 117.56C502.681 118.26 505.041 116.39 506.821 113.31C507.011 112.98 507.211 112.65 507.351 112.4Z" fill="#73737F"/>
<path d="M506.521 113.03C508.111 110.28 508.631 107.57 507.501 106.92C506.461 106.32 504.211 108.02 502.621 110.77C501.031 113.52 500.511 116.23 501.641 116.88C502.681 117.49 504.931 115.78 506.521 113.03Z" fill="white"/>
<path d="M506.521 113.03C508.111 110.28 508.581 107.66 507.541 107.06C506.501 106.46 504.381 108.13 502.701 110.83C501.111 113.58 500.641 116.2 501.681 116.8C502.731 117.4 504.891 115.65 506.521 113.03Z" fill="#BCBCCC"/>
<path d="M506.521 113.03C508.011 110.44 508.571 107.87 507.621 107.32C506.671 106.77 504.681 108.4 503.051 111.02C501.561 113.61 501.001 116.18 501.951 116.73C502.911 117.29 504.941 115.57 506.521 113.03Z" fill="#73737F"/>
<path d="M501.621 114.31C501.531 114.26 501.841 113.32 502.491 112.81C501.931 113.38 501.621 114.31 501.621 114.31Z" fill="#8F8F99"/>
<path d="M505.312 108.11C505.312 108.11 504.662 108.84 504.442 109.61L504.352 109.56C504.572 108.79 505.312 108.11 505.312 108.11Z" fill="#8F8F99"/>
<path opacity="0.15" d="M502.711 110.61C504.091 108.62 505.741 107.57 506.601 108.07C507.551 108.62 507.131 111.16 505.641 113.74C505.011 114.82 504.261 115.73 503.571 116.33C504.531 115.66 505.561 114.48 506.431 112.98C508.021 110.23 508.491 107.61 507.501 106.92C506.461 106.32 504.341 107.99 502.711 110.61Z" fill="#73737F"/>
<path d="M502.831 108.01L500.291 112.21L502.981 113.76L505.521 109.56L502.831 108.01Z" fill="#73737F"/>
<g opacity="0.15">
<path opacity="0.15" d="M504.691 111.19C504.741 111.11 504.841 110.94 504.891 110.64C504.761 110.68 504.751 110.89 504.691 111.19Z" fill="#73737F"/>
</g>
<path d="M502.231 110.44C502.901 109.27 503.221 108.12 502.961 107.97C502.611 107.77 501.821 108.54 501.101 109.79C500.431 110.96 500.111 112.11 500.371 112.26C500.631 112.41 501.471 111.56 502.231 110.44Z" fill="#8F8F99"/>
<path d="M502.151 110.39C502.781 109.31 503.051 108.24 502.791 108.09C502.531 107.94 501.741 108.71 501.031 109.74C500.401 110.82 500.131 111.89 500.391 112.04C500.731 112.24 501.431 111.43 502.151 110.39Z" fill="#73737F"/>
<path d="M502.382 108.19L496.702 104.8L495.672 108.99L500.222 111.73L500.652 111.98C501.022 111.75 501.572 111.18 502.012 110.43C502.492 109.6 502.792 108.88 502.812 108.44L502.382 108.19Z" fill="#69DDAE"/>
<path d="M498.63 109.47C498.63 109.47 502.66 107.9 502.89 103.7C503.12 99.49 500.33 94.1001 491.39 90.1601C482.44 86.2201 472.68 95.93 478.19 105.01C484.74 115.69 498.63 109.47 498.63 109.47Z" fill="#75F1C1"/>
<path d="M494.551 91.88C500.581 95.47 502.481 99.8 502.271 103.35C502.091 107.47 498.111 108.96 498.111 108.96C498.111 108.96 484.591 114.95 478.201 104.58C476.001 100.97 476.251 97.33 477.891 94.5C476.071 97.45 475.681 101.34 478.051 105.05C484.611 115.73 498.491 109.52 498.491 109.52C498.491 109.52 502.521 107.95 502.751 103.75C503.081 100.15 500.971 95.59 494.551 91.88Z" fill="#69DDAE"/>
<path opacity="0.42" d="M492.98 107.43C494.95 107.23 496.38 105.95 496.18 104.49C495.98 103.04 494.29 101.95 492.32 102.15C490.35 102.35 488.92 103.63 489.12 105.09C489.33 106.55 491.01 107.63 492.98 107.43Z" fill="#A7A9CA"/>
<path opacity="0.42" d="M498.671 100.38C500.031 99.83 500.561 97.91 499.751 96.11C498.941 94.31 497.211 93.3 495.851 93.86C494.491 94.41 493.961 96.33 494.771 98.13C495.491 99.87 497.231 100.88 498.671 100.38Z" fill="#A7A9CA"/>
<path d="M493.041 107.13C495.011 106.93 496.441 105.65 496.241 104.19C496.041 102.74 494.351 101.65 492.381 101.85C490.411 102.05 488.981 103.33 489.181 104.79C489.301 106.2 491.121 107.25 493.041 107.13Z" fill="white"/>
<path opacity="0.16" d="M494.771 102.13C495.461 102.53 495.981 103.05 496.031 103.75C496.191 105.07 494.991 106.15 493.291 106.29C491.591 106.42 490.031 105.52 489.951 104.25C489.791 102.93 490.991 101.85 492.691 101.71C493.051 101.69 493.401 101.68 493.711 101.74C493.311 101.62 492.871 101.59 492.381 101.64C490.411 101.84 488.981 103.12 489.181 104.58C489.381 106.03 491.071 107.12 493.041 106.92C495.011 106.72 496.441 105.44 496.241 103.98C496.191 103.28 495.641 102.63 494.771 102.13Z" fill="#A7A9CA"/>
<path d="M498.642 100.03C500.002 99.48 500.532 97.5601 499.722 95.7601C498.912 93.9601 497.172 92.9501 495.822 93.5001C494.462 94.0501 493.932 95.97 494.742 97.77C495.552 99.57 497.282 100.58 498.642 100.03Z" fill="white"/>
<path d="M487.841 103.91C487.841 103.91 487.621 102.89 488.451 101.04C489.291 99.19 486.281 99.79 486.001 102.07C485.821 104.41 488.001 105.23 487.841 103.91Z" fill="#3CAF8E"/>
<path d="M494.731 91.9801C494.731 91.9801 493.661 92.0301 492.051 93.2101C490.441 94.3901 490.391 91.4701 492.611 90.6401C494.771 89.8901 496.021 91.9501 494.731 91.9801Z" fill="#3CAF8E"/>
<path opacity="0.42" d="M486.262 103.44C486.262 103.44 486.602 104.86 487.712 104.94C488.732 104.97 487.732 103.5 488.642 101.92C489.552 100.34 488.732 99.7501 487.922 99.9501C487.922 99.9501 488.502 99.9501 488.152 100.75C487.802 101.55 487.272 102.68 487.452 103.57C487.502 104.49 486.412 103.98 486.262 103.44Z" fill="#A7A9CA"/>
<path opacity="0.42" d="M491.131 91.79C491.131 91.79 490.891 92.21 491.091 92.66C491.431 93.08 492.861 91.79 493.851 91.69C494.831 91.59 495.061 91.39 494.811 91.02C494.811 91.02 495.321 91.54 494.991 91.9L494.671 92.05L494.841 92.15C494.841 92.15 493.681 92.15 492.471 93.45C491.361 94.6 490.171 93.46 491.131 91.79Z" fill="#A7A9CA"/>
<path opacity="0.16" d="M498.82 99.1201C497.64 99.5501 496.08 98.6501 495.44 97.1701C494.71 95.6301 495.09 93.9601 496.32 93.4501C496.5 93.3301 496.72 93.3501 496.95 93.3701C496.59 93.3901 496.24 93.4001 495.83 93.5001C494.47 94.0501 493.94 95.9701 494.75 97.7701C495.56 99.5701 497.3 100.58 498.66 100.03C499.97 99.5601 500.4 97.8101 499.85 96.1601C500.22 97.4901 499.81 98.8101 498.82 99.1201Z" fill="#A7A9CA"/>
<path d="M499.45 102.83C498.97 103.66 498.28 104.26 498 104.55C497.95 104.63 497.86 104.58 497.78 104.53C497.69 104.48 497.74 104.4 497.79 104.31C498.07 104.03 498.86 103.26 499.34 102.42C499.39 102.34 499.39 102.34 499.48 102.39C499.57 102.44 499.52 102.52 499.52 102.52C499.55 102.66 499.5 102.75 499.45 102.83Z" fill="#3CAF8E"/>
<path d="M507.74 107.51C507.34 107.61 506.73 108.26 506.22 108.75C505.71 109.23 505.29 109.77 504.98 109.7C504.76 109.68 504.28 109.52 503.72 109.08C503.29 108.83 502.9 108.5 502.9 108.5L502.95 108.42C502.95 108.42 504.42 109.49 505.08 109.54C505.39 109.61 505.81 109.07 506.32 108.59C506.69 108.12 507.25 107.56 507.74 107.51Z" fill="#8F8F99"/>
<path d="M507.66 110.46C507.23 110.21 506.37 110.49 505.65 110.74C505.2 110.92 504.79 111.02 504.57 111.01C504.09 110.84 502.57 109.86 502.49 109.81L502.54 109.73C502.54 109.73 504.14 110.77 504.62 110.93C504.79 111.03 505.25 110.85 505.7 110.66C506.37 110.49 507.22 110.21 507.66 110.46Z" fill="#8F8F99"/>
<path d="M504.171 115.9C503.571 115.33 503.621 114.25 503.661 113.38C503.681 112.95 503.741 112.65 503.611 112.46C503.361 112.09 501.531 111.26 501.531 111.26L501.581 111.18C501.671 111.23 503.501 112.07 503.661 112.38C503.701 112.51 503.731 112.86 503.711 113.3C503.671 114.17 503.621 115.25 504.171 115.9Z" fill="#8F8F99"/>
<path d="M501.742 116.5C501.402 116.08 501.942 114.95 502.202 114.1C502.312 113.72 502.552 113.3 502.512 113.17C502.392 112.99 501.172 112.28 500.602 112.07L500.652 111.99C500.652 111.99 501.082 112.24 501.522 112.49C501.782 112.64 502.392 112.99 502.512 113.17C502.552 113.3 502.402 113.55 502.202 114.1C502.032 115 501.492 116.13 501.742 116.5Z" fill="#8F8F99"/>
<path d="M504.35 111.78C504.25 111.95 504.16 112.11 504.11 112.2C503.69 112.73 503.32 112.97 503.32 112.97L503.23 112.92C503.23 112.92 503.6 112.69 504.02 112.15C504.4 111.7 504.83 110.95 504.88 109.86C504.89 110.64 504.64 111.28 504.35 111.78Z" fill="#8F8F99"/>
<path d="M523.531 99.3901C524.621 98.9101 525.41 98.1401 525.16 97.7701C524.96 97.3201 523.931 97.5001 522.841 97.9901C521.751 98.4701 520.961 99.2401 521.211 99.6101C521.461 99.9701 522.451 99.8701 523.531 99.3901Z" fill="#EDEDF4"/>
<path d="M523.502 99.25C524.452 98.8 525.152 98.2 524.942 97.75C524.782 97.43 523.842 97.45 522.842 97.98C521.892 98.43 521.192 99.03 521.392 99.48C521.562 99.8 522.542 99.7 523.502 99.25Z" fill="#BCBCCC"/>
<path d="M524.101 96.6001L521.061 98.0701L521.631 99.2901L521.791 99.6101C522.191 99.7301 522.861 99.5601 523.541 99.1801C524.221 98.8001 524.771 98.4501 524.971 98.1101L524.681 97.6101L524.101 96.6001Z" fill="#73737F"/>
<path opacity="0.15" d="M523.471 98.9C522.771 98.72 522.281 97.76 522.281 97.76L522.381 97.38L520.971 98.01L521.541 99.23L521.701 99.55C522.101 99.67 522.771 99.5 523.451 99.12C524.131 98.74 524.681 98.39 524.871 98.05L524.621 97.68C524.691 98.39 524.081 99.04 523.471 98.9Z" fill="#73737F"/>
<path d="M522.801 97.85C523.621 97.43 524.18 96.87 524.1 96.6C523.94 96.28 523.091 96.35 522.271 96.77C521.451 97.19 520.89 97.75 520.97 98.02C521.13 98.33 521.981 98.27 522.801 97.85Z" fill="#8F8F99"/>
<path d="M522.011 99.6201C521.901 99.0001 521.451 98.1801 521.451 98.1801C521.541 98.2401 521.991 99.0501 522.011 99.6201Z" fill="#8F8F99"/>
<path d="M522.721 99.59C522.611 98.97 522.111 98.24 522.111 98.24C522.111 98.24 522.231 98.42 522.401 98.74C522.531 98.92 522.701 99.24 522.721 99.59Z" fill="#8F8F99"/>
<path d="M523.501 99.2501C523.411 99.2001 522.971 98.1601 522.801 97.8501C522.961 98.1701 523.501 99.2501 523.501 99.2501Z" fill="#8F8F99"/>
<path d="M524.361 98.7501C524.361 98.7501 523.771 97.9701 523.621 97.4301C523.821 97.8901 524.361 98.7501 524.361 98.7501Z" fill="#8F8F99"/>
<path d="M524.791 98.2201C524.791 98.2201 524.331 97.6201 523.961 96.8501C524.411 97.6701 524.791 98.2201 524.791 98.2201Z" fill="#8F8F99"/>
<path d="M523.191 95.1801L520.721 95.6501L521.121 97.7701C521.121 97.7701 521.071 97.8501 521.161 97.9001C521.241 98.1701 522.001 98.0501 522.771 97.7201C523.541 97.3901 524.051 96.9 523.891 96.59L523.191 95.1801Z" fill="#75F1C1"/>
<path d="M522.641 95.5301C522.621 97.9701 520.351 98.1001 519.081 97.4801C517.821 96.8601 517.381 97.6101 516.141 97.5601C514.901 97.5101 515.131 96.3101 515.131 96.3101C515.981 94.2401 518.741 95.0601 518.741 95.0601C518.741 95.0601 513.711 91.1501 514.981 88.5501C516.251 85.9501 518.431 85.9801 518.591 87.3001C518.761 88.6201 516.631 89.5001 516.631 89.5001C516.631 89.5001 518.261 91.8901 519.781 92.6601C519.781 92.6601 519.351 91.4101 520.401 90.5701C521.451 89.7301 524.811 90.3401 525.261 92.3801C525.701 94.4201 523.321 94.9301 522.911 92.2401C522.911 92.2401 521.811 91.9401 521.411 92.0401C521.411 92.0401 525.121 94.6301 522.641 95.5301Z" fill="#75F1C1"/>
<path d="M523.912 92.93C523.532 92.38 523.262 91.44 522.422 91.51C521.662 91.63 521.422 92.04 521.422 92.04C521.872 91.86 522.922 92.24 522.922 92.24C523.342 94.71 525.452 94.48 525.342 92.86C525.302 93.51 524.412 93.66 523.912 92.93Z" fill="#69DDAE"/>
<path d="M519.212 96.67C517.642 95.98 516.342 97.24 515.752 96.45C515.542 96.22 515.592 95.92 515.692 95.75C515.462 95.95 515.362 96.12 515.302 96.42C515.302 96.42 515.072 97.62 516.312 97.67C517.552 97.72 517.992 96.97 519.252 97.59C520.512 98.21 522.702 98.02 522.762 95.72C522.122 97.23 520.692 97.3 519.212 96.67Z" fill="#69DDAE"/>
<path d="M515.242 89.7001C515.152 88.6501 515.452 87.9301 515.792 87.3501C515.462 87.7201 515.142 88.0801 514.932 88.6301C513.712 91.1501 518.312 94.8101 518.692 95.1401C518.782 95.2001 515.502 91.8601 515.242 89.7001Z" fill="#69DDAE"/>
<path d="M522.761 95.72C522.711 95.8 522.621 95.75 522.671 95.67C522.181 94.72 520.421 94.15 520.421 94.15C520.331 94.1 520.331 94.1 520.381 94.02C520.431 93.94 520.431 93.94 520.521 93.99C520.521 93.99 521.001 94.16 521.521 94.46C522.211 94.86 522.691 95.24 522.941 95.61C522.811 95.63 522.761 95.72 522.761 95.72Z" fill="#3CAF8E"/>
<path d="M510.342 115.24L509.672 115.19L511.912 118.93L512.252 118.35L510.342 115.24Z" fill="white"/>
<path d="M513.011 117.22L514.071 115.39L510.781 115.27L512.391 118.09L512.731 117.51L511.821 115.87L513.061 115.92L512.671 116.59L513.011 117.22Z" fill="white"/>
<path d="M509.762 115.24L512.002 118.98L512.292 118.48L510.432 115.29L509.762 115.24Z" fill="#BCBCCC"/>
<path d="M513.011 117.22L514.071 115.39L510.781 115.27L512.391 118.09L512.731 117.51L511.821 115.87L513.061 115.92L512.671 116.59L513.011 117.22Z" fill="#BCBCCC"/>
<path d="M509.852 115.29L511.962 118.85L512.202 118.43L510.432 115.29H509.852Z" fill="white"/>
<path d="M512.441 118.01L510.871 115.32L513.931 115.42L512.971 117.09L512.681 116.59L513.111 115.84L511.731 115.82L512.721 117.51L512.441 118.01Z" fill="white"/>
<path d="M504.91 143.69C504.91 143.69 500.41 142.87 497.46 143.17C494.51 143.47 493.57 145.71 494.47 146.56C495.37 147.41 497.45 146.61 497.52 144.88C497.52 144.88 500.41 144.88 502.72 146.1C502.72 146.1 497.66 146.85 497.16 149.12C496.7 151.52 499.79 151.98 499.15 149.27C499.15 149.27 500.31 148.27 502.29 148.64C504.28 149.01 506.09 150.28 506.73 148.76C506.87 148.51 506.84 148.16 506.86 147.72C506.86 147.72 506.86 147.72 506.91 147.64C507.18 147.57 507.55 147.34 507.7 146.87C507.96 146.02 507.36 145.45 507.07 143.95C507.19 143.13 507.54 142.33 508.01 141.71C509.44 139.85 503.63 140.29 504.91 143.69Z" fill="#75F1C1"/>
<path d="M505.422 142.21C504.862 143.78 505.582 144.75 505.582 144.75C505.582 144.75 502.682 143.96 499.222 143.74C495.762 143.52 494.222 145.19 495.022 146.21C495.272 146.58 495.532 146.73 495.892 146.71C496.702 146.51 497.492 145.74 497.492 144.74C497.492 144.74 500.382 144.74 502.692 145.96C502.692 145.96 502.602 145.91 502.472 145.94L502.562 145.99C502.562 145.99 498.702 146.87 497.772 148.67C497.342 149.42 497.312 150.07 497.382 150.55C498.012 151.47 499.582 151.15 499.092 149.2C499.092 149.2 500.252 148.2 502.232 148.57C503.912 148.87 505.382 149.72 506.252 149.22C506.772 148.52 506.322 147.7 506.922 147.05C507.382 146.65 507.202 145.76 507.102 144.93C507.022 144.66 506.952 144.4 506.832 144C506.902 143.48 507.102 142.93 507.342 142.51C508.192 140.8 506.062 140.69 505.422 142.21Z" fill="#69DDAE"/>
<path opacity="0.15" d="M504.551 111.45C504.451 111.62 504.231 111.6 504.061 111.5L502.241 110.45C501.571 111.62 500.781 112.38 500.381 112.27L501.681 113.02C501.231 114.2 501.091 115.24 501.241 115.99C501.471 115.79 501.551 116.06 501.591 116.19C501.441 115.66 501.471 114.79 501.831 113.77C501.431 114.87 501.391 115.74 501.631 116.32C501.631 116.32 501.551 115.05 502.681 113.7C503.601 114.12 504.231 112.82 504.141 112.77C504.051 112.72 503.551 112.99 504.111 112.42C504.391 112.14 504.631 111.72 504.741 111.34C504.641 111.28 504.591 111.36 504.551 111.45ZM501.831 113.55L501.781 113.63L501.831 113.55ZM501.931 113.16C501.881 113.24 501.791 113.41 501.821 113.54C501.881 113.46 501.891 113.25 501.931 113.16Z" fill="#73737F"/>
<path opacity="0.15" d="M513.91 122.08C514.35 122.11 514.72 121.88 514.87 121.41C514.89 120.98 514.64 120.61 514.16 120.44C513.72 120.41 513.35 120.64 513.2 121.11C513.18 121.55 513.46 122.05 513.91 122.08Z" fill="#73737F"/>
<path d="M513.961 122C514.401 122.03 514.771 121.8 514.871 121.42C514.981 121.04 514.641 120.62 514.241 120.5C513.801 120.47 513.431 120.7 513.321 121.08C513.221 121.46 513.511 121.96 513.961 122Z" fill="#EDEDF4"/>
<g opacity="0.15">
<path opacity="0.15" d="M514.601 121.48C514.511 121.43 514.471 121.3 514.471 121.3C514.421 121.38 514.421 121.38 514.371 121.47C514.231 121.72 513.821 121.82 513.561 121.67C513.391 121.57 513.351 121.44 513.311 121.3L513.301 121.52L513.211 121.47C513.251 121.6 513.371 121.79 513.551 121.89C513.901 122.09 514.391 122.04 514.631 121.62C514.731 121.45 514.691 121.32 514.781 121.15C514.781 121.37 514.691 121.53 514.601 121.48Z" fill="#73737F"/>
</g>
<path d="M513.88 121.73C514.19 121.8 514.42 121.6 514.48 121.3C514.54 121 514.33 120.76 514.02 120.7C513.71 120.63 513.48 120.83 513.42 121.13C513.36 121.43 513.57 121.66 513.88 121.73Z" fill="white"/>
<path d="M513.792 121.68C514.102 121.75 514.332 121.55 514.392 121.25C514.452 120.95 514.242 120.72 513.932 120.65C513.622 120.58 513.392 120.78 513.332 121.08C513.412 121.35 513.572 121.66 513.792 121.68Z" fill="#57DCEA"/>
<path d="M513.792 121.68C514.102 121.75 514.332 121.55 514.392 121.25C514.452 120.95 514.242 120.72 513.932 120.65C513.622 120.58 513.392 120.78 513.332 121.08C513.412 121.35 513.572 121.66 513.792 121.68Z" fill="#BCBCCC"/>
<path d="M513.931 121.65C514.151 121.67 514.471 121.52 514.481 121.3C514.491 121.08 514.331 120.76 514.101 120.75C513.881 120.73 513.561 120.88 513.551 121.1C513.491 121.4 513.711 121.63 513.931 121.65Z" fill="#F2F2F2"/>
<path d="M513.891 121.51C514.111 121.53 514.301 121.41 514.301 121.19C514.311 120.97 514.191 120.79 513.961 120.77C513.741 120.75 513.561 120.87 513.551 121.09C513.541 121.31 513.671 121.5 513.891 121.51Z" fill="white"/>
<path opacity="0.54" d="M514 120.91C514.09 120.96 514.04 121.04 513.94 121.21C513.84 121.38 513.71 121.41 513.62 121.36C513.53 121.31 513.541 121.09 513.591 121.01C513.831 120.81 513.97 120.78 514 120.91Z" fill="white"/>
<path opacity="0.54" d="M514.11 121.53C514.02 121.48 514.07 121.4 514.16 121.45C514.21 121.37 514.21 121.37 514.3 121.42C514.39 121.47 514.34 121.55 514.29 121.64C514.25 121.5 514.2 121.58 514.11 121.53Z" fill="white"/>
<path opacity="0.15" d="M515.05 124.52C515.36 124.59 515.59 124.39 515.65 124.09C515.71 123.79 515.5 123.56 515.19 123.49C514.88 123.42 514.65 123.62 514.59 123.92C514.53 124.22 514.74 124.45 515.05 124.52Z" fill="#73737F"/>
<path d="M514.961 124.47C515.181 124.49 515.5 124.34 515.51 124.12C515.52 123.9 515.35 123.59 515.13 123.57C514.91 123.55 514.59 123.7 514.58 123.92C514.57 124.13 514.741 124.45 514.961 124.47Z" fill="#EDEDF4"/>
<g opacity="0.15">
<path opacity="0.15" d="M515.37 124.15C515.28 124.1 515.331 124.02 515.331 124.02L515.37 124.15C515.14 124.35 515.001 124.38 514.831 124.28C514.741 124.23 514.66 124.18 514.62 124.05C514.62 124.05 514.66 124.18 514.57 124.13C514.57 124.13 514.57 124.13 514.48 124.08C514.52 124.21 514.6 124.26 514.69 124.31C514.96 124.47 515.23 124.4 515.37 124.15C515.42 124.07 515.47 123.98 515.43 123.85C515.56 124.04 515.46 124.2 515.37 124.15Z" fill="#73737F"/>
</g>
<path opacity="0.15" d="M514.77 123.8C514.67 123.97 514.71 124.1 514.89 124.2C514.8 124.15 514.76 124.02 514.77 123.8C514.9 123.77 515.04 123.73 515.21 123.83C515.38 123.93 515.42 124.06 515.33 124.23C515.43 124.06 515.39 123.93 515.21 123.83C515 123.6 514.86 123.63 514.77 123.8Z" fill="#73737F"/>
<path d="M524.272 114.94L516.932 116.04L524.272 114.94Z" fill="#EDEDF4"/>
<path opacity="0.15" d="M517.031 116.88C517.471 116.91 517.841 116.68 517.991 116.21C518.011 115.78 517.761 115.41 517.281 115.24C516.841 115.21 516.471 115.44 516.321 115.91C516.301 116.34 516.631 116.76 517.031 116.88Z" fill="#73737F"/>
<path d="M516.99 116.74C517.43 116.77 517.8 116.54 517.91 116.16C517.93 115.73 517.681 115.36 517.281 115.24C516.841 115.21 516.47 115.44 516.36 115.82C516.34 116.26 516.59 116.63 516.99 116.74Z" fill="#EDEDF4"/>
<g opacity="0.15">
<path opacity="0.15" d="M517.722 116.28C517.632 116.23 517.602 116.1 517.602 116.1C517.552 116.18 517.552 116.18 517.502 116.27C517.362 116.52 516.952 116.62 516.692 116.47C516.522 116.37 516.482 116.24 516.442 116.1L516.432 116.32L516.342 116.27C516.382 116.4 516.502 116.59 516.682 116.69C517.032 116.89 517.522 116.84 517.762 116.42C517.862 116.25 517.822 116.12 517.912 115.95C517.902 116.16 517.812 116.33 517.722 116.28Z" fill="#73737F"/>
</g>
<path d="M516.911 116.47C517.221 116.54 517.451 116.34 517.511 116.04C517.571 115.74 517.361 115.51 517.051 115.44C516.741 115.37 516.511 115.57 516.451 115.87C516.441 116.09 516.691 116.46 516.911 116.47Z" fill="white"/>
<path d="M516.96 116.39C517.27 116.46 517.5 116.26 517.56 115.96C517.62 115.66 517.41 115.43 517.1 115.36C516.79 115.29 516.56 115.49 516.5 115.79C516.53 116.14 516.74 116.37 516.96 116.39Z" fill="#57DCEA"/>
<path d="M516.96 116.39C517.27 116.46 517.5 116.26 517.56 115.96C517.62 115.66 517.41 115.43 517.1 115.36C516.79 115.29 516.56 115.49 516.5 115.79C516.53 116.14 516.74 116.37 516.96 116.39Z" fill="#BCBCCC"/>
<path d="M517.051 116.44C517.271 116.46 517.59 116.31 517.6 116.09C517.61 115.87 517.45 115.56 517.22 115.54C516.99 115.52 516.68 115.67 516.67 115.89C516.61 116.19 516.741 116.37 517.051 116.44Z" fill="#F2F2F2"/>
<path d="M517.01 116.31C517.23 116.33 517.41 116.21 517.42 115.99C517.43 115.77 517.3 115.59 517.08 115.57C516.86 115.55 516.68 115.67 516.67 115.89C516.66 116.11 516.79 116.29 517.01 116.31Z" fill="white"/>
<path opacity="0.54" d="M517.17 115.62C517.26 115.67 517.21 115.75 517.11 115.92C517.01 116.09 516.88 116.12 516.79 116.07C516.7 116.02 516.71 115.8 516.76 115.72C516.86 115.56 517.09 115.57 517.17 115.62Z" fill="white"/>
<path opacity="0.54" d="M517.231 116.33C517.141 116.28 517.191 116.2 517.281 116.25C517.331 116.17 517.331 116.17 517.421 116.22C517.511 116.27 517.461 116.35 517.411 116.44C517.371 116.29 517.321 116.38 517.231 116.33Z" fill="white"/>
<path opacity="0.15" d="M520.001 116.14C520.311 116.21 520.541 116.01 520.601 115.71C520.661 115.41 520.451 115.17 520.141 115.11C519.831 115.04 519.601 115.24 519.541 115.54C519.561 115.89 519.691 116.08 520.001 116.14Z" fill="#73737F"/>
<path d="M520 116.14C520.22 116.16 520.54 116.01 520.55 115.79C520.56 115.57 520.39 115.26 520.17 115.24C519.95 115.22 519.63 115.37 519.62 115.59C519.52 115.76 519.69 116.08 520 116.14Z" fill="#EDEDF4"/>
<g opacity="0.15">
<path opacity="0.15" d="M520.411 115.83C520.321 115.78 520.371 115.7 520.371 115.7C520.371 115.7 520.321 115.78 520.411 115.83C520.181 116.03 520.041 116.06 519.871 115.96C519.781 115.91 519.701 115.86 519.661 115.73C519.661 115.73 519.701 115.86 519.611 115.81C519.611 115.81 519.611 115.81 519.521 115.76C519.561 115.89 519.641 115.94 519.731 115.99C520.001 116.14 520.271 116.08 520.411 115.83C520.461 115.75 520.511 115.66 520.471 115.53C520.511 115.66 520.411 115.83 520.411 115.83Z" fill="#73737F"/>
</g>
<path opacity="0.15" d="M519.722 115.42C519.622 115.59 519.662 115.72 519.842 115.82C519.752 115.78 519.712 115.64 519.722 115.42C519.862 115.39 519.992 115.35 520.162 115.45C520.332 115.55 520.372 115.68 520.282 115.85C520.382 115.68 520.342 115.55 520.162 115.45C520.032 115.27 519.812 115.26 519.722 115.42Z" fill="#73737F"/>
<path opacity="0.15" d="M506.831 123.11L502.431 120.9C502.431 120.9 502.341 120.85 502.291 120.93C502.291 120.93 502.241 121.01 502.331 121.06L505.811 122.85C505.021 122.62 504.521 122.88 504.521 122.88L504.471 122.96L504.561 123.01C504.561 123.01 505.241 122.63 506.591 123.3L506.681 123.35C506.681 123.35 506.771 123.4 506.821 123.32C506.871 123.25 506.921 123.16 506.831 123.11Z" fill="#73737F"/>
<path d="M509.472 144.21L513.122 137.09C513.122 137.09 513.412 136.59 513.572 135.91C513.682 135.31 513.772 134.36 513.372 133.46C512.462 131.82 507.772 124.33 507.682 124.28C507.772 124.33 512.462 131.83 513.372 133.46C513.662 133.96 513.892 134.76 513.572 135.91C513.412 136.59 513.122 137.09 513.122 137.09L509.472 144.21Z" fill="#EDEDF4"/>
<path d="M499.711 119.22L499.851 119.19C499.941 119.24 499.991 119.16 500.031 119.07L500.291 118.22C500.341 118.14 500.251 118.09 500.171 118.04L500.081 117.99C499.991 117.94 499.861 117.97 499.811 118.06L499.461 118.86C499.541 119.12 499.581 119.25 499.711 119.22Z" fill="#EDEDF4"/>
<path d="M508.592 104.44L508.632 104.57C508.722 104.62 508.672 104.7 508.622 104.79L508.062 105.36C508.012 105.44 507.932 105.39 507.842 105.34L507.752 105.29C507.662 105.24 507.632 105.11 507.672 105.02L508.282 104.37C508.332 104.29 508.552 104.3 508.592 104.44Z" fill="#EDEDF4"/>
<path d="M529.102 118.4L529.782 119.02L527.052 123.56L526.322 123.03L525.452 124.53L524.582 126.03L525.412 126.4L522.672 130.94L521.792 130.66L521.602 130.99L522.522 131.41L523.132 131.76C523.222 131.81 523.262 131.73 523.262 131.73L526.862 125.69L527.002 125.44L530.652 119.32C530.702 119.24 530.612 119.19 530.612 119.19L530.002 118.84L529.232 118.17L529.102 118.4Z" fill="#EDEDF4"/>
<path d="M526.88 123.46L526.41 123.07L526.88 123.46Z" fill="#D5D5E0"/>
<path d="M529.891 118.63L530.501 118.98C530.591 119.03 530.541 119.11 530.541 119.11L526.941 125.15L526.801 125.4L523.201 131.44C523.151 131.52 523.061 131.47 523.061 131.47L522.451 131.12L521.711 130.8L522.631 131.22L523.241 131.57C523.331 131.62 523.371 131.54 523.371 131.54L526.971 125.5L527.111 125.25L530.661 119.29C530.711 119.21 530.621 119.16 530.621 119.16L530.011 118.81L529.241 118.14L529.891 118.63Z" fill="#D5D5E0"/>
<path d="M525.242 126.29L524.582 126.02L525.242 126.29Z" fill="#D5D5E0"/>
<path d="M527.092 123.69L529.822 119.15L529.142 118.53L529.332 118.2L529.242 118.15L529.052 118.48L529.732 119.1L527.092 123.69Z" fill="white"/>
<path d="M521.891 130.7L522.771 130.98L525.501 126.44L525.411 126.39L522.671 130.93L521.891 130.7L521.611 130.98L521.701 131.03L521.891 130.7Z" fill="white"/>
<path d="M525.542 124.57L526.412 123.07L526.322 123.02L525.542 124.57L524.592 126.02L524.682 126.07L525.542 124.57Z" fill="white"/>
<path d="M553.931 137.52C553.841 137.47 553.931 137.52 553.931 137.52C553.841 137.47 553.891 137.39 553.371 137.09C553.111 136.94 552.801 136.87 552.801 136.87C552.801 136.87 553.061 137.02 553.371 137.09C553.941 137.31 553.981 137.44 553.931 137.52Z" fill="#8F8F99"/>
<path opacity="0.19" d="M528.401 83.74L518.271 103.7C518.221 103.78 518.091 103.82 518.001 103.77L497.931 91.84C497.841 91.79 497.811 91.66 497.851 91.57L509.891 72.72C509.941 72.64 510.071 72.6 510.161 72.65L528.241 83.42C528.411 83.52 528.451 83.65 528.401 83.74Z" fill="white"/>
<path opacity="0.27" d="M510.421 72.79L498.191 91.98L497.931 91.83C497.841 91.78 497.811 91.65 497.851 91.56L509.891 72.71C509.941 72.63 510.071 72.59 510.161 72.64L510.421 72.79Z" fill="white"/>
<path opacity="0.05" d="M526.351 74.8701L523.791 79.5101C523.741 79.5901 523.611 79.6301 523.431 79.5301L510.691 71.9501C510.601 71.9001 510.481 71.7201 510.531 71.6301L513.451 66.9701C513.501 66.8901 513.631 66.8501 513.811 66.9501L525.951 74.1801C526.361 74.4401 526.441 74.7001 526.351 74.8701Z" fill="white"/>
<path opacity="0.05" d="M527.661 84.4201L523.961 91.6301L505.881 80.8601L510.281 73.8401L527.501 84.1001C527.671 84.2001 527.711 84.3401 527.661 84.4201Z" fill="white"/>
<path opacity="0.05" d="M522.841 83.75L520.811 87.47C520.471 88.05 519.711 88.17 519.101 87.82L508.521 81.49C507.911 81.14 507.681 80.34 508.021 79.75L510.411 76.01C510.701 75.51 511.511 75.31 512.121 75.66L522.221 81.61C522.821 82.18 523.141 83.03 522.841 83.75Z" fill="white"/>
<path opacity="0.29" d="M514.061 68.11L511.821 71.6C511.771 71.68 511.771 71.68 511.681 71.63L511.591 71.58C511.501 71.53 511.501 71.53 511.551 71.45L513.791 67.96C513.841 67.88 513.931 67.93 513.931 67.93L514.021 67.98C514.101 68.02 514.061 68.11 514.061 68.11Z" fill="white"/>
<g opacity="0.46">
<path opacity="0.29" d="M514.12 69.5901L512.59 72.0401C512.59 72.0401 512.54 72.1201 512.45 72.0701C512.36 72.0201 512.45 72.0701 512.45 72.0701L513.98 69.6201C513.95 69.4901 514.04 69.5401 514.12 69.5901Z" fill="white"/>
<path opacity="0.29" d="M514.23 70.2101L512.94 72.2501C512.94 72.2501 512.89 72.3301 512.8 72.2801C512.71 72.2301 512.8 72.2801 512.8 72.2801L514.09 70.2401C514.06 70.1101 514.14 70.1601 514.23 70.2101Z" fill="white"/>
<path opacity="0.29" d="M515.11 69.49L513.24 72.53C513.24 72.53 513.19 72.61 513.1 72.56C513.1 72.56 513.01 72.51 513.06 72.43L514.93 69.39C515.02 69.44 515.02 69.44 515.11 69.49Z" fill="white"/>
<path opacity="0.29" d="M515.54 69.74L513.67 72.78C513.67 72.78 513.62 72.86 513.53 72.81C513.53 72.81 513.44 72.76 513.49 72.68L515.36 69.64C515.37 69.64 515.37 69.64 515.54 69.74C515.54 69.74 515.45 69.69 515.54 69.74Z" fill="white"/>
</g>
<path opacity="0.29" d="M523.731 84.82L521.641 88.84C521.591 88.92 521.591 88.92 521.501 88.87L521.411 88.82C521.321 88.77 521.371 88.69 521.371 88.69L523.461 84.67C523.511 84.59 523.511 84.59 523.591 84.64L523.681 84.69C523.781 84.73 523.731 84.82 523.731 84.82Z" fill="white"/>
<g opacity="0.46">
<path opacity="0.29" d="M523.791 86.5201L522.291 89.3201C522.291 89.3201 522.241 89.4001 522.151 89.3501C522.151 89.3501 522.061 89.3001 522.111 89.2201L523.611 86.4201C523.611 86.4201 523.661 86.3401 523.751 86.3901L523.791 86.5201C523.841 86.4401 523.841 86.4401 523.791 86.5201Z" fill="white"/>
<path opacity="0.29" d="M523.981 87.1901L522.721 89.5801C522.721 89.5801 522.671 89.6601 522.581 89.6101C522.581 89.6101 522.491 89.5601 522.541 89.4801L523.801 87.0901C523.801 87.0901 523.851 87.0101 523.941 87.0601L523.981 87.1901C523.981 87.1901 523.891 87.1401 523.981 87.1901Z" fill="white"/>
<path opacity="0.29" d="M524.91 86.3901L523.16 89.8301C523.16 89.8301 523.11 89.9101 523.02 89.8601C523.02 89.8601 522.93 89.8101 522.98 89.7301L524.73 86.2901C524.73 86.2901 524.78 86.2101 524.87 86.2601L524.91 86.3901C524.91 86.3901 524.87 86.2501 524.91 86.3901Z" fill="white"/>
<path opacity="0.29" d="M525.252 86.5902L523.502 90.0302C523.502 90.0302 523.452 90.1102 523.362 90.0602C523.362 90.0602 523.272 90.0102 523.322 89.9302L525.072 86.4902C525.082 86.4902 525.212 86.4502 525.252 86.5902C525.302 86.5002 525.252 86.5902 525.252 86.5902Z" fill="white"/>
</g>
<path opacity="0.05" d="M510.45 76.37L510.71 76.52C510.97 76.67 511.05 76.94 510.9 77.19L509.42 79.56C509.28 79.81 509.01 79.88 508.75 79.73L508.49 79.58L508.35 79.83C508.06 80.33 508.25 81 508.78 81.3L519.18 87.53C519.7 87.83 520.38 87.66 520.66 87.16L522.5 83.77C522.84 83.19 522.61 82.38 521.91 81.98L511.89 76.08C511.41 75.7 510.73 75.87 510.45 76.37Z" fill="white"/>
<g opacity="0.3">
<g opacity="0.3">
<path opacity="0.3" d="M513.1 76.78L509.93 82.07L513.1 76.78Z" fill="white"/>
</g>
<g opacity="0.3">
<path opacity="0.3" d="M521.72 81.88L518.73 87.27L521.72 81.88Z" fill="white"/>
</g>
<g opacity="0.3">
<path opacity="0.3" d="M519.91 87.62L508.59 80.97L519.91 87.62Z" fill="white"/>
</g>
<g opacity="0.3">
<path opacity="0.3" d="M520.589 86.45L509.359 79.85L520.589 86.45Z" fill="white"/>
</g>
<g opacity="0.3">
<path opacity="0.3" d="M521.259 85.28L510.119 78.73L521.259 85.28Z" fill="white"/>
</g>
<g opacity="0.3">
<path opacity="0.3" d="M521.849 84.0701L510.789 77.5701L521.849 84.0701Z" fill="white"/>
</g>
<g opacity="0.3">
<path opacity="0.3" d="M522.481 82.98L511.471 76.4L522.481 82.98Z" fill="white"/>
</g>
</g>
<path opacity="0.19" d="M515.611 139.97L506.021 158.79C505.971 158.87 505.841 158.91 505.751 158.86L490.371 152.64C490.281 152.59 490.201 152.54 490.241 152.46L495.981 132.08C496.031 132 496.211 131.88 496.301 131.93L515.441 139.65C515.541 139.71 515.571 139.84 515.611 139.97Z" fill="white"/>
<path opacity="0.27" d="M496.61 132L490.67 152.71L490.41 152.56C490.32 152.51 490.24 152.46 490.28 152.38L496.02 132C496.07 131.92 496.25 131.8 496.34 131.85L496.61 132Z" fill="white"/>
<path opacity="0.05" d="M493.852 148.43L492.602 152.6C492.502 152.77 492.372 152.8 492.152 152.78L491.892 152.63C491.722 152.53 491.592 152.35 491.642 152.26L492.892 148.09C492.992 147.92 493.172 147.81 493.342 147.91L493.602 148.06C493.732 148.02 493.862 148.21 493.852 148.43Z" fill="white"/>
<path opacity="0.05" d="M496.121 149.29L494.701 153.36C494.601 153.53 494.471 153.56 494.251 153.54L493.991 153.39C493.821 153.29 493.691 153.11 493.741 153.02L495.081 148.9C495.181 148.73 495.361 148.62 495.531 148.72L495.791 148.87C496.011 148.89 496.081 149.16 496.121 149.29Z" fill="white"/>
<path opacity="0.05" d="M498.262 150.2L496.752 154.22C496.652 154.39 496.522 154.42 496.302 154.4L496.042 154.25C495.872 154.15 495.742 153.97 495.792 153.88L497.212 149.81C497.312 149.64 497.492 149.53 497.662 149.63L497.922 149.78C498.232 149.85 498.362 150.03 498.262 150.2Z" fill="white"/>
<path opacity="0.05" d="M500.542 151.07L498.942 155.04C498.842 155.21 498.712 155.24 498.492 155.22L498.232 155.07C498.062 154.97 497.932 154.79 497.982 154.7L499.492 150.68C499.592 150.51 499.772 150.4 499.942 150.5L500.202 150.65C500.512 150.71 500.592 150.98 500.542 151.07Z" fill="white"/>
<path opacity="0.05" d="M502.762 152.02L501.082 155.94C500.982 156.11 500.852 156.14 500.632 156.12L500.372 155.97C500.202 155.87 500.072 155.69 500.172 155.52L501.772 151.55C501.872 151.38 502.052 151.27 502.222 151.37L502.482 151.52C502.732 151.67 502.862 151.85 502.762 152.02Z" fill="white"/>
<path opacity="0.05" d="M504.9 152.92L503.08 156.88C502.98 157.05 502.85 157.08 502.63 157.06L502.37 156.91C502.2 156.81 502.07 156.63 502.12 156.54L503.94 152.58C504.04 152.41 504.22 152.3 504.48 152.45L504.74 152.6C504.92 152.49 505 152.75 504.9 152.92Z" fill="white"/>
<path opacity="0.05" d="M507.182 153.79L505.272 157.69C505.172 157.86 505.042 157.89 504.822 157.87L504.562 157.72C504.392 157.62 504.262 157.44 504.312 157.35L506.222 153.45C506.322 153.28 506.592 153.22 506.762 153.32L507.022 153.47C507.152 153.44 507.272 153.62 507.182 153.79Z" fill="white"/>
<path opacity="0.05" d="M515.611 139.97L512.391 146.34L494.561 139.16L496.611 132L515.451 139.65C515.541 139.71 515.571 139.84 515.611 139.97Z" fill="white"/>
<path opacity="0.29" d="M493.44 148.52L492.34 152.23C492.29 152.31 492.29 152.31 492.21 152.26L492.12 152.21C492.03 152.16 492.03 152.16 492.08 152.08L493.18 148.37C493.23 148.29 493.23 148.29 493.32 148.34L493.41 148.39L493.44 148.52Z" fill="white"/>
<path opacity="0.29" d="M503.25 144.96L501.6 149.01C501.55 149.09 501.55 149.09 501.46 149.04L501.37 148.99C501.28 148.94 501.28 148.94 501.33 148.86L502.98 144.8C503.03 144.72 503.03 144.72 503.11 144.77L503.2 144.82C503.21 144.82 503.3 144.87 503.25 144.96Z" fill="white"/>
<path opacity="0.29" d="M497.3 133.62L495.84 138.56C495.79 138.64 495.79 138.64 495.7 138.59L495.61 138.54C495.52 138.49 495.52 138.49 495.49 138.36L496.95 133.42C497 133.34 497 133.34 497.09 133.39L497.18 133.44C497.26 133.49 497.35 133.54 497.3 133.62Z" fill="white"/>
<path opacity="0.29" d="M494.972 142.07L493.722 146.24C493.672 146.32 493.672 146.32 493.582 146.27L493.492 146.22C493.402 146.17 493.402 146.17 493.452 146.09L494.702 141.92C494.752 141.84 494.752 141.84 494.842 141.89L494.932 141.94C494.932 141.93 495.022 141.98 494.972 142.07Z" fill="white"/>
<path opacity="0.44" d="M496.23 146.91C496.52 146.41 496.19 145.78 495.58 145.42C494.97 145.07 494.26 145.1 493.97 145.6C493.68 146.1 494.01 146.73 494.62 147.09C495.23 147.44 495.94 147.41 496.23 146.91Z" fill="white"/>
<path opacity="0.19" d="M508.501 72.13L501.391 83.04C501.341 83.12 501.211 83.16 501.121 83.11L495.961 80.02C495.871 79.97 495.831 79.84 495.881 79.75L503.251 68.99C503.301 68.91 503.431 68.87 503.521 68.92L508.331 71.81C508.461 71.99 508.541 72.04 508.501 72.13Z" fill="white"/>
<path opacity="0.27" d="M503.73 69.1501L496.17 80.2501L495.91 80.1001C495.82 80.0501 495.78 79.9201 495.83 79.8301L503.2 69.0701C503.25 68.9901 503.38 68.9501 503.47 69.0001L503.73 69.1501Z" fill="white"/>
<path opacity="0.05" d="M504.881 71.3701L498.931 80.2801C498.881 80.3601 498.751 80.4001 498.571 80.3001L498.481 80.2501C498.391 80.2001 498.351 80.0701 498.401 79.9801L504.351 71.0701C504.401 70.9901 504.531 70.9501 504.621 71.0001L504.711 71.0501C504.941 71.0701 504.981 71.2101 504.881 71.3701Z" fill="white"/>
<path opacity="0.05" d="M506.521 72.54L504.611 75.4401C504.511 75.6101 504.241 75.67 503.981 75.52L503.811 75.42C503.641 75.32 503.561 75.05 503.661 74.89L505.571 71.99C505.671 71.82 505.941 71.76 506.111 71.86L506.281 71.96C506.541 72.11 506.671 72.29 506.521 72.54Z" fill="white"/>
<path opacity="0.29" d="M505.931 72.7601L504.591 74.8801C504.541 74.9601 504.451 74.9101 504.451 74.9101L504.361 74.8601C504.271 74.8101 504.271 74.8101 504.321 74.7301L505.741 72.6601C505.791 72.5801 505.881 72.6301 505.881 72.6301L505.971 72.6801C505.941 72.5401 505.981 72.6801 505.931 72.7601Z" fill="white"/>
<path opacity="0.29" d="M499.65 77.03L498.18 79.18C498.13 79.26 498.04 79.21 498.04 79.21L497.95 79.16C497.86 79.11 497.91 79.03 497.91 79.03L499.38 76.88C499.43 76.8 499.51 76.85 499.51 76.85L499.6 76.9C499.61 76.89 499.7 76.94 499.65 77.03Z" fill="white"/>
<path opacity="0.27" d="M503.411 73.53L498.931 80.29C498.881 80.37 498.751 80.41 498.571 80.31L498.481 80.26C498.391 80.21 498.351 80.08 498.401 79.99L502.961 73.28C503.011 73.2 503.141 73.16 503.321 73.26L503.411 73.31C503.421 73.31 503.461 73.44 503.411 73.53Z" fill="white"/>
<g opacity="0.46">
<path opacity="0.29" d="M501.94 77.68L500.13 80.42C500.13 80.42 500.08 80.5 500 80.45C500 80.45 499.91 80.4 499.96 80.32L501.77 77.58C501.77 77.58 501.82 77.5 501.91 77.55L501.94 77.68Z" fill="white"/>
<path opacity="0.29" d="M501.99 78.38L500.42 80.7C500.42 80.7 500.37 80.78 500.28 80.73C500.28 80.73 500.19 80.68 500.24 80.6L501.81 78.28C501.81 78.28 501.86 78.2 501.95 78.25L501.99 78.38C502.04 78.3 502.04 78.3 501.99 78.38Z" fill="white"/>
<path opacity="0.29" d="M503.05 77.55L500.9 80.87C500.9 80.87 500.85 80.95 500.77 80.9C500.77 80.9 500.68 80.85 500.73 80.77L502.88 77.45C502.88 77.45 502.93 77.37 503.02 77.42L503.05 77.55Z" fill="white"/>
<path opacity="0.29" d="M503.49 77.8L501.34 81.12C501.34 81.12 501.29 81.2 501.2 81.15C501.2 81.15 501.11 81.1 501.16 81.02L503.31 77.7C503.31 77.7 503.36 77.62 503.45 77.67L503.49 77.8Z" fill="white"/>
</g>
<path opacity="0.19" d="M494.961 125.04L489.531 144.48C489.471 144.78 489.201 144.85 488.891 144.78L474.511 138.03C474.341 137.93 474.211 137.75 474.221 137.53L477.701 117.07C477.761 116.77 478.081 116.62 478.341 116.77L494.761 124.59C494.901 124.56 494.971 124.83 494.961 125.04Z" fill="white"/>
<path opacity="0.27" d="M478.251 116.72C477.991 116.57 477.671 116.72 477.611 117.02L474.131 137.48C474.121 137.7 474.241 137.88 474.421 137.98L474.681 138.13L478.331 116.77L478.251 116.72Z" fill="white"/>
<path opacity="0.05" d="M475.652 137.47L481.672 140.28C481.762 140.33 481.892 140.3 481.852 140.16L483.702 131.55C483.752 131.47 483.662 131.42 483.572 131.37L477.302 128.41C477.212 128.36 477.082 128.39 477.122 128.53L475.582 137.21C475.472 137.37 475.562 137.42 475.652 137.47Z" fill="white"/>
<path opacity="0.05" d="M494.72 124.46L478.47 116.74L477.23 123.7L493.12 131.44L494.96 125.05C494.97 124.83 494.9 124.56 494.72 124.46Z" fill="white"/>
<path opacity="0.05" d="M479.14 117.79C479.05 117.74 478.92 117.77 478.96 117.91L478.01 123.37C477.96 123.45 478.05 123.5 478.14 123.55C478.23 123.6 478.36 123.57 478.32 123.43L479.27 117.97C479.31 117.89 479.22 117.84 479.14 117.79Z" fill="white"/>
<path d="M567.96 66.1C567.96 66.1 551.92 -1.11998 476.06 34.71C400.21 70.54 362.33 162.23 361.64 173.85C360.9 185.55 488.62 187.35 488.62 187.35L542.76 182.14L567.96 66.1Z" fill="url(#paint0_radial_2301_1361)"/>
<path d="M552.65 217.32C552.65 217.32 582.57 117.36 572.9 67.1701C571.92 62.0501 564.96 60.6901 562.32 65.0601L489.09 186.94L545.56 229.01L552.65 217.32Z" fill="#345763"/>
<path d="M558.791 12.4301C455.981 -46.9699 354.551 128.8 354.551 128.8L553.921 246.41C553.871 246.49 656.321 68.7601 558.791 12.4301Z" fill="url(#paint1_radial_2301_1361)"/>
<path opacity="0.1" d="M558.621 12.33C455.721 -47.12 354.291 128.65 354.291 128.65L553.661 246.26C553.611 246.34 656.151 68.66 558.621 12.33ZM550.721 239.33L361.711 127.82C361.711 127.82 457.891 -38.85 555.411 17.48C647.911 70.91 550.721 239.33 550.721 239.33Z" fill="url(#paint2_linear_2301_1361)"/>
<path opacity="0.1" d="M558.531 12.28C455.631 -47.17 354.201 128.59 354.201 128.59L553.571 246.2C553.531 246.29 656.061 68.61 558.531 12.28ZM550.631 239.28L361.621 127.76C361.621 127.76 395.081 69.78 442.601 33.73C460.941 19.19 477.681 21.85 480.761 33.75C484.241 40.54 446.171 75.05 444.661 99.32C443.021 123.62 505.231 118.85 529.291 92.6C553.351 66.35 552.431 38.67 529.821 34.74C508.901 31.11 536.061 7.09003 557.911 18.94C645.991 74.03 550.631 239.28 550.631 239.28Z" fill="url(#paint3_linear_2301_1361)"/>
<path opacity="0.21" d="M507.521 200.7L545.551 229.01L552.702 217.23C552.702 217.23 573.611 147.33 574.871 95.22C574.941 93.7 574.421 92.18 573.361 91.01C572.851 90.49 572.291 90.06 571.721 89.84C563.801 86.94 522.411 163.48 507.521 200.7Z" fill="#27272D"/>
<path opacity="0.11" d="M580.622 43.3701C569.412 44.3501 547.742 108.36 524.742 161.26C501.732 214.16 432.142 146.93 417.332 124.69C402.522 102.45 425.862 67.2101 425.862 67.2101L374.382 115.12C374.382 115.12 374.092 117.62 373.602 121.68L518.932 207.41C528.292 203.03 539.942 201.08 552.072 207.31C581.122 222.31 591.822 42.3901 580.622 43.3701Z" fill="#27272D"/>
<path d="M274.301 258.27L359.231 115.22C365.451 104.66 412.321 109.13 462.531 134.21L463.891 139.28L491.951 155.96L496.481 154.29C542.851 186.43 569.371 225.77 563.061 236.29L562.971 236.24L478.041 379.29C467.871 396.49 384.051 537.21 384.051 537.21L180.361 416.1C180.311 416.19 264.131 275.47 274.301 258.27Z" fill="#F5F5F7"/>
<path d="M347.031 367.72L347.351 367.79C254.831 312.8 285.891 264.13 285.891 264.13L377.541 109.85C397.001 109.91 429.081 117.38 462.531 134.2L463.891 139.27L491.951 155.95L496.481 154.28C527.481 175.76 549.661 200.58 559.011 217.76L467.361 372.04C467.311 372.13 439.461 422.66 347.031 367.72Z" fill="white"/>
<path d="M510.921 324.17C514.721 317.8 507.661 305.51 491.031 289.61C474.411 273.71 450.321 256.1 423.061 239.88C395.891 223.71 368.791 210.92 346.881 203.97C324.971 197.02 310.781 196.68 307.041 202.96L307.221 203.06C314.921 190.14 366.831 206.69 422.871 240C450.041 256.17 474.221 273.82 490.751 289.68C498.781 297.41 504.681 304.27 508.071 310.15C511.631 316.13 512.511 320.8 510.561 323.96L510.921 324.17Z" fill="#C9C9D6"/>
<path d="M385.671 220.42L385.811 220.38L442.311 125.14C442.361 125.05 442.271 125 442.271 125C442.181 124.95 442.131 125.04 442.131 125.04L385.631 220.28C385.631 220.28 385.581 220.37 385.671 220.42Z" fill="#C9C9D6"/>
<path d="M463.84 139.36L491.9 156.04L496.43 154.37C496.52 154.42 496.7 154.52 496.79 154.58L390.97 332.79C385.42 342.2 373.29 345.3 363.89 339.75C354.49 334.2 351.39 322.06 356.93 312.66L462.59 134.72L463.84 139.36Z" fill="#D5D5E0"/>
<path d="M393.141 321.2C393.141 321.2 395.721 315.91 397.951 316.37C400.181 316.83 393.421 327.31 389.781 333.42C386.141 339.52 374.441 345.38 363.881 339.16L358.871 327.23L393.141 321.2Z" fill="#E6E6EF"/>
<path d="M366.06 305.08C366.06 305.08 369.44 300.25 368.02 298.6C366.6 296.95 360.63 307.9 356.99 314C353.35 320.1 353.76 333.19 364.32 339.41L377.22 338.06L366.06 305.08Z" fill="#E6E6EF"/>
<path d="M373.751 323.08C387.471 331.24 396.981 315.8 396.981 315.8L491.961 155.95L463.811 139.21L370.721 296.81C370.711 296.82 356.961 313.03 373.751 323.08Z" fill="#E6E6EF"/>
<path d="M365.69 336.63C357.98 332.06 355.96 321.14 361.2 312.27L453.26 157.28C457.83 149.57 467.81 146.89 475.52 151.46C475.61 151.51 475.61 151.51 475.7 151.56C475.79 151.61 475.79 151.61 475.88 151.66C483.59 156.23 486.03 166.21 481.46 173.92L389.4 328.91C383.99 337.68 373.4 341.2 365.69 336.63Z" fill="url(#paint4_radial_2301_1361)"/>
<path d="M474.761 152.57C474.851 152.62 474.851 152.62 474.941 152.67C475.031 152.72 475.031 152.72 475.121 152.77C482.741 157.29 485.181 167.27 480.671 174.89L389.091 328.85C383.851 337.72 373.371 341.06 365.751 336.54C373.371 341.06 383.771 337.67 388.951 328.89L479.881 175.86C484.401 168.24 481.991 158.4 474.371 153.88C474.281 153.83 474.281 153.83 474.191 153.78C474.101 153.73 474.101 153.73 474.011 153.68C466.481 149.21 456.691 151.76 452.081 159.33L361.151 312.36C355.961 321.14 357.951 331.92 365.561 336.44C357.851 331.87 355.921 321 361.111 312.22L452.601 158.21C457.211 150.64 467.141 148.05 474.761 152.57Z" fill="#04B2C4"/>
<path opacity="0.4" d="M369.241 330.47C364.481 327.6 363.311 320.98 366.451 315.53L457.171 162.86C460.041 158.09 466.091 156.47 470.761 159.29L470.851 159.34L470.941 159.39C475.611 162.21 477.091 168.3 474.371 173.03L383.741 325.75C380.451 331.24 374.011 333.34 369.241 330.47Z" fill="url(#paint5_radial_2301_1361)"/>
<path opacity="0.44" d="M474.76 152.57L366.23 335.28" stroke="#A9FBFF" stroke-width="0.2285" stroke-miterlimit="10"/>
<path opacity="0.44" d="M390.21 326.29L362.59 309.86" stroke="#A9FBFF" stroke-width="0.2285" stroke-miterlimit="10"/>
<path opacity="0.44" d="M395.341 317.59L367.721 301.16" stroke="#A9FBFF" stroke-width="0.2285" stroke-miterlimit="10"/>
<path opacity="0.44" d="M400.561 308.95L372.951 292.52" stroke="#A9FBFF" stroke-width="0.2285" stroke-miterlimit="10"/>
<path opacity="0.44" d="M405.702 300.26L378.082 283.83" stroke="#A9FBFF" stroke-width="0.2285" stroke-miterlimit="10"/>
<path opacity="0.44" d="M410.891 291.48L383.221 275.14" stroke="#A9FBFF" stroke-width="0.2285" stroke-miterlimit="10"/>
<path opacity="0.44" d="M416.02 282.79L388.4 266.36" stroke="#A9FBFF" stroke-width="0.2285" stroke-miterlimit="10"/>
<path opacity="0.44" d="M421.161 274.1L393.541 257.67" stroke="#A9FBFF" stroke-width="0.2285" stroke-miterlimit="10"/>
<path opacity="0.44" d="M426.382 265.46L398.762 249.03" stroke="#A9FBFF" stroke-width="0.2285" stroke-miterlimit="10"/>
<path opacity="0.44" d="M431.511 256.77L403.891 240.34" stroke="#A9FBFF" stroke-width="0.2285" stroke-miterlimit="10"/>
<path opacity="0.44" d="M436.702 247.99L409.082 231.56" stroke="#A9FBFF" stroke-width="0.2285" stroke-miterlimit="10"/>
<path opacity="0.44" d="M441.831 239.3L414.211 222.87" stroke="#A9FBFF" stroke-width="0.2285" stroke-miterlimit="10"/>
<path opacity="0.44" d="M447.061 230.66L419.441 214.23" stroke="#A9FBFF" stroke-width="0.2285" stroke-miterlimit="10"/>
<path opacity="0.44" d="M452.19 221.97L424.57 205.54" stroke="#A9FBFF" stroke-width="0.2285" stroke-miterlimit="10"/>
<path opacity="0.44" d="M457.382 213.19L429.762 196.76" stroke="#A9FBFF" stroke-width="0.2285" stroke-miterlimit="10"/>
<path opacity="0.44" d="M462.511 204.49L434.891 188.06" stroke="#A9FBFF" stroke-width="0.2285" stroke-miterlimit="10"/>
<path opacity="0.44" d="M467.651 195.8L440.031 179.37" stroke="#A9FBFF" stroke-width="0.2285" stroke-miterlimit="10"/>
<path opacity="0.44" d="M472.87 187.16L445.25 170.73" stroke="#A9FBFF" stroke-width="0.2285" stroke-miterlimit="10"/>
<path opacity="0.44" d="M478.061 178.38L450.441 161.95" stroke="#A9FBFF" stroke-width="0.2285" stroke-miterlimit="10"/>
<path opacity="0.44" d="M483.192 169.69L455.582 153.26" stroke="#A9FBFF" stroke-width="0.2285" stroke-miterlimit="10"/>
<path opacity="0.44" d="M385.02 335.07L357.4 318.64" stroke="#A9FBFF" stroke-width="0.2285" stroke-miterlimit="10"/>
<path opacity="0.44" d="M478.061 178.38L450.441 161.95" stroke="#A9FBFF" stroke-width="0.2285" stroke-miterlimit="10"/>
<path d="M471.081 190.89L448.651 164.85L439.461 180.36L461.011 207.08L471.081 190.89Z" fill="url(#paint6_radial_2301_1361)"/>
<path d="M403.25 304.92L381.18 279.09L372 294.59L393.11 321.06L403.25 304.92Z" fill="url(#paint7_radial_2301_1361)"/>
<path d="M456.511 215.3L434.081 189.26L432.281 192.38L453.831 219.1L456.511 215.3Z" fill="url(#paint8_radial_2301_1361)"/>
<path d="M365.782 336.68C365.692 336.63 365.692 336.63 365.602 336.58C365.512 336.53 365.512 336.53 365.422 336.48C357.712 331.91 355.272 321.93 359.842 314.22L451.902 159.23C456.982 150.63 467.112 147.08 474.762 151.14C467.332 147.32 457.532 150.71 452.612 159.04L360.762 313.67C356.302 321.2 358.672 330.9 366.112 335.31C366.202 335.36 366.202 335.36 366.292 335.41C366.382 335.46 366.382 335.46 366.472 335.51C373.912 339.93 383.562 337.41 388.032 329.88L479.882 175.25C484.812 166.91 483.122 156.66 476.202 151.95C483.382 156.81 485.062 167.3 479.982 175.9L387.902 330.9C383.472 338.57 373.492 341.25 365.782 336.68Z" fill="#E6E6EF"/>
<path d="M394.31 319.38L480.27 174.55C484.73 167.02 482.36 157.32 474.92 152.91C474.83 152.86 474.83 152.86 474.74 152.81C474.65 152.76 474.65 152.76 474.56 152.71C467.12 148.29 457.47 150.81 453 158.34L367.81 301.83C367.77 301.69 368.42 300.16 368.33 300.11L453.21 157.15C457.78 149.44 467.76 146.76 475.47 151.33C475.56 151.38 475.56 151.38 475.65 151.43C475.74 151.48 475.74 151.48 475.83 151.53C483.54 156.1 485.98 166.08 481.41 173.79L396.34 317.1C396.02 317.04 394.4 319.43 394.31 319.38Z" fill="#D5D5E0"/>
<path d="M405.76 230.12L405.48 230.19L407.31 235.05L407.59 234.97L405.76 230.12Z" fill="#C9C9D6"/>
<path d="M363.23 336.16L367.28 338.62L368.21 337.01L364.16 334.55L363.23 336.16Z" fill="#E6E6EF"/>
<path d="M385.251 225.88C388.171 226.38 391.021 224.33 391.431 221.36C391.931 218.44 389.881 215.59 386.911 215.18C383.991 214.68 381.141 216.73 380.731 219.7C380.321 222.68 382.331 225.39 385.251 225.88Z" fill="#F5F5F7"/>
<path d="M384.401 215.4C383.681 215.82 383.001 216.38 382.541 217.18C381.201 219.5 381.901 222.4 384.221 223.74C386.541 225.08 389.441 224.38 390.781 222.06C391.241 221.26 391.531 220.35 391.441 219.47C391.691 220.69 391.431 221.96 390.761 223.12C389.271 225.71 385.941 226.52 383.361 225.03C380.781 223.54 379.961 220.21 381.451 217.62C382.161 216.61 383.231 215.79 384.401 215.4Z" fill="#D9D9E2"/>
<path d="M385.941 223.66C388.001 224.02 389.881 222.61 390.231 220.55C390.581 218.49 389.171 216.61 387.121 216.26C385.071 215.91 383.181 217.32 382.831 219.37C382.531 221.34 383.881 223.31 385.941 223.66Z" fill="white"/>
<path d="M385.95 223.43C387.92 223.73 389.75 222.41 390.05 220.45C390.35 218.48 389.03 216.65 387.07 216.35C385.11 216.05 383.27 217.37 382.97 219.33C382.67 221.3 383.99 223.13 385.95 223.43Z" fill="#57DCEA"/>
<path d="M385.95 223.43C387.92 223.73 389.75 222.41 390.05 220.45C390.35 218.48 389.03 216.65 387.07 216.35C385.11 216.05 383.27 217.37 382.97 219.33C382.67 221.3 383.99 223.13 385.95 223.43Z" fill="#C8C8CE"/>
<path d="M385.861 223.38C387.601 223.67 389.241 222.48 389.531 220.74C389.821 219 388.631 217.36 386.891 217.07C385.151 216.78 383.511 217.97 383.221 219.71C382.931 221.45 384.131 223.09 385.861 223.38Z" fill="#D9D9DD"/>
<path d="M386.151 222.48C387.571 222.7 388.821 221.76 389.131 220.4C389.351 218.98 388.411 217.73 387.051 217.41C385.631 217.19 384.381 218.13 384.071 219.49C383.751 220.86 384.731 222.25 386.151 222.48Z" fill="#F2F2F2"/>
<path d="M384.88 218.29C384.56 219.05 385.36 219.52 386.3 219.94C387.38 220.33 388.2 220.56 388.57 219.71C388.89 218.95 388.31 217.89 387.32 217.56C386.24 217.17 385.2 217.53 384.88 218.29Z" fill="white"/>
<path d="M386.362 222.72C386.482 222.31 386.122 222.1 385.622 221.94C385.122 221.77 384.722 221.65 384.602 222.06C384.482 222.47 384.742 222.85 385.182 223.11C385.832 223.24 386.252 223.13 386.362 222.72Z" fill="white"/>
<path d="M439.931 250.21L434.891 251.11L434.881 251.34L439.921 250.44L439.931 250.21Z" fill="#C9C9D6"/>
<path d="M372.811 347.16C391.261 350.21 408.631 337.63 411.671 319.17C414.711 300.71 402.151 283.34 383.691 280.29C365.231 277.24 347.871 289.82 344.831 308.28C341.791 326.75 354.351 344.12 372.811 347.16Z" fill="#F5F5F7"/>
<path d="M374.281 344.21C392.011 347.07 408.691 335.06 411.501 317.41C414.361 299.68 402.361 282.99 384.721 280.17C366.991 277.31 350.311 289.32 347.501 306.97C344.541 324.65 356.551 341.34 374.281 344.21Z" fill="white"/>
<path d="M375.21 339.51C390.28 342.03 404.42 331.76 406.93 316.68C409.45 301.6 399.18 287.46 384.11 284.94C369.04 282.42 354.91 292.69 352.38 307.77C349.86 322.85 360.13 336.99 375.21 339.51Z" fill="#E6E6EF"/>
<path d="M374.72 339.11C388.43 341.32 401.39 332.04 403.65 318.23C405.86 304.52 396.58 291.55 382.78 289.28C369.07 287.07 356.11 296.35 353.85 310.16C351.65 323.88 360.93 336.85 374.72 339.11Z" fill="url(#paint9_radial_2301_1361)"/>
<path d="M374.121 338.29C387.051 340.4 399.301 331.54 401.411 318.61C403.521 305.68 394.661 293.42 381.741 291.31C368.811 289.2 356.561 298.06 354.451 310.99C352.431 323.97 361.201 336.17 374.121 338.29Z" fill="url(#paint10_radial_2301_1361)"/>
<path d="M375.551 333.76C386.331 335.47 396.461 328.23 398.161 317.44C399.871 306.65 392.631 296.52 381.851 294.82C371.071 293.11 360.941 300.35 359.241 311.14C357.491 321.78 364.821 331.96 375.551 333.76Z" fill="url(#paint11_radial_2301_1361)"/>
<path d="M367.84 302.42L369.64 310.84L361.23 312.64L363.36 322.55L374.62 320.13L377.04 331.4L386.95 329.27L385.15 320.85L393.56 319.05L388.97 297.96L367.84 302.42ZM385.12 328.1L378.2 329.58L376.11 319.81L375.79 318.31L374.29 318.64L364.52 320.73L363.04 313.81L381.17 310.01L385.12 328.1ZM391.67 317.97L384.75 319.45L382.66 309.68L382.33 308.18L380.84 308.51L371.07 310.6L369.59 303.68L387.72 299.88L391.67 317.97Z" fill="white"/>
<path d="M398.621 316.04C394.541 319.4 386.301 316.78 380.191 310.27C374.081 303.76 372.481 295.82 376.501 292.56C380.581 289.21 388.821 291.82 394.931 298.33C401.101 304.74 402.691 312.68 398.621 316.04Z" fill="url(#paint12_radial_2301_1361)"/>
<path d="M371.67 332.23C369.25 334.16 364.4 332.67 360.8 328.81C357.2 324.95 356.24 320.23 358.66 318.3C361.08 316.37 365.93 317.86 369.53 321.72C373.1 325.44 374.15 330.21 371.67 332.23Z" fill="url(#paint13_radial_2301_1361)"/>
<path d="M401.701 410C405.671 413.01 408.801 417.07 410.821 421.81C415.561 432.76 419.791 464.58 407.321 485.57C390.951 513.11 385.061 502.09 385.061 502.09L342.831 476.99C342.831 476.99 332.391 471.79 353.131 441.42C371.541 414.47 385.551 397.82 401.701 410Z" fill="white"/>
<path d="M283.67 339.69C279.13 337.66 274.01 336.85 269.01 337.29C257.14 338.28 227.24 349.92 214.82 370.82C198.45 398.36 211.01 398.24 211.01 398.24L253.24 423.34C253.24 423.34 262.8 430.05 279.49 397.23C294.04 368.28 301.99 348.13 283.67 339.69Z" fill="white"/>
<path d="M310.061 527.18L337.921 480.35L251.511 429L224.541 476.35L310.061 527.18Z" fill="#C9C9D6"/>
<g opacity="0.21">
<path opacity="0.21" d="M305.131 524.2L332.981 477.37L256.411 431.83L229.361 479.12L305.131 524.2Z" fill="#27272D"/>
</g>
<g opacity="0.21">
<path opacity="0.21" d="M295.371 518.45L323.231 471.62L266.121 437.68L238.891 484.87L295.371 518.45Z" fill="#27272D"/>
</g>
<path d="M311.111 525.16C316.551 515.93 301.771 497.05 278.171 482.94C254.431 468.87 230.821 464.87 225.371 474.09C219.931 483.32 234.711 502.2 258.311 516.31C282.061 530.39 305.661 534.39 311.111 525.16Z" fill="#AEAEBA"/>
<path d="M392.491 532.68C400.081 519.94 387.001 498.11 363.311 483.94C339.571 469.87 314.261 468.81 306.671 481.55C299.081 494.29 312.161 516.12 335.851 530.28C359.541 544.45 384.991 545.47 392.491 532.68Z" fill="#AEAEBA"/>
<path d="M391.4 530.86C398.74 518.56 386.11 497.59 363.4 484C340.55 470.44 316.16 469.44 308.82 481.74C301.49 494.04 314.11 515.01 336.82 528.6C359.68 542.15 384.07 543.16 391.4 530.86Z" fill="#747480"/>
<path d="M386.851 524.54C392.811 514.42 381.951 496.97 362.581 485.42C343.211 473.87 322.611 472.68 316.651 482.8C310.691 492.92 321.551 510.37 340.921 521.92C360.291 533.47 380.891 534.66 386.851 524.54Z" fill="#5BD9E5"/>
<path d="M266.081 457.52C273.671 444.78 260.591 422.94 236.901 408.78C213.161 394.71 187.851 393.65 180.261 406.39C172.671 419.13 185.751 440.97 209.441 455.13C233.131 469.3 258.491 470.26 266.081 457.52Z" fill="#AEAEBA"/>
<path d="M264.992 455.7C272.322 443.4 259.702 422.43 236.992 408.83C214.142 395.27 189.752 394.27 182.412 406.57C175.072 418.87 187.702 439.84 210.412 453.44C233.322 466.91 257.662 468 264.992 455.7Z" fill="#747480"/>
<path d="M260.441 449.38C266.401 439.26 255.541 421.81 236.171 410.26C216.801 398.71 196.201 397.52 190.241 407.64C184.281 417.76 195.141 435.21 214.511 446.76C233.791 458.26 254.391 459.45 260.441 449.38Z" fill="#5BD9E5"/>
<path d="M262.32 412.53L282.54 378.53C297.22 353.71 327.79 344 351.22 357.18C351.84 357.54 352.47 357.9 353.09 358.26L352.29 357.8C352.91 358.16 353.54 358.52 354.11 358.97C376.87 373.31 382.91 404.87 368.19 429.55L347.98 463.55C347.88 463.49 263.51 410.48 262.32 412.53Z" fill="#F5F5F7"/>
<path d="M270.301 417.25L291.231 382C306.521 356.33 334.121 343.73 353.321 354.35C353.851 354.66 354.301 354.92 354.841 355.23L354.131 354.82C354.671 355.13 355.111 355.39 355.601 355.78C373.991 367.59 376.281 397.82 360.941 423.58L340.001 458.82C339.961 458.68 271.531 415.11 270.301 417.25Z" fill="white"/>
<path d="M347.85 463.35C355.44 450.61 342.36 428.77 318.67 414.61C294.93 400.54 269.62 399.48 262.03 412.22C254.44 424.96 267.52 446.79 291.21 460.96C314.89 475.13 340.2 476.19 347.85 463.35Z" fill="#AEAEBA"/>
<path d="M346.671 461.48C354.011 449.18 341.471 428.26 318.621 414.7C295.861 401.2 271.471 400.19 264.191 412.4C256.861 424.7 269.391 445.62 292.241 459.18C314.991 472.69 339.471 473.74 346.671 461.48Z" fill="#747480"/>
<path d="M342.411 454.86C348.471 444.56 337.721 426.93 318.341 415.39C298.971 403.84 278.271 402.83 272.211 413.13C266.151 423.43 276.901 441.06 296.281 452.6C315.561 464.09 336.251 465.1 342.411 454.86Z" fill="#5BD9E5"/>
<g opacity="0.5">
<path opacity="0.5" d="M276.491 458.65C285.221 443.94 269.351 418.48 241.111 401.7C212.871 384.91 182.941 383.21 174.221 397.91C165.491 412.62 181.361 438.08 209.601 454.86C237.831 471.65 267.761 473.36 276.491 458.65Z" fill="#5BD9E5"/>
</g>
<g opacity="0.5">
<path opacity="0.5" d="M355.292 466.94C364.022 452.23 348.152 426.77 319.912 409.99C291.672 393.2 261.742 391.5 253.022 406.2C244.302 420.91 260.162 446.37 288.402 463.15C316.642 479.94 346.562 481.65 355.292 466.94Z" fill="#5BD9E5"/>
</g>
<g opacity="0.5">
<path opacity="0.5" d="M400.472 534.31C409.192 519.6 393.332 494.14 365.092 477.36C336.852 460.57 306.922 458.87 298.202 473.57C289.482 488.28 305.342 513.74 333.582 530.52C361.822 547.31 391.742 549.02 400.472 534.31Z" fill="#5BD9E5"/>
</g>
<path d="M310.441 526.32C315.521 517.72 300.431 499.37 276.741 485.21C253.001 471.14 229.701 466.6 224.611 475.2C219.531 483.8 234.621 502.15 258.311 516.31C282.061 530.39 305.361 534.92 310.441 526.32Z" fill="#AEAEBA"/>
<path d="M308.851 524.33C313.681 516.17 299.361 498.75 276.831 485.26C254.301 471.77 232.081 467.62 227.251 475.77C222.421 483.93 236.741 501.36 259.271 514.85C281.771 528.2 304.031 532.49 308.851 524.33Z" fill="#747480"/>
<path d="M304.491 507.78C305.611 509.14 306.341 510.75 306.651 512.48C306.961 514.21 306.691 515.71 305.971 516.96C301.811 523.96 282.751 520.32 263.291 508.72C243.831 497.12 231.531 482.17 235.691 475.17C236.411 473.92 237.671 472.98 239.321 472.39C240.971 471.8 242.821 471.68 244.511 472.06C253.901 473.92 265.481 478.58 277.111 485.42C288.851 492.44 298.381 500.44 304.491 507.78Z" fill="white"/>
<path d="M187.901 749.58C194.951 743.04 201.581 735.16 207.931 725.48C241.191 674.67 215.171 627.47 240.451 612.65C264.421 598.6 288.901 637.46 254.771 649.04C248.231 651.28 242.271 655.17 237.871 660.5C230.391 669.86 222.521 686.54 235.921 707.84C261.741 749.12 209.221 775.9 199.831 769.05C199.831 769.05 233.931 793.34 253.581 760.05C268.981 733.93 235.321 710.77 244.821 691.09C254.241 671.36 278.221 686.64 270.231 703.91C270.231 703.91 296.881 705.3 308.021 654.73C319.211 604.08 301.901 587.08 324.931 564.6C343.181 546.81 366.181 587.88 333.721 590.68C333.721 590.68 347.111 605.2 366.181 587.88C389.481 566.65 389.721 518.1 359.851 496.15C359.851 496.15 341.591 478.71 326.161 480.63C326.161 480.63 340.341 441.66 286.641 426.51C286.641 426.51 271.371 420.75 253.931 433.55C253.931 433.55 251.411 421.05 218.251 415.79C185.091 410.53 151.441 454.44 154.011 478.03C154.011 478.03 166.181 465.47 176.211 475.76C186.571 486.23 165.611 517.45 128.191 512.36C84.391 506.21 63.821 539.19 74.591 562.03C80.871 575.4 67.281 606.16 33.601 601.6C33.601 601.6 64.881 621.31 82.321 602.83C97.001 587.24 72.671 570.67 84.461 560.08C96.301 549.41 121.271 555.41 109.621 577.13C97.871 598.78 52.531 640.2 49.091 683.3C49.091 683.3 67.661 642.6 104.011 644.23C140.441 645.91 133.611 694.7 93.471 691.86C102.971 699.65 105.971 724.02 72.011 732.64C71.231 732.85 70.501 732.97 69.651 733.13C42.201 738.83 16.461 792.89 85.231 845.41C120.811 872.64 88.721 910.23 41.801 902.28C8.03102 896.56 -12.109 921.03 8.01102 942.83C-2.18898 924.68 13.151 905.31 44.581 920.96C73.921 935.5 103.101 930.8 113.381 914.31C136.711 876.91 82.651 856.51 92.481 824.89C102.311 793.26 144.441 798.34 157.341 746.6C170.331 695.12 210.351 726.77 187.901 749.58Z" fill="url(#paint14_linear_2301_1361)" fill-opacity="0.5"/>
<path opacity="0.2" d="M188.031 748.63C195.091 742.09 201.711 734.21 208.071 724.52C241.341 673.69 215.301 626.47 240.601 611.64C264.581 597.58 289.081 636.47 254.931 648.05C248.391 650.29 242.421 654.18 238.031 659.52C230.551 668.88 222.671 685.56 236.081 706.88C261.921 748.18 209.381 774.96 199.981 768.11C199.981 768.11 234.101 792.42 253.751 759.11C269.151 732.98 235.481 709.81 244.981 690.12C254.401 670.39 278.401 685.67 270.401 702.95C270.401 702.95 297.061 704.34 308.201 653.75C319.391 603.08 302.071 586.07 325.111 563.59C343.371 545.79 366.381 586.88 333.911 589.68C333.911 589.68 347.301 604.2 366.381 586.88C389.681 565.65 389.921 517.08 360.031 495.11C360.031 495.11 341.761 477.66 326.321 479.58C326.321 479.58 340.501 440.6 286.771 425.43C286.771 425.43 271.491 419.67 254.041 432.47C254.041 432.47 251.521 419.96 218.341 414.7C185.161 409.43 151.501 453.36 154.071 476.96C154.071 476.96 166.241 464.4 176.281 474.69C186.651 485.17 165.671 516.39 128.241 511.3C84.421 505.14 63.851 538.13 74.621 560.99C80.911 574.36 67.301 605.14 33.621 600.57C33.621 600.57 64.921 620.29 82.371 601.8C97.061 586.21 72.711 569.62 84.511 559.03C96.361 548.36 121.341 554.37 109.681 576.09C97.941 597.76 52.581 639.2 49.151 682.32C49.151 682.32 67.721 641.6 104.091 643.24C140.541 644.92 133.711 693.73 93.551 690.89C103.061 698.68 106.061 723.07 72.091 731.69C71.311 731.9 70.581 732.02 69.731 732.18C42.261 737.88 16.521 791.96 85.331 844.51C120.931 871.75 88.831 909.36 41.891 901.39C8.10101 895.66 -12.039 920.15 8.09101 941.95C-2.10899 923.8 13.221 904.42 44.681 920.07C74.031 934.62 103.221 929.92 113.511 913.42C136.851 876.01 82.761 855.6 92.591 823.95C102.421 792.31 144.571 797.39 157.481 745.63C170.451 694.15 210.501 725.82 188.031 748.63Z" fill="url(#paint15_linear_2301_1361)"/>
<path opacity="0.1" d="M292.882 643.76C242.912 602.95 293.992 576.3 319.622 578.1C345.262 579.9 352.242 561.36 352.242 561.36C338.912 568.13 329.802 565.52 329.802 565.52C359.712 557.84 358.942 532.04 358.942 532.04C366.692 539.31 364.982 548.94 364.982 548.94C364.982 548.94 375.942 532.7 357.612 513.88C339.372 495.12 312.332 497.82 312.332 497.82C319.322 485.93 325.252 460.02 298.072 442.72C270.952 425.33 263.112 434.08 263.112 434.08C271.742 435.22 276.412 443.22 276.412 443.22C258.882 436.81 239.382 449.44 239.382 449.44C232.282 433.92 216.552 423.91 199.562 424.84C198.992 424.91 198.422 424.98 197.752 424.99C173.952 426.91 158.352 457.85 168.532 474.48C168.532 474.48 170.972 461.28 183.842 462.21C194.562 462.96 205.372 484.47 192.312 501.35C193.052 495.01 192.042 487.79 186.282 481.67C186.282 481.67 194.242 501 171.302 516.82C148.162 530.01 128.722 539.09 128.222 565.48C128.222 565.48 132.032 551.75 145.792 549.75C145.792 549.75 157.962 550.28 153.322 564.99C148.742 579.6 127.462 588.42 109.082 578.86C109.082 578.86 116.762 589.93 135.632 589.42C117.212 596.97 97.1517 604.36 88.0117 627.09C88.0117 627.09 93.0517 618.58 103.512 614.94C109.762 612.84 116.742 614.09 121.572 618.6C123.572 620.42 125.132 622.78 125.422 625.73C127.752 644.46 101.052 628.64 92.7217 658.48C92.7217 658.48 95.1817 654.45 99.9517 652.17C105.042 649.8 110.572 654.46 109.172 659.88C108.652 661.7 107.842 664.02 106.452 666.67C106.452 666.67 106.452 666.67 106.392 666.77C97.7517 683.82 98.6217 703.7 117.662 716.69C102.112 700.4 123.342 658.77 141.692 666.32C142.902 666.75 143.942 667.49 144.922 668.32C148.562 671.22 152.672 676.51 147.302 688.81C143.602 697.29 148.392 703.25 150.512 709.92C148.722 706.36 145.512 702.25 140.242 697.35C128.092 686.21 133.782 678.88 133.782 678.88C133.782 678.88 124.222 690.62 138.482 707.08C151.872 722.51 139.492 733.15 137.822 734.44C136.912 735.11 136.092 735.83 135.072 736.44C102.512 759.98 113.912 788.07 113.912 788.07C115.212 747.4 186.422 753.49 188.322 695.91C188.662 684.29 190.132 672.53 192.622 662.02C195.902 669.22 201.212 670.83 201.212 670.83C194.432 663.73 194.932 655.26 196.412 649.47C196.732 648.46 201.872 632.18 220.772 633.01C240.342 633.83 251.862 616.85 253.952 608.63C254.822 619.09 259.532 627.25 259.532 627.25C254.752 615.06 269.792 598.66 269.792 598.66C259.212 625.74 270.492 627.34 285.212 661.86C293.662 681.48 270.732 706.73 270.732 706.73C294.982 691.18 322.182 667.73 292.882 643.76Z" fill="#5BD9E5"/>
<path opacity="0.8" d="M313.202 508.87C302.842 514.96 296.022 508.2 296.022 508.2C306.462 522.41 327.692 509.32 336.692 514.65C345.682 519.98 345.702 526.7 345.702 526.7C338.872 519.94 332.952 523.23 332.952 523.23C344.762 539.71 323.332 564.77 296.162 564.9C269.092 565.09 266.742 582.65 266.742 582.65C266.742 582.65 266.562 562.28 290.862 557.81C315.072 553.28 317.592 539.84 317.592 539.84C306.092 554.66 287.632 551.78 269.712 554.71C251.792 557.64 250.602 575.74 250.602 575.74C243.912 559.67 256.592 549.55 256.592 549.55C256.592 549.55 231.332 560.32 240.882 580.72C250.372 601.23 227.992 623.05 215.592 607.57C203.202 592.09 194.852 599.35 194.852 599.35C201.922 587.33 212.932 593.82 212.932 593.82C199.852 579.29 171.042 582.5 177.202 606.46C183.422 630.31 153.352 635.48 153.352 635.48C173.472 615.03 162.972 593.94 160.732 581.78C158.492 569.62 167.362 561.46 167.362 561.46C165.212 569.61 171.032 575.79 171.032 575.79C170.682 551.3 189.842 530.17 189.842 530.17C171.922 533.1 167.172 541.09 167.172 541.09C172.582 515.91 200.392 512.11 207.292 495.97C214.092 479.77 209.102 470.05 209.102 470.05C215.502 475.22 216.202 480.99 216.202 480.99C213.992 452.75 188.972 444.73 188.972 444.73C205.192 435.45 221.652 446.43 221.652 446.43C218.682 437.87 210.592 436.55 210.592 436.55C232.902 437.63 242.042 463.17 242.042 463.17C261.262 448.92 270.682 455.84 270.682 455.84C266.292 451.83 259.522 451.94 259.522 451.94C275.582 445.25 296.592 457.66 296.592 457.66C296.592 457.66 306.962 461.77 311.212 475.09C311.212 475.09 306.672 468.31 300.902 474.37C292.732 483.22 302.052 511.69 313.202 508.87Z" fill="url(#paint16_linear_2301_1361)"/>
<path d="M331.052 429.62C347.982 401.1 348.172 384.91 346.512 377.29C345.632 373.45 342.562 371.56 338.802 372.72C331.382 374.86 317.252 382.87 300.312 411.39C283.482 439.73 282.552 456.8 283.812 464.91C284.432 469.19 287.712 471.33 291.812 470.01C299.332 467.69 313.502 459.21 331.052 429.62Z" fill="#474854"/>
<path opacity="0.1" d="M336.161 406.76C346.171 389.82 346.381 380.19 345.311 375.65C344.851 373.36 342.981 372.28 340.731 372.88C336.321 374.14 327.871 378.89 317.861 395.83C307.901 412.68 307.291 422.79 308.061 427.64C308.461 430.25 310.371 431.47 312.811 430.74C317.321 429.31 325.701 424.27 336.161 406.76Z" fill="white"/>
<path opacity="0.21" d="M338.89 372.77C340.721 372.28 342.33 372.38 343.66 373.15C342.41 372.43 340.85 372.24 339.17 372.7C332.46 374.65 319.61 381.86 304.42 407.58C289.18 433.16 288.35 448.61 289.48 455.93C290.08 459.84 293.06 461.68 296.68 460.56C303.59 458.48 316.37 450.76 332.22 424.11C347.56 398.36 347.7 383.69 346.17 376.86C345.77 375.08 344.92 373.88 343.67 373.16C345.01 373.93 345.9 375.28 346.33 377.2C347.97 384.45 347.69 399.99 331.56 427.31C314.78 455.56 301.23 463.8 293.9 465.99C290 467.19 286.89 465.15 286.26 461.1C285.07 453.27 285.91 436.99 302.07 409.8C318.19 382.47 331.75 374.84 338.89 372.77Z" fill="#27272D"/>
<defs>
<radialGradient id="paint0_radial_2301_1361" cx="0" cy="0" r="1" gradientUnits="userSpaceOnUse" gradientTransform="translate(487.507 -15.3522) rotate(9.99019) scale(375.253 364.313)">
<stop offset="0.1106" stop-color="#57DCEA" stop-opacity="0"/>
<stop offset="0.6861" stop-color="#57C8CE"/>
</radialGradient>
<radialGradient id="paint1_radial_2301_1361" cx="0" cy="0" r="1" gradientUnits="userSpaceOnUse" gradientTransform="translate(520.367 -115.671) rotate(30.5507) scale(672.936 646.805)">
<stop stop-color="#57DCEA" stop-opacity="0"/>
<stop offset="0.5938" stop-color="#57C8CE"/>
</radialGradient>
<linearGradient id="paint2_linear_2301_1361" x1="456.685" y1="182.93" x2="588.018" y2="-36.0166" gradientUnits="userSpaceOnUse">
<stop stop-color="#5ADFE5" stop-opacity="0"/>
<stop offset="0.1095" stop-color="#75E4E9" stop-opacity="0.1269"/>
<stop offset="0.3679" stop-color="#B0F0F3" stop-opacity="0.4267"/>
<stop offset="0.5886" stop-color="#DBF8F9" stop-opacity="0.6827"/>
<stop offset="0.7604" stop-color="#F5FDFD" stop-opacity="0.8819"/>
<stop offset="0.8622" stop-color="white"/>
</linearGradient>
<linearGradient id="paint3_linear_2301_1361" x1="635.963" y1="-125.385" x2="455.609" y2="184.451" gradientUnits="userSpaceOnUse">
<stop offset="0.339" stop-color="white"/>
<stop offset="1" stop-color="white" stop-opacity="0"/>
</linearGradient>
<radialGradient id="paint4_radial_2301_1361" cx="0" cy="0" r="1" gradientUnits="userSpaceOnUse" gradientTransform="translate(485.575 141.252) rotate(-149.269) scale(304.953 305.02)">
<stop offset="0.339" stop-color="#57DCEA"/>
<stop offset="1" stop-color="#04B2C4"/>
</radialGradient>
<radialGradient id="paint5_radial_2301_1361" cx="0" cy="0" r="1" gradientUnits="userSpaceOnUse" gradientTransform="translate(420.091 244.973) rotate(30.0114) scale(70.774 70.7902)">
<stop offset="0.1795" stop-color="#5ADFE5" stop-opacity="0"/>
<stop offset="1" stop-color="white"/>
</radialGradient>
<radialGradient id="paint6_radial_2301_1361" cx="0" cy="0" r="1" gradientUnits="userSpaceOnUse" gradientTransform="translate(461.076 128.699) rotate(-149.269) scale(69.839 69.8543)">
<stop offset="0.339" stop-color="white"/>
<stop offset="1" stop-color="white" stop-opacity="0"/>
</radialGradient>
<radialGradient id="paint7_radial_2301_1361" cx="0" cy="0" r="1" gradientUnits="userSpaceOnUse" gradientTransform="translate(394.845 265.996) rotate(-149.271) scale(47.804 48.5135)">
<stop offset="0.339" stop-color="white"/>
<stop offset="1" stop-color="white" stop-opacity="0"/>
</radialGradient>
<radialGradient id="paint8_radial_2301_1361" cx="0" cy="0" r="1" gradientUnits="userSpaceOnUse" gradientTransform="translate(459.181 244.516) rotate(-149.269) scale(66.5782 66.5929)">
<stop offset="0.339" stop-color="white"/>
<stop offset="1" stop-color="white" stop-opacity="0"/>
</radialGradient>
<radialGradient id="paint9_radial_2301_1361" cx="0" cy="0" r="1" gradientUnits="userSpaceOnUse" gradientTransform="translate(351.702 317.598) rotate(51.4564) scale(64.2005 64.1939)">
<stop offset="0.1823" stop-color="#57DCEA"/>
<stop offset="0.6861" stop-color="#04B2C4"/>
</radialGradient>
<radialGradient id="paint10_radial_2301_1361" cx="0" cy="0" r="1" gradientUnits="userSpaceOnUse" gradientTransform="translate(365.128 337.054) rotate(6.45005) scale(63.0496 63.0777)">
<stop offset="0.3849" stop-color="#57DCEA"/>
<stop offset="0.7584" stop-color="#04B2C4"/>
</radialGradient>
<radialGradient id="paint11_radial_2301_1361" cx="0" cy="0" r="1" gradientUnits="userSpaceOnUse" gradientTransform="translate(387.911 289.487) rotate(6.45004) scale(40.7453 40.7635)">
<stop offset="0.1823" stop-color="#57DCEA"/>
<stop offset="0.6861" stop-color="#04B2C4"/>
</radialGradient>
<radialGradient id="paint12_radial_2301_1361" cx="0" cy="0" r="1" gradientUnits="userSpaceOnUse" gradientTransform="translate(443.339 275.626) rotate(6.45005) scale(75.7132 75.7471)">
<stop offset="0.339" stop-color="white"/>
<stop offset="1" stop-color="white" stop-opacity="0"/>
</radialGradient>
<radialGradient id="paint13_radial_2301_1361" cx="0" cy="0" r="1" gradientUnits="userSpaceOnUse" gradientTransform="translate(398.075 308.239) rotate(6.45006) scale(44.9051 44.9248)">
<stop offset="0.339" stop-color="white"/>
<stop offset="1" stop-color="white" stop-opacity="0"/>
</radialGradient>
<linearGradient id="paint14_linear_2301_1361" x1="288.874" y1="394.371" x2="24.2452" y2="1005.35" gradientUnits="userSpaceOnUse">
<stop stop-color="#3B98F4"/>
<stop offset="1" stop-color="#3B98F4" stop-opacity="0"/>
</linearGradient>
<linearGradient id="paint15_linear_2301_1361" x1="289.775" y1="393.816" x2="43.2065" y2="956.524" gradientUnits="userSpaceOnUse">
<stop stop-color="#5BD9E5"/>
<stop offset="1" stop-color="#5BD9E5" stop-opacity="0"/>
</linearGradient>
<linearGradient id="paint16_linear_2301_1361" x1="286.861" y1="451.937" x2="173.958" y2="647.391" gradientUnits="userSpaceOnUse">
<stop stop-color="#5BD9E5"/>
<stop offset="1" stop-color="#69DBFF" stop-opacity="0"/>
</linearGradient>
</defs>
</svg>
